<svg xmlns="http://www.w3.org/2000/svg" viewBox="0 0 28.571 25">
  <path id="Icon_awesome-server" data-name="Icon awesome-server" d="M26.786,9.393h-25A1.786,1.786,0,0,1,0,7.607V4.036A1.786,1.786,0,0,1,1.786,2.25h25a1.786,1.786,0,0,1,1.786,1.786V7.607A1.786,1.786,0,0,1,26.786,9.393ZM24.107,4.482a1.339,1.339,0,1,0,1.339,1.339A1.339,1.339,0,0,0,24.107,4.482Zm-3.571,0a1.339,1.339,0,1,0,1.339,1.339A1.339,1.339,0,0,0,20.536,4.482Zm6.25,13.839h-25A1.786,1.786,0,0,1,0,16.536V12.964a1.786,1.786,0,0,1,1.786-1.786h25a1.786,1.786,0,0,1,1.786,1.786v3.571A1.786,1.786,0,0,1,26.786,18.321Zm-2.679-4.911a1.339,1.339,0,1,0,1.339,1.339A1.339,1.339,0,0,0,24.107,13.411Zm-3.571,0a1.339,1.339,0,1,0,1.339,1.339A1.339,1.339,0,0,0,20.536,13.411Zm6.25,13.839h-25A1.786,1.786,0,0,1,0,25.464V21.893a1.786,1.786,0,0,1,1.786-1.786h25a1.786,1.786,0,0,1,1.786,1.786v3.571A1.786,1.786,0,0,1,26.786,27.25Zm-2.679-4.911a1.339,1.339,0,1,0,1.339,1.339A1.339,1.339,0,0,0,24.107,22.339Zm-3.571,0a1.339,1.339,0,1,0,1.339,1.339A1.339,1.339,0,0,0,20.536,22.339Z" transform="translate(0 -2.25)" fill=""/>
</svg>
