<svg viewBox="0 0 28.09 25">
  <path id="Icon_simple-swift" data-name="Icon simple-swift" d="M25.731,19.567c.066-.131.066-.262.131-.393,1.575-6.17-2.166-13.388-8.6-17.2a15.085,15.085,0,0,1,2.954,12.4,6.454,6.454,0,0,1-.328,1.05,6.055,6.055,0,0,1-.527-.328A80.263,80.263,0,0,1,6.172,4.276a79.132,79.132,0,0,0,8.007,10.041A87.167,87.167,0,0,1,2.758,5.653,15.143,15.143,0,0,0,4.333,7.82,67.405,67.405,0,0,0,16.018,20.026c-3.347,2.036-8.008,2.166-12.734,0A18.855,18.855,0,0,1,0,18.057a19.386,19.386,0,0,0,8.73,7.416c4.4,1.9,8.86,1.773,12.076,0h.067a1.371,1.371,0,0,0,.393-.262c1.575-.788,4.661-1.641,6.367,1.641.459.919,1.312-3.347-1.9-7.285Z" transform="translate(-0.001 -1.979)" fill=""/>
</svg>
