<svg xmlns="http://www.w3.org/2000/svg" viewBox="0 0 33.332 25">
  <path id="Subtraction_19" data-name="Subtraction 19" d="M-19485.666-2368H-19515a2,2,0,0,1-2-2v-21a2,2,0,0,1,2-2h29.336a2,2,0,0,1,2,2v2.042h0V-2370A2,2,0,0,1-19485.666-2368Zm-15.459-10.291h0v8.087h14.283v-8.087h-14.283Zm-12.7-8.826h0v16.913h11.113v-16.913h-11.113Zm22.223,0h0v7.352h4.762v-7.352h-4.762Zm-9.521,0h0v7.352h7.936v-7.352h-7.936Zm-7.146-4.413a.766.766,0,0,0-.789.74.764.764,0,0,0,.789.735.769.769,0,0,0,.8-.735A.771.771,0,0,0-19508.271-2391.532Zm-2.381,0a.768.768,0,0,0-.793.74.766.766,0,0,0,.793.735.766.766,0,0,0,.793-.735A.768.768,0,0,0-19510.652-2391.532Zm-2.381,0a.768.768,0,0,0-.793.74.766.766,0,0,0,.793.735.769.769,0,0,0,.8-.735A.771.771,0,0,0-19513.033-2391.532Z" transform="translate(19517 2393.002)" fill="#888"/>
</svg>
