<svg viewBox="0 0 155 45" fill="none" xmlns="http://www.w3.org/2000/svg">
<path d="M49.3778 11.0455V8.81818H58.2273V11.0455H55.1648V19H52.4403V11.0455H49.3778ZM59.2676 19V8.81818H62.0318V12.7955H65.6909V8.81818H68.4551V19H65.6909V15.0227H62.0318V19H59.2676ZM69.7676 19V8.81818H77.1056V11.0455H72.5318V12.7955H76.7278V15.0227H72.5318V16.7727H77.0858V19H69.7676ZM81.2656 19V8.81818H84.0298V12.7955H87.6889V8.81818H90.4531V19H87.6889V15.0227H84.0298V19H81.2656ZM94.4105 19H91.4276L94.7884 8.81818H98.5668L101.928 19H98.9446L96.7173 11.6222H96.6378L94.4105 19ZM93.8537 14.983H99.4616V17.0511H93.8537V14.983ZM102.908 19V8.81818H107.303C108.059 8.81818 108.72 8.96733 109.287 9.26562C109.854 9.56392 110.294 9.98319 110.609 10.5234C110.924 11.0637 111.081 11.6951 111.081 12.4176C111.081 13.1468 110.919 13.7782 110.594 14.3118C110.273 14.8454 109.82 15.2564 109.237 15.5447C108.657 15.8331 107.979 15.9773 107.204 15.9773H104.579V13.8295H106.647C106.972 13.8295 107.248 13.7732 107.477 13.6605C107.709 13.5445 107.886 13.3804 108.009 13.1683C108.135 12.9562 108.198 12.706 108.198 12.4176C108.198 12.1259 108.135 11.8774 108.009 11.6719C107.886 11.4631 107.709 11.304 107.477 11.1946C107.248 11.0819 106.972 11.0256 106.647 11.0256H105.672V19H102.908ZM112.096 19V8.81818H116.491C117.246 8.81818 117.907 8.96733 118.474 9.26562C119.041 9.56392 119.482 9.98319 119.797 10.5234C120.112 11.0637 120.269 11.6951 120.269 12.4176C120.269 13.1468 120.107 13.7782 119.782 14.3118C119.46 14.8454 119.008 15.2564 118.425 15.5447C117.845 15.8331 117.167 15.9773 116.391 15.9773H113.766V13.8295H115.834C116.159 13.8295 116.436 13.7732 116.665 13.6605C116.897 13.5445 117.074 13.3804 117.197 13.1683C117.323 12.9562 117.385 12.706 117.385 12.4176C117.385 12.1259 117.323 11.8774 117.197 11.6719C117.074 11.4631 116.897 11.304 116.665 11.1946C116.436 11.0819 116.159 11.0256 115.834 11.0256H114.86V19H112.096ZM120.866 8.81818H123.948L125.937 12.9545H126.016L128.005 8.81818H131.087L127.349 15.7983V19H124.604V15.7983L120.866 8.81818ZM49.6562 36V25.8182H54.0511C54.8068 25.8182 55.468 25.9673 56.0348 26.2656C56.6016 26.5639 57.0424 26.9832 57.3572 27.5234C57.6721 28.0637 57.8295 28.6951 57.8295 29.4176C57.8295 30.1468 57.6671 30.7782 57.3423 31.3118C57.0208 31.8454 56.5684 32.2564 55.9851 32.5447C55.4051 32.8331 54.7273 32.9773 53.9517 32.9773H51.3267V30.8295H53.3949C53.7197 30.8295 53.9964 30.7732 54.2251 30.6605C54.4571 30.5445 54.6345 30.3804 54.7571 30.1683C54.883 29.9562 54.946 29.706 54.946 29.4176C54.946 29.1259 54.883 28.8774 54.7571 28.6719C54.6345 28.4631 54.4571 28.304 54.2251 28.1946C53.9964 28.0819 53.7197 28.0256 53.3949 28.0256H52.4205V36H49.6562ZM58.8438 36V25.8182H63.2386C63.9943 25.8182 64.6555 25.9557 65.2223 26.2308C65.7891 26.5059 66.2299 26.902 66.5447 27.419C66.8596 27.9361 67.017 28.5559 67.017 29.2784C67.017 30.0076 66.8546 30.6224 66.5298 31.1229C66.2083 31.6233 65.7559 32.0012 65.1726 32.2564C64.5926 32.5116 63.9148 32.6392 63.1392 32.6392H60.5142V30.4915H62.5824C62.9072 30.4915 63.1839 30.4517 63.4126 30.3722C63.6446 30.2893 63.822 30.1584 63.9446 29.9794C64.0705 29.8004 64.1335 29.5668 64.1335 29.2784C64.1335 28.9867 64.0705 28.7498 63.9446 28.5675C63.822 28.3819 63.6446 28.246 63.4126 28.1598C63.1839 28.0703 62.9072 28.0256 62.5824 28.0256H61.608V36H58.8438ZM64.8097 31.3267L67.3551 36H64.3523L61.8665 31.3267H64.8097ZM78.0589 30.9091C78.0589 32.0426 77.8385 32.9988 77.3977 33.7777C76.9569 34.5533 76.362 35.1416 75.6129 35.5426C74.8639 35.9403 74.0286 36.1392 73.1072 36.1392C72.1792 36.1392 71.3407 35.9387 70.5916 35.5376C69.8459 35.1333 69.2526 34.5433 68.8118 33.7678C68.3743 32.9889 68.1555 32.036 68.1555 30.9091C68.1555 29.7756 68.3743 28.821 68.8118 28.0455C69.2526 27.2666 69.8459 26.6783 70.5916 26.2805C71.3407 25.8795 72.1792 25.679 73.1072 25.679C74.0286 25.679 74.8639 25.8795 75.6129 26.2805C76.362 26.6783 76.9569 27.2666 77.3977 28.0455C77.8385 28.821 78.0589 29.7756 78.0589 30.9091ZM75.2152 30.9091C75.2152 30.2992 75.134 29.7855 74.9716 29.3679C74.8125 28.947 74.5755 28.6288 74.2607 28.4134C73.9491 28.1946 73.5646 28.0852 73.1072 28.0852C72.6499 28.0852 72.2637 28.1946 71.9489 28.4134C71.6373 28.6288 71.4003 28.947 71.2379 29.3679C71.0788 29.7855 70.9993 30.2992 70.9993 30.9091C70.9993 31.5189 71.0788 32.0343 71.2379 32.4553C71.4003 32.8729 71.6373 33.1911 71.9489 33.4098C72.2637 33.6252 72.6499 33.733 73.1072 33.733C73.5646 33.733 73.9491 33.6252 74.2607 33.4098C74.5755 33.1911 74.8125 32.8729 74.9716 32.4553C75.134 32.0343 75.2152 31.5189 75.2152 30.9091ZM85.9501 29.179C85.907 29.0033 85.8391 28.8492 85.7463 28.7166C85.6535 28.5807 85.5375 28.4664 85.3983 28.3736C85.2624 28.2775 85.1033 28.2062 84.921 28.1598C84.742 28.1101 84.5448 28.0852 84.3294 28.0852C83.8654 28.0852 83.4693 28.1963 83.1412 28.4183C82.8163 28.6404 82.5678 28.9602 82.3954 29.3778C82.2264 29.7955 82.1419 30.2992 82.1419 30.8892C82.1419 31.4858 82.2231 31.9962 82.3855 32.4205C82.5479 32.8447 82.7898 33.1695 83.1113 33.3949C83.4328 33.6203 83.8322 33.733 84.3095 33.733C84.7304 33.733 85.0801 33.6716 85.3585 33.549C85.6402 33.4264 85.8507 33.2524 85.9899 33.027C86.1291 32.8016 86.1987 32.5365 86.1987 32.2315L86.676 32.2812H84.3493V30.3125H88.8635V31.7244C88.8635 32.6525 88.6663 33.4463 88.2718 34.1058C87.8807 34.7621 87.3405 35.2659 86.6511 35.6172C85.965 35.9652 85.1779 36.1392 84.2896 36.1392C83.2986 36.1392 82.4286 35.9287 81.6795 35.5078C80.9305 35.0869 80.3455 34.487 79.9245 33.7081C79.5069 32.9292 79.2981 32.0028 79.2981 30.929C79.2981 30.0871 79.4257 29.3414 79.6809 28.6918C79.9395 28.0421 80.2974 27.4936 80.7548 27.0462C81.2122 26.5954 81.7408 26.2557 82.3407 26.027C82.9406 25.795 83.5836 25.679 84.2697 25.679C84.8729 25.679 85.4331 25.7652 85.9501 25.9375C86.4705 26.1065 86.9295 26.3485 87.3272 26.6634C87.7283 26.9749 88.0514 27.3445 88.2967 27.772C88.542 28.1996 88.6911 28.6686 88.7441 29.179H85.9501ZM90.1523 36V25.8182H94.5472C95.3029 25.8182 95.9641 25.9557 96.5309 26.2308C97.0977 26.5059 97.5385 26.902 97.8533 27.419C98.1682 27.9361 98.3256 28.5559 98.3256 29.2784C98.3256 30.0076 98.1632 30.6224 97.8384 31.1229C97.5169 31.6233 97.0645 32.0012 96.4812 32.2564C95.9012 32.5116 95.2234 32.6392 94.4478 32.6392H91.8228V30.4915H93.891C94.2158 30.4915 94.4925 30.4517 94.7212 30.3722C94.9532 30.2893 95.1306 30.1584 95.2532 29.9794C95.3791 29.8004 95.4421 29.5668 95.4421 29.2784C95.4421 28.9867 95.3791 28.7498 95.2532 28.5675C95.1306 28.3819 94.9532 28.246 94.7212 28.1598C94.4925 28.0703 94.2158 28.0256 93.891 28.0256H92.9165V36H90.1523ZM96.1183 31.3267L98.6637 36H95.6609L93.1751 31.3267H96.1183ZM102.149 36H99.1658L102.527 25.8182H106.305L109.666 36H106.683L104.456 28.6222H104.376L102.149 36ZM101.592 31.983H107.2V34.0511H101.592V31.983ZM110.646 25.8182H114.087L116.453 31.5852H116.573L118.939 25.8182H122.379V36H119.675V30.1136H119.595L117.328 35.9205H115.698L113.431 30.0739H113.351V36H110.646V25.8182ZM123.689 25.8182H127.13L129.496 31.5852H129.616L131.982 25.8182H135.422V36H132.718V30.1136H132.638L130.371 35.9205H128.741L126.474 30.0739H126.394V36H123.689V25.8182ZM136.732 36V25.8182H144.07V28.0455H139.497V29.7955H143.693V32.0227H139.497V33.7727H144.051V36H136.732ZM145.441 36V25.8182H149.836C150.592 25.8182 151.253 25.9557 151.82 26.2308C152.387 26.5059 152.828 26.902 153.142 27.419C153.457 27.9361 153.615 28.5559 153.615 29.2784C153.615 30.0076 153.452 30.6224 153.127 31.1229C152.806 31.6233 152.354 32.0012 151.77 32.2564C151.19 32.5116 150.512 32.6392 149.737 32.6392H147.112V30.4915H149.18C149.505 30.4915 149.782 30.4517 150.01 30.3722C150.242 30.2893 150.42 30.1584 150.542 29.9794C150.668 29.8004 150.731 29.5668 150.731 29.2784C150.731 28.9867 150.668 28.7498 150.542 28.5675C150.42 28.3819 150.242 28.246 150.01 28.1598C149.782 28.0703 149.505 28.0256 149.18 28.0256H148.206V36H145.441ZM151.407 31.3267L153.953 36H150.95L148.464 31.3267H151.407Z" fill="white"/>
<path d="M41.25 22.5C41.25 32.8553 32.8553 41.25 22.5 41.25C12.1447 41.25 3.75 32.8553 3.75 22.5C3.75 12.1447 12.1447 3.75 22.5 3.75C32.8553 3.75 41.25 12.1447 41.25 22.5Z" stroke="white" stroke-width="7.5"/>
<path d="M22.238 10.2093L32.238 30.2093H12.238L22.238 10.2093Z" fill="white"/>
</svg>
