<svg xmlns="http://www.w3.org/2000/svg" viewBox="0 0 57.998 58.004"><path d="M-19464-2335h-48a5.007,5.007,0,0,1-5-5v-48a5.007,5.007,0,0,1,5-5h48a5.007,5.007,0,0,1,5,5v48A5.007,5.007,0,0,1-19464-2335Zm-33.66-52a4.347,4.347,0,0,0-4.34,4.345v37.613a4.345,4.345,0,0,0,4.34,4.34h20.254a4.345,4.345,0,0,0,4.34-4.34v-37.613a4.347,4.347,0,0,0-4.34-4.345Zm10.129,43.4a2.9,2.9,0,0,1-2.895-2.895,2.9,2.9,0,0,1,2.895-2.89,2.894,2.894,0,0,1,2.891,2.89A2.9,2.9,0,0,1-19487.533-2343.6Zm11.178-8.038h-22.359a2,2,0,0,1-2-2v-29.433a2,2,0,0,1,2-2h22.359a2.007,2.007,0,0,1,2,2v29.433A2,2,0,0,1-19476.355-2351.637Zm-21.43-8.219a2,2,0,0,0-2,2v1a2,2,0,0,0,2,2h20a2,2,0,0,0,2-2v-1a2.005,2.005,0,0,0-2-2Zm0-8a2,2,0,0,0-2,2v1a2,2,0,0,0,2,2h20a2.005,2.005,0,0,0,2-2v-1a2,2,0,0,0-2-2Zm13.006-15a2,2,0,0,0-2,2v7a2,2,0,0,0,2,2h7a2,2,0,0,0,2-2v-7a2,2,0,0,0-2-2Zm-13,0a2,2,0,0,0-2,2v7a2,2,0,0,0,2,2h7a2,2,0,0,0,2-2v-7a2,2,0,0,0-2-2Z" transform="translate(19517 2393.002)"/></svg>