<svg xmlns="http://www.w3.org/2000/svg" viewBox="0 0 57.998 58.004"><path d="M-19464-2335h-48a5.007,5.007,0,0,1-5-5v-48a5.007,5.007,0,0,1,5-5h48a5.007,5.007,0,0,1,5,5v48A5.007,5.007,0,0,1-19464-2335Zm-39.748-22.5a2.25,2.25,0,0,0-2.248,2.248v4.5a2.25,2.25,0,0,0,2.248,2.248h31.5a2.252,2.252,0,0,0,2.252-2.248v-4.5a2.252,2.252,0,0,0-2.252-2.248Zm0-11.251a2.253,2.253,0,0,0-2.248,2.253v4.5a2.253,2.253,0,0,0,2.248,2.253h31.5A2.255,2.255,0,0,0-19470-2362v-4.5a2.255,2.255,0,0,0-2.252-2.253Zm0-11.251a2.253,2.253,0,0,0-2.248,2.253v4.5a2.253,2.253,0,0,0,2.248,2.253h31.5a2.255,2.255,0,0,0,2.252-2.253v-4.5a2.255,2.255,0,0,0-2.252-2.253Zm28.125,28.688a1.687,1.687,0,0,1-1.686-1.685,1.689,1.689,0,0,1,1.686-1.69,1.691,1.691,0,0,1,1.689,1.69A1.689,1.689,0,0,1-19475.625-2351.314Zm-4.5,0a1.687,1.687,0,0,1-1.686-1.685,1.689,1.689,0,0,1,1.686-1.69,1.691,1.691,0,0,1,1.689,1.69A1.689,1.689,0,0,1-19480.127-2351.314Zm4.5-11.251a1.687,1.687,0,0,1-1.686-1.685,1.689,1.689,0,0,1,1.686-1.69,1.691,1.691,0,0,1,1.689,1.69A1.689,1.689,0,0,1-19475.625-2362.565Zm-4.5,0a1.687,1.687,0,0,1-1.686-1.685,1.689,1.689,0,0,1,1.686-1.69,1.691,1.691,0,0,1,1.689,1.69A1.689,1.689,0,0,1-19480.127-2362.565Zm4.5-11.246a1.689,1.689,0,0,1-1.686-1.69,1.687,1.687,0,0,1,1.686-1.685,1.689,1.689,0,0,1,1.689,1.685A1.692,1.692,0,0,1-19475.625-2373.811Zm-4.5,0a1.689,1.689,0,0,1-1.686-1.69,1.687,1.687,0,0,1,1.686-1.685,1.689,1.689,0,0,1,1.689,1.685A1.692,1.692,0,0,1-19480.127-2373.811Z" transform="translate(19517 2393.002)"/></svg>