<svg xmlns="http://www.w3.org/2000/svg" viewBox="0 0 57.998 58.004"><path d="M-19464-2335h-48a5.007,5.007,0,0,1-5-5v-48a5.007,5.007,0,0,1,5-5h48a5.007,5.007,0,0,1,5,5v48A5.007,5.007,0,0,1-19464-2335Zm-11.189-16.146a4.987,4.987,0,0,1,4.605,3.024c.057.109.111.162.172.162s.133-.066.193-.192a6.849,6.849,0,0,0,.006-3.493,13.445,13.445,0,0,0-2.811-5.812,1.109,1.109,0,0,0,.084-.252l0-.009a1.082,1.082,0,0,1,.082-.243,15.567,15.567,0,0,0,.287-6.092,19.574,19.574,0,0,0-1.949-6.062,24.585,24.585,0,0,0-9.359-9.887c3.658,4.935,5.039,10.731,3.787,15.9a7.807,7.807,0,0,1-.422,1.347c-.215-.119-.436-.257-.676-.421l-.006,0a104.853,104.853,0,0,1-16.9-13.874l-.008-.007a103.243,103.243,0,0,0,10.27,12.874,112.549,112.549,0,0,1-14.635-11.1,19.083,19.083,0,0,0,1.961,2.707l.006.008.051.063c7.184,9.213,11.775,13.2,14.973,15.645a14.617,14.617,0,0,1-7.623,2.021,20.869,20.869,0,0,1-8.7-2.021,24.416,24.416,0,0,1-4.2-2.522,24.834,24.834,0,0,0,11.188,9.5,20.752,20.752,0,0,0,8.162,1.77,15.17,15.17,0,0,0,7.314-1.77h.084l.018-.008a1.734,1.734,0,0,0,.486-.325A8.2,8.2,0,0,1-19475.191-2351.144Z" transform="translate(19517 2393.002)"/></svg>