<svg xmlns="http://www.w3.org/2000/svg" viewBox="0 0 57.998 58.004"><path d="M-19464-2335h-48a5.007,5.007,0,0,1-5-5v-48a5.007,5.007,0,0,1,5-5h48a5.007,5.007,0,0,1,5,5v48A5.007,5.007,0,0,1-19464-2335Zm-41-47a5.006,5.006,0,0,0-5,5v26a5.006,5.006,0,0,0,5,5h34a5.007,5.007,0,0,0,5-5v-26a5.007,5.007,0,0,0-5-5Zm34.811,32.827h-18.857v-11.648h18.857v11.647Zm-20.953,0h-14.666v-24.353h14.666v24.352Zm20.949-13.769h-6.285v-10.585h6.285v10.584Zm-8.375,0h-10.479v-10.585h10.479v10.584Zm-19.906-14.822a1.055,1.055,0,0,1-1.049-1.058,1.055,1.055,0,0,1,1.049-1.058,1.054,1.054,0,0,1,1.047,1.058A1.054,1.054,0,0,1-19498.475-2377.764Zm-3.145,0a1.055,1.055,0,0,1-1.049-1.058,1.055,1.055,0,0,1,1.049-1.058,1.054,1.054,0,0,1,1.047,1.058A1.054,1.054,0,0,1-19501.619-2377.764Zm-3.145,0a1.053,1.053,0,0,1-1.045-1.058,1.053,1.053,0,0,1,1.045-1.058,1.057,1.057,0,0,1,1.053,1.058A1.057,1.057,0,0,1-19504.764-2377.764Z" transform="translate(19517 2393.002)"/></svg>