<svg  viewBox="0 0 339 403" fill="none" xmlns="http://www.w3.org/2000/svg">
<path d="M288.956 0.869668C288.956 0.389364 289.346 0 289.826 0H315.83C316.311 0 316.7 0.389364 316.7 0.869668C316.7 1.34997 316.311 1.73934 315.83 1.73934H289.826C289.346 1.73934 288.956 1.34997 288.956 0.869668Z" fill="#717075"/>
<path d="M337.216 32.3918C337.696 32.3918 338.086 32.7812 338.086 33.2615L338.086 47.503C338.086 47.9833 337.696 48.3727 337.216 48.3727C336.736 48.3727 336.346 47.9833 336.346 47.503L336.346 33.2615C336.346 32.7812 336.736 32.3918 337.216 32.3918Z" fill="#717075"/>
<path d="M337.216 51.8872C337.696 51.8872 338.086 52.2766 338.086 52.7569L338.086 66.9984C338.086 67.4787 337.696 67.868 337.216 67.868C336.736 67.868 336.346 67.4787 336.346 66.9984L336.346 52.7569C336.346 52.2766 336.736 51.8872 337.216 51.8872Z" fill="#717075"/>
<path d="M48 20.2708C48 9.56473 56.679 0.885742 67.3851 0.885742H317.831C328.537 0.885742 337.216 9.56475 337.216 20.2709V382.633C337.216 393.339 328.537 402.018 317.831 402.018H67.3851C56.679 402.018 48 393.339 48 382.633V20.2708Z" fill="#A7A6AB"/>
<path d="M49.4736 20.9908C49.4736 10.8634 57.6835 2.65356 67.8109 2.65356H317.27C327.397 2.65356 335.607 10.8634 335.607 20.9908V382.023C335.607 392.15 327.397 400.36 317.27 400.36H67.8109C57.6835 400.36 49.4736 392.15 49.4736 382.023V20.9908Z" fill="black"/>
<path d="M64.156 22.4087C64.156 19.3704 66.619 16.9075 69.6572 16.9075H315.923C318.962 16.9075 321.424 19.3704 321.424 22.4087V380.623C321.424 383.662 318.962 386.125 315.923 386.125H69.6572C66.619 386.125 64.156 383.662 64.156 380.623V22.4087Z" fill="#1E1E1E"/>
<rect x="64.8608" y="17.5745" width="255.859" height="367.883" rx="19" fill="#F2F2F2"/>
<circle cx="192.541" cy="10.1697" r="2.8906" fill="#131715"/>
<circle cx="192.541" cy="10.1697" r="2.72022" fill="#101211"/>
<circle cx="192.541" cy="10.1694" r="1.63621" fill="#14171D"/>
<circle cx="192.541" cy="10.1695" r="0.95446" fill="#172034"/>
<circle cx="192.541" cy="10.1697" r="0.186812" fill="#4A4F76"/>
<rect x="71.7048" y="68.7622" width="107.685" height="24.9375" rx="12.4688" fill="#D9D9D9"/>
<rect x="182.79" y="25.6882" width="20.4034" height="19.2699" rx="9.63496" fill="#D9D9D9"/>
<rect x="203.194" y="102.768" width="107.685" height="26.0711" rx="13.0355" fill="#D9D9D9"/>
<rect x="71.7048" y="137.907" width="139.423" height="24.9375" rx="12.4688" fill="#D9D9D9"/>
<rect x="71.7048" y="284.132" width="111.085" height="24.9375" rx="12.4688" fill="#D9D9D9"/>
<rect x="203.194" y="317.004" width="107.685" height="24.9375" rx="12.4688" fill="#D9D9D9"/>
<path d="M64.9038 349.876H320.74V366.149C320.74 377.195 311.786 386.149 300.74 386.149H84.9038C73.8581 386.149 64.9038 377.195 64.9038 366.149V349.876Z" fill="#D9D9D9"/>
<circle cx="301.81" cy="368.013" r="9.0682" fill="#828282"/>
<rect x="203.194" y="171.913" width="107.685" height="103.151" rx="20" fill="#D9D9D9"/>
<path fill-rule="evenodd" clip-rule="evenodd" d="M232.666 210.21C232.666 208.471 233.322 206.802 234.492 205.572C235.661 204.343 237.246 203.652 238.9 203.652H276.306C277.125 203.652 277.936 203.821 278.692 204.151C279.448 204.48 280.136 204.963 280.715 205.572C281.294 206.181 281.753 206.904 282.066 207.7C282.379 208.496 282.541 209.349 282.541 210.21V237.9C282.541 238.761 282.379 239.614 282.066 240.41C281.753 241.206 281.294 241.929 280.715 242.538C280.136 243.147 279.448 243.63 278.692 243.959C277.936 244.289 277.125 244.458 276.306 244.458H238.9C237.246 244.458 235.661 243.768 234.492 242.538C233.322 241.308 232.666 239.64 232.666 237.9V210.21ZM236.822 227.145V237.9C236.822 239.107 237.753 240.086 238.9 240.086H276.306C276.857 240.086 277.386 239.856 277.776 239.446C278.165 239.036 278.384 238.48 278.384 237.9V230.059L272.233 223.592C271.843 223.182 271.315 222.952 270.765 222.952C270.214 222.952 269.686 223.182 269.296 223.592L264.004 229.156L265.306 230.526C265.51 230.726 265.674 230.967 265.788 231.235C265.901 231.504 265.962 231.793 265.967 232.087C265.972 232.38 265.921 232.672 265.816 232.944C265.712 233.216 265.556 233.463 265.359 233.671C265.161 233.879 264.926 234.042 264.668 234.152C264.409 234.262 264.132 234.316 263.853 234.311C263.574 234.306 263.298 234.242 263.043 234.122C262.789 234.003 262.559 233.83 262.369 233.616L247.988 218.491C247.599 218.081 247.07 217.851 246.52 217.851C245.969 217.851 245.441 218.081 245.051 218.491L236.822 227.148V227.145ZM263.145 215.311C263.145 216.084 262.853 216.825 262.333 217.372C261.814 217.918 261.109 218.225 260.374 218.225C259.639 218.225 258.934 217.918 258.415 217.372C257.895 216.825 257.603 216.084 257.603 215.311C257.603 214.538 257.895 213.796 258.415 213.25C258.934 212.703 259.639 212.396 260.374 212.396C261.109 212.396 261.814 212.703 262.333 213.25C262.853 213.796 263.145 214.538 263.145 215.311Z" fill="#646464"/>
<line x1="64.9038" y1="52.3928" x2="321.08" y2="52.3928" stroke="#D9D9D9"/>
<rect x="86.4407" y="358.945" width="189.299" height="18.1364" rx="9.0682" fill="#828282"/>
<path d="M0 166.912C0 166.579 0.268182 166.31 0.599001 166.31H3.41492C3.74574 166.31 4.01393 166.579 4.01393 166.912V176.788C4.01393 177.121 3.74574 177.39 3.41492 177.39H0.599001C0.268182 177.39 0 177.121 0 176.788V166.912Z" fill="#55585D"/>
<path d="M0 187.056C0 186.724 0.268182 186.455 0.599001 186.455H3.41492C3.74574 186.455 4.01393 186.724 4.01393 187.056V207.005C4.01393 207.337 3.74574 207.606 3.41492 207.606H0.599001C0.268182 207.606 0 207.337 0 207.005V187.056Z" fill="#55585D"/>
<path d="M0 214.251C0 213.919 0.268182 213.65 0.599001 213.65H3.41492C3.74574 213.65 4.01393 213.919 4.01393 214.251V234.2C4.01393 234.532 3.74574 234.801 3.41492 234.801H0.599001C0.268182 234.801 0 234.532 0 234.2V214.251Z" fill="#55585D"/>
<path d="M132.459 195.114C132.459 194.782 132.728 194.513 133.058 194.513H135.874C136.205 194.513 136.473 194.782 136.473 195.114V226.142C136.473 226.474 136.205 226.744 135.874 226.744H133.058C132.728 226.744 132.459 226.474 132.459 226.142V195.114Z" fill="#55585D"/>
<path d="M1.00317 134.423C1.00317 128.114 6.09863 123 12.3842 123H124.089C130.374 123 135.47 128.114 135.47 134.423V390.577C135.47 396.886 130.374 402 124.089 402H12.3842C6.09864 402 1.00317 396.886 1.00317 390.577V134.423Z" fill="#36393E"/>
<path d="M7.02417 136.765C7.02417 132.5 10.4686 129.043 14.7175 129.043H121.755C126.004 129.043 129.449 132.5 129.449 136.765V388.234C129.449 392.499 126.004 395.956 121.755 395.956H14.7175C10.4686 395.956 7.02417 392.499 7.02417 388.234V136.765Z" fill="white"/>
<rect x="7.02417" y="129.043" width="122.425" height="266.913" rx="15" fill="#F2F2F2"/>
<path fill-rule="evenodd" clip-rule="evenodd" d="M2.00708 134.829C2.00708 128.852 6.83436 124.007 12.7891 124.007H123.685C129.639 124.007 134.467 128.852 134.467 134.829V390.17C134.467 396.147 129.639 400.993 123.685 400.993H12.7891C6.83437 400.993 2.00708 396.147 2.00708 390.17V134.829ZM7.02454 137.46C7.02454 132.812 10.7791 129.043 15.4106 129.043H35.1221V134.907C35.1221 137.231 36.9994 139.115 39.3151 139.115H97.1589C99.4746 139.115 101.352 137.231 101.352 134.907V129.043H121.063C125.695 129.043 129.449 132.812 129.449 137.46V387.539C129.449 392.188 125.695 395.956 121.063 395.956H15.4106C10.7791 395.956 7.02454 392.188 7.02454 387.539V137.46Z" fill="#3E3E3E"/>
<path d="M58.2014 132.065C58.2014 131.509 58.6507 131.058 59.2049 131.058H77.2676C77.8218 131.058 78.2711 131.509 78.2711 132.065C78.2711 132.622 77.8218 133.073 77.2676 133.073H59.2049C58.6507 133.073 58.2014 132.622 58.2014 132.065Z" fill="#5E5E5E"/>
<path d="M87.3027 132.065C87.3027 133.178 86.4042 134.079 85.2958 134.079C84.1874 134.079 83.2888 133.178 83.2888 132.065C83.2888 130.952 84.1874 130.051 85.2958 130.051C86.4042 130.051 87.3027 130.952 87.3027 132.065Z" fill="black"/>
<rect x="12.7231" y="161.169" width="110.873" height="82.7003" rx="20" fill="#D9D9D9"/>
<rect x="12.7231" y="251.14" width="110.873" height="16.3583" rx="8.17915" fill="#D9D9D9"/>
<rect x="12.7231" y="279.313" width="51.8013" height="16.3583" rx="8.17915" fill="#2F80ED"/>
<rect x="12.7231" y="305.668" width="110.873" height="82.7003" rx="20" fill="#D9D9D9"/>
<circle cx="117.235" cy="151.173" r="6.36156" fill="#D9D9D9"/>
</svg>
