<svg viewBox="0 0 576 424" fill="none" xmlns="http://www.w3.org/2000/svg">
<rect width="576" height="424" rx="20" fill="var(--my-gray-100)"/>
<rect x="0.5" y="0.5" width="575" height="423" rx="19.5" stroke="black" stroke-opacity="0.15"/>
<path d="M509.333 68H510.477C510.898 68 511.265 68.3049 511.374 68.7422L511.69 70.0196M513.665 78C513.009 78 512.379 78.281 511.915 78.781C511.451 79.2811 511.19 79.9594 511.19 80.6667H524.185M513.665 78H522.921C523.846 75.9556 524.654 73.8364 525.333 71.6551C520.878 70.4312 516.286 69.8808 511.69 70.0196M513.665 78L511.69 70.0196M512.428 83.3333C512.428 83.5101 512.362 83.6797 512.246 83.8047C512.13 83.9298 511.973 84 511.809 84C511.645 84 511.487 83.9298 511.371 83.8047C511.255 83.6797 511.19 83.5101 511.19 83.3333C511.19 83.1565 511.255 82.987 511.371 82.8619C511.487 82.7369 511.645 82.6667 511.809 82.6667C511.973 82.6667 512.13 82.7369 512.246 82.8619C512.362 82.987 512.428 83.1565 512.428 83.3333V83.3333ZM522.947 83.3333C522.947 83.5101 522.882 83.6797 522.766 83.8047C522.65 83.9298 522.493 84 522.329 84C522.164 84 522.007 83.9298 521.891 83.8047C521.775 83.6797 521.71 83.5101 521.71 83.3333C521.71 83.1565 521.775 82.987 521.891 82.8619C522.007 82.7369 522.164 82.6667 522.329 82.6667C522.493 82.6667 522.65 82.7369 522.766 82.8619C522.882 82.987 522.947 83.1565 522.947 83.3333V83.3333Z" stroke="#509AF0" stroke-width="1.5" stroke-linecap="round" stroke-linejoin="round"/>
<line y1="40.8334" x2="576" y2="40.8334" stroke="black" stroke-opacity="0.15"/>
<circle cx="21.8035" cy="20.875" r="5.10282" fill="#D53E3E"/>
<circle cx="44.9973" cy="20.875" r="5.10282" fill="#FAE94F"/>
<circle cx="66.3367" cy="20.875" r="5.10282" fill="#5FE16C"/>
<rect x="26.6665" y="114.667" width="236" height="270.667" rx="10" fill="var(--my-gray-200)" />
<rect x="312" y="154.667" width="236" height="165.333" rx="10" fill="var(--my-gray-200)" />
<rect x="312" y="340" width="104" height="45.3333" rx="10" fill="var(--my-gray-200)"/>
<rect x="444" y="340" width="104" height="45.3333" rx="10" fill="var(--my-gray-200)" />
<rect x="26.6665" y="68" width="45.3333" height="17.3333" rx="8.66667" fill="var(--my-gray-200)" />
<rect x="93.3335" y="68" width="45.3333" height="17.3333" rx="8.66667" fill="var(--my-gray-200)" />
<rect x="160" y="68" width="45.3333" height="17.3333" rx="8.66667" fill="var(--my-gray-200)" />
<rect x="496" y="54.6667" width="42.6667" height="42.6667" rx="21.3333" fill="var(--my-gray-200)" />
<g filter="url(#filter0_b_585_458)">
<rect x="312" y="114.667" width="28" height="28" rx="10" fill="var(--accent-colour)"/>
</g>
<path d="M324.922 134.424V123.515H325.62V134.424H324.922ZM326.937 127.005C326.897 126.633 326.73 126.343 326.434 126.136C326.142 125.928 325.761 125.825 325.292 125.825C324.963 125.825 324.68 125.874 324.444 125.974C324.208 126.073 324.028 126.208 323.903 126.379C323.778 126.549 323.714 126.744 323.711 126.963C323.711 127.144 323.753 127.302 323.835 127.436C323.92 127.569 324.035 127.683 324.18 127.776C324.325 127.867 324.485 127.944 324.662 128.007C324.838 128.069 325.015 128.122 325.194 128.164L326.012 128.369C326.342 128.445 326.659 128.549 326.963 128.68C327.27 128.811 327.544 128.975 327.785 129.174C328.03 129.373 328.223 129.613 328.365 129.894C328.507 130.176 328.578 130.505 328.578 130.883C328.578 131.394 328.447 131.845 328.186 132.234C327.924 132.62 327.547 132.923 327.052 133.141C326.561 133.357 325.966 133.465 325.267 133.465C324.588 133.465 323.998 133.36 323.498 133.15C323.001 132.94 322.612 132.633 322.331 132.23C322.052 131.826 321.902 131.335 321.879 130.755H323.434C323.457 131.059 323.551 131.312 323.716 131.514C323.88 131.715 324.095 131.866 324.359 131.965C324.626 132.065 324.924 132.115 325.254 132.115C325.598 132.115 325.899 132.063 326.157 131.961C326.419 131.856 326.623 131.711 326.771 131.526C326.919 131.339 326.994 131.12 326.997 130.87C326.994 130.643 326.927 130.455 326.797 130.308C326.666 130.157 326.483 130.032 326.247 129.933C326.014 129.83 325.741 129.74 325.429 129.66L324.436 129.404C323.717 129.22 323.149 128.94 322.731 128.565C322.316 128.187 322.109 127.686 322.109 127.061C322.109 126.546 322.248 126.096 322.527 125.71C322.808 125.323 323.19 125.024 323.673 124.811C324.156 124.595 324.703 124.487 325.314 124.487C325.933 124.487 326.476 124.595 326.941 124.811C327.41 125.024 327.778 125.32 328.045 125.701C328.312 126.079 328.45 126.514 328.458 127.005H326.937Z" fill="white"/>
<path d="M198.745 199.783C188.654 196.474 162.533 187.915 162.533 188.001C162.533 192.562 160.721 196.937 157.496 200.163C154.27 203.388 149.895 205.201 145.333 205.201C140.772 205.201 136.397 203.388 133.171 200.163C129.945 196.937 128.133 192.562 128.133 188.001C128.133 187.915 102.012 196.474 91.9159 199.783C90.772 200.158 89.7766 200.886 89.0729 201.862C88.3692 202.839 87.9936 204.014 88.0001 205.218V226.523C88.0003 227.394 88.199 228.253 88.5809 229.036C88.9628 229.818 89.5181 230.504 90.2044 231.04C90.8908 231.576 91.6902 231.948 92.5421 232.129C93.394 232.31 94.2759 232.295 95.1209 232.084L110.933 228.134V296.933C110.933 298.454 111.537 299.912 112.613 300.987C113.688 302.063 115.146 302.667 116.667 302.667H174C175.521 302.667 176.979 302.063 178.054 300.987C179.129 299.912 179.733 298.454 179.733 296.933V228.134L195.546 232.084C196.391 232.295 197.273 232.31 198.125 232.129C198.976 231.948 199.776 231.576 200.462 231.04C201.149 230.504 201.704 229.818 202.086 229.036C202.468 228.253 202.666 227.394 202.667 226.523V205.218C202.673 204.013 202.296 202.838 201.591 201.861C200.887 200.884 199.89 200.157 198.745 199.783Z" fill="var(--accent-colour)"/>
<defs>
<filter id="filter0_b_585_458" x="112" y="-85.3333" width="428" height="428" filterUnits="userSpaceOnUse" color-interpolation-filters="sRGB">
<feFlood flood-opacity="0" result="BackgroundImageFix"/>
<feGaussianBlur in="BackgroundImageFix" stdDeviation="100"/>
<feComposite in2="SourceAlpha" operator="in" result="effect1_backgroundBlur_585_458"/>
<feBlend mode="normal" in="SourceGraphic" in2="effect1_backgroundBlur_585_458" result="shape"/>
</filter>
</defs>
</svg>
