<svg  viewBox="0 0 618 466" fill="none" xmlns="http://www.w3.org/2000/svg">
<g filter="url(#filter0_d_579_255)">
<rect x="21" y="21" width="576" height="424" rx="20" fill="white"/>
</g>
<path d="M530.333 89H531.477C531.898 89 532.265 89.3049 532.374 89.7422L532.69 91.0196M534.665 99C534.009 99 533.379 99.281 532.915 99.781C532.451 100.281 532.19 100.959 532.19 101.667H545.185M534.665 99H543.921C544.846 96.9556 545.654 94.8364 546.333 92.6551C541.878 91.4312 537.286 90.8808 532.69 91.0196M534.665 99L532.69 91.0196M533.428 104.333C533.428 104.51 533.362 104.68 533.246 104.805C533.13 104.93 532.973 105 532.809 105C532.645 105 532.487 104.93 532.371 104.805C532.255 104.68 532.19 104.51 532.19 104.333C532.19 104.157 532.255 103.987 532.371 103.862C532.487 103.737 532.645 103.667 532.809 103.667C532.973 103.667 533.13 103.737 533.246 103.862C533.362 103.987 533.428 104.157 533.428 104.333V104.333ZM543.947 104.333C543.947 104.51 543.882 104.68 543.766 104.805C543.65 104.93 543.493 105 543.329 105C543.164 105 543.007 104.93 542.891 104.805C542.775 104.68 542.71 104.51 542.71 104.333C542.71 104.157 542.775 103.987 542.891 103.862C543.007 103.737 543.164 103.667 543.329 103.667C543.493 103.667 543.65 103.737 543.766 103.862C543.882 103.987 543.947 104.157 543.947 104.333V104.333Z" stroke="#509AF0" stroke-width="1.5" stroke-linecap="round" stroke-linejoin="round"/>
<line x1="21" y1="61.8333" x2="597" y2="61.8333" stroke="black" stroke-opacity="0.15"/>
<circle cx="42.8035" cy="41.875" r="5.10282" fill="#D53E3E"/>
<circle cx="65.9973" cy="41.875" r="5.10282" fill="#FAE94F"/>
<circle cx="87.3367" cy="41.875" r="5.10282" fill="#5FE16C"/>
<rect x="47.6665" y="135.667" width="236" height="270.667" rx="10" fill="black" fill-opacity="0.09"/>
<rect x="333" y="175.667" width="236" height="165.333" rx="10" fill="black" fill-opacity="0.09"/>
<rect x="333" y="361" width="104" height="45.3333" rx="10" fill="black"/>
<rect x="465" y="361" width="104" height="45.3333" rx="10" fill="black" fill-opacity="0.09"/>
<rect x="47.6665" y="89" width="45.3333" height="17.3333" rx="8.66667" fill="black" fill-opacity="0.09"/>
<rect x="114.333" y="89" width="45.3333" height="17.3333" rx="8.66667" fill="black" fill-opacity="0.09"/>
<rect x="181" y="89" width="45.3333" height="17.3333" rx="8.66667" fill="black" fill-opacity="0.09"/>
<rect x="517" y="75.6667" width="42.6667" height="42.6667" rx="21.3333" fill="black" fill-opacity="0.09"/>
<g filter="url(#filter1_b_579_255)">
<rect x="333" y="135.667" width="28" height="28" rx="10" fill="#509AF0"/>
</g>
<path d="M345.922 155.424V144.515H346.62V155.424H345.922ZM347.937 148.005C347.897 147.633 347.73 147.343 347.434 147.136C347.142 146.928 346.761 146.825 346.292 146.825C345.963 146.825 345.68 146.874 345.444 146.974C345.208 147.073 345.028 147.208 344.903 147.379C344.778 147.549 344.714 147.744 344.711 147.963C344.711 148.144 344.753 148.302 344.835 148.436C344.92 148.569 345.035 148.683 345.18 148.776C345.325 148.867 345.485 148.944 345.662 149.007C345.838 149.069 346.015 149.122 346.194 149.164L347.012 149.369C347.342 149.445 347.659 149.549 347.963 149.68C348.27 149.811 348.544 149.975 348.785 150.174C349.03 150.373 349.223 150.613 349.365 150.894C349.507 151.176 349.578 151.505 349.578 151.883C349.578 152.394 349.447 152.845 349.186 153.234C348.924 153.62 348.547 153.923 348.052 154.141C347.561 154.357 346.966 154.465 346.267 154.465C345.588 154.465 344.998 154.36 344.498 154.15C344.001 153.94 343.612 153.633 343.331 153.23C343.052 152.826 342.902 152.335 342.879 151.755H344.434C344.457 152.059 344.551 152.312 344.716 152.514C344.88 152.715 345.095 152.866 345.359 152.965C345.626 153.065 345.924 153.115 346.254 153.115C346.598 153.115 346.899 153.063 347.157 152.961C347.419 152.856 347.623 152.711 347.771 152.526C347.919 152.339 347.994 152.12 347.997 151.87C347.994 151.643 347.927 151.455 347.797 151.308C347.666 151.157 347.483 151.032 347.247 150.933C347.014 150.83 346.741 150.74 346.429 150.66L345.436 150.404C344.717 150.22 344.149 149.94 343.731 149.565C343.316 149.187 343.109 148.686 343.109 148.061C343.109 147.546 343.248 147.096 343.527 146.71C343.808 146.323 344.19 146.024 344.673 145.811C345.156 145.595 345.703 145.487 346.314 145.487C346.933 145.487 347.476 145.595 347.941 145.811C348.41 146.024 348.778 146.32 349.045 146.701C349.312 147.079 349.45 147.514 349.458 148.005H347.937Z" fill="white"/>
<path d="M219.745 220.783C209.654 217.474 183.533 208.915 183.533 209.001C183.533 213.562 181.721 217.937 178.496 221.163C175.27 224.388 170.895 226.201 166.333 226.201C161.772 226.201 157.397 224.388 154.171 221.163C150.945 217.937 149.133 213.562 149.133 209.001C149.133 208.915 123.012 217.474 112.916 220.783C111.772 221.158 110.777 221.886 110.073 222.862C109.369 223.839 108.994 225.014 109 226.218V247.523C109 248.394 109.199 249.253 109.581 250.036C109.963 250.818 110.518 251.504 111.204 252.04C111.891 252.576 112.69 252.948 113.542 253.129C114.394 253.31 115.276 253.295 116.121 253.084L131.933 249.134V317.933C131.933 319.454 132.537 320.912 133.613 321.987C134.688 323.063 136.146 323.667 137.667 323.667H195C196.521 323.667 197.979 323.063 199.054 321.987C200.129 320.912 200.733 319.454 200.733 317.933V249.134L216.546 253.084C217.391 253.295 218.273 253.31 219.125 253.129C219.976 252.948 220.776 252.576 221.462 252.04C222.149 251.504 222.704 250.818 223.086 250.036C223.468 249.253 223.666 248.394 223.667 247.523V226.218C223.673 225.013 223.296 223.838 222.591 222.861C221.887 221.884 220.89 221.157 219.745 220.783V220.783Z" fill="#509AF0"/>
<defs>
<filter id="filter0_d_579_255" x="0" y="0" width="618" height="466" filterUnits="userSpaceOnUse" color-interpolation-filters="sRGB">
<feFlood flood-opacity="0" result="BackgroundImageFix"/>
<feColorMatrix in="SourceAlpha" type="matrix" values="0 0 0 0 0 0 0 0 0 0 0 0 0 0 0 0 0 0 127 0" result="hardAlpha"/>
<feOffset/>
<feGaussianBlur stdDeviation="10.5"/>
<feComposite in2="hardAlpha" operator="out"/>
<feColorMatrix type="matrix" values="0 0 0 0 0 0 0 0 0 0 0 0 0 0 0 0 0 0 0.25 0"/>
<feBlend mode="normal" in2="BackgroundImageFix" result="effect1_dropShadow_579_255"/>
<feBlend mode="normal" in="SourceGraphic" in2="effect1_dropShadow_579_255" result="shape"/>
</filter>
<filter id="filter1_b_579_255" x="133" y="-64.3333" width="428" height="428" filterUnits="userSpaceOnUse" color-interpolation-filters="sRGB">
<feFlood flood-opacity="0" result="BackgroundImageFix"/>
<feGaussianBlur in="BackgroundImageFix" stdDeviation="100"/>
<feComposite in2="SourceAlpha" operator="in" result="effect1_backgroundBlur_579_255"/>
<feBlend mode="normal" in="SourceGraphic" in2="effect1_backgroundBlur_579_255" result="shape"/>
</filter>
</defs>
</svg>
