<svg viewBox="0 0 576 424" fill="none" xmlns="http://www.w3.org/2000/svg">
<rect width="576" height="424" rx="20" fill="var(--my-gray-100)"/>
<rect x="0.5" y="0.5" width="575" height="423" rx="19.5" stroke="black" stroke-opacity="0.15"/>
<line y1="40.5" x2="576" y2="40.5" stroke="black" stroke-opacity="0.15"/>
<line x1="413.5" y1="41" x2="413.5" y2="424" stroke="black" stroke-opacity="0.15"/>
<circle cx="22" cy="21" r="5" fill="#D53E3E"/>
<circle cx="45" cy="21" r="5" fill="#FAE94F"/>
<rect x="21" y="83" width="106" height="85" rx="10" fill="var(--my-gray-200)"/>
<rect x="296" y="257" width="105" height="86" rx="10" fill="var(--my-gray-200)"/>
<rect x="159" y="257" width="105" height="86" rx="10" fill="var(--my-gray-200)"/>
<rect x="27" y="257" width="105" height="86" rx="10" fill="var(--my-gray-200)"/>
<rect x="296" y="83" width="105" height="85" rx="10" fill="var(--my-gray-200)"/>
<rect x="159" y="83" width="105" height="85" rx="10" fill="var(--my-gray-200)"/>
<circle cx="66" cy="21" r="5" fill="#5FE16C"/>
<rect x="437" y="83" width="82" height="17" rx="8.5" fill="var(--my-gray-200)"/>
<rect x="25" y="185" width="82" height="18" rx="9" fill="var(--my-gray-200)"/>
<rect x="437" y="121" width="46" height="18" rx="9" fill="var(--my-gray-200)"/>
<rect x="25" y="212" width="46" height="17" rx="8.5" fill="var(--my-icon-gray)"/>
<rect x="159" y="185" width="81" height="18" rx="9" fill="var(--my-gray-200)"/>
<rect x="159" y="212" width="45" height="17" rx="8.5" fill="var(--my-icon-gray)"/>
<rect x="296" y="185" width="81" height="18" rx="9" fill="var(--my-gray-200)"/>
<rect x="296" y="212" width="45" height="17" rx="8.5" fill="var(--my-icon-gray)"/>
<rect x="25" y="359" width="82" height="17" rx="8.5" fill="var(--my-gray-200)"/>
<rect x="25" y="385" width="46" height="18" rx="9" fill="var(--my-icon-gray)"/>
<rect x="159" y="359" width="81" height="17" rx="8.5" fill="var(--my-gray-200)"/>
<rect x="159" y="385" width="45" height="18" rx="9" fill="var(--my-icon-gray)"/>
<rect x="296" y="359" width="81" height="17" rx="8.5" fill="var(--my-gray-200)"/>
<rect x="296" y="385" width="45" height="18" rx="9" fill="var(--my-icon-gray)"/>
<rect x="437" y="160" width="59" height="17" rx="8.5" fill="var(--my-gray-200)"/>
<rect x="437" y="203" width="82" height="17" rx="8.5" fill="var(--my-gray-200)"/>
<rect x="437" y="241" width="46" height="18" rx="9" fill="var(--my-gray-200)"/>
<rect x="437" y="280" width="59" height="17" rx="8.5" fill="var(--my-gray-200)"/>
</svg>
