<svg xmlns="http://www.w3.org/2000/svg" viewBox="0 0 30 30">
  <path id="Icon_material-cancel" data-name="Icon material-cancel" d="M18,3A15,15,0,1,0,33,18,14.986,14.986,0,0,0,18,3Zm7.5,20.385c.818,1.875-.24,2.933-2.115,2.115S18,20.115,18,20.115s-3.51,4.567-5.385,5.385-2.932-.24-2.115-2.115S15.885,18,15.885,18s-4.568-3.51-5.385-5.385.24-2.932,2.115-2.115S18,15.885,18,15.885s3.51-4.568,5.385-5.385,2.933.24,2.115,2.115S20.115,18,20.115,18,24.682,21.51,25.5,23.385Z" transform="translate(-3 -3)"/>
</svg>
