<svg xmlns="http://www.w3.org/2000/svg" viewBox="0 0 43.606 56.184"><path d="M24.969,0h9.2V42.524a60.5,60.5,0,0,1-11.939,1.253c-11.216,0-17.062-5.071-17.062-14.795,0-9.367,6.2-15.451,15.809-15.451a14.626,14.626,0,0,1,4,.477Zm0,21.405a9.13,9.13,0,0,0-3.1-.477c-4.653,0-7.339,2.864-7.339,7.875,0,4.892,2.565,7.576,7.286,7.576a21.572,21.572,0,0,0,3.16-.237Zm23.8-7.219v21.3c0,7.339-.537,10.858-2.147,13.9-1.492,2.923-3.461,4.772-7.516,6.8l-8.531-4.056c4.056-1.909,6.025-3.578,7.286-6.145,1.312-2.634,1.729-5.668,1.729-13.66V14.187ZM39.584.049h9.187V9.475H39.584Z" transform="translate(-5.165)" fill="#092e20"/></svg>