<svg xmlns="http://www.w3.org/2000/svg" viewBox="0 0 12.58 10.286">
  <path id="Path_889" data-name="Path 889" d="M1119.57,197.857h8.86a1.843,1.843,0,0,1,1.27.508,1.8,1.8,0,0,1,.58,1.244l.01.106v6.571a1.889,1.889,0,0,1-.51,1.276,1.869,1.869,0,0,1-1.25.578l-.1,0h-8.86a1.842,1.842,0,0,1-1.27-.507,1.806,1.806,0,0,1-.58-1.245l-.01-.105v-6.571a1.887,1.887,0,0,1,.51-1.276,1.865,1.865,0,0,1,1.25-.579l.1,0h0Zm9.86,3.375-5.23,2.72a.456.456,0,0,1-.17.047.42.42,0,0,1-.16-.02l-.07-.027-5.23-2.72v5.054a1,1,0,0,0,.27.677.993.993,0,0,0,.65.32l.08,0h8.86a1.014,1.014,0,0,0,.68-.265,1.069,1.069,0,0,0,.32-.653v-5.136Zm-1-2.517h-8.86a1.018,1.018,0,0,0-.68.264,1.069,1.069,0,0,0-.32.653v.633l5.43,2.823,5.43-2.823v-.55a1.008,1.008,0,0,0-.27-.678.992.992,0,0,0-.65-.319Z" transform="translate(-1117.71 -197.857)" />
</svg>
