<svg xmlns="http://www.w3.org/2000/svg" viewBox="0 0 289.637 299.412">
  <g id="Group_94" data-name="Group 94" transform="translate(-522.314 -148.018)">
    <g id="Group_91" data-name="Group 91" transform="translate(714.776 265.952)">
      <ellipse id="Ellipse_12" data-name="Ellipse 12" cx="12.5" cy="14" rx="12.5" ry="14" transform="translate(0.225 0.048)" fill="#31a39f"/>
      <ellipse id="Ellipse_13" data-name="Ellipse 13" cx="7" cy="8" rx="7" ry="8" transform="translate(6.225 6.048)" fill="black"/>
    </g>
    <g id="Group_92" data-name="Group 92" transform="translate(598.383 267.569)">
      <ellipse id="Ellipse_12-2" data-name="Ellipse 12" cx="13" cy="13.5" rx="13" ry="13.5" transform="translate(-0.383 0.431)" fill="#31a39f"/>
      <ellipse id="Ellipse_13-2" data-name="Ellipse 13" cx="7" cy="8.5" rx="7" ry="8.5" transform="translate(5.617 5.431)" fill="black"/>
    </g>
    <g id="Group_93" data-name="Group 93" transform="translate(523.357 148.582)">
      <path id="Path_70" data-name="Path 70" d="M21253.988,2805.193l27.254,42.34,18.766-18.62Z" transform="translate(-21221.328 -2799.692)" fill="#454545" stroke="#454545" stroke-width="1"/>
      <path id="Path_71" data-name="Path 71" d="M21356.508,2838.883l3.035,20.032-36.133,39.405-2.391-31.191,18.719-18.466Z" transform="translate(-21260.939 -2819.767)" fill="#747474" stroke="#707070" stroke-width="1"/>
      <path id="Path_72" data-name="Path 72" d="M21412.105,2847.615l44.766,7.31v-34.662l-47.639,7.3Z" transform="translate(-21313.502 -2808.672)" fill="#7e7e7e" stroke="#7e7e7e" stroke-width="1"/>
      <path id="Path_73" data-name="Path 73" d="M21574.793,2827.361l-2.479,20.073-45.238,7.113v-34.907Z" transform="translate(-21383.705 -2808.048)" fill="#7b7b7b" stroke="#7b7b7b" stroke-width="1"/>
      <path id="Path_75" data-name="Path 75" d="M21639.838,2859.767c.469.542,58.1,61.224,58.1,61.224l8.8-9.709-27.16-43.418-19.525-19.393-17.7-10.125Z" transform="translate(-21451.719 -2819.146)" fill="#2d2d2d" stroke="#303030" stroke-width="1"/>
      <path id="Path_76" data-name="Path 76" d="M21819.3,2915.247l-19.977,32.946-7.342,18.92-16.512-28.612Z" transform="translate(-21532.078 -2865.269)" fill="#171717" stroke="#1e1e1e" stroke-width="1"/>
      <path id="Path_77" data-name="Path 77" d="M21796.127,2828.184v34.5l-44.158,24.185-16.648-26.576,9.715-14.124Z" transform="translate(-21508.492 -2813.391)" fill="#1e1e1e" stroke="#1f1f1f" stroke-width="1"/>
      <path id="Path_78" data-name="Path 78" d="M21795.094,2791.582l14.623,14.812-50.039,17.674,18.238-27.436Z" transform="translate(-21522.316 -2791.582)" fill="#111" stroke="#0f0f0f" stroke-width="1"/>
      <path id="Path_79" data-name="Path 79" d="M21735.4,2804.407l-28.119,42.474-18.871-18.513Z" transform="translate(-21480.379 -2799.224)" fill="#535353" stroke="#555" stroke-width="1"/>
      <path id="Path_80" data-name="Path 80" d="M21725.039,2984.761l4.75,29.348,15.816-7.532Z" transform="translate(-21501.678 -2906.69)" fill="#7b7b7b" stroke="#7b7b7b" stroke-width="1"/>
      <path id="Path_81" data-name="Path 81" d="M21799.258,3069.757l-7.512-47.907-2.687-4.276-7.59,8.738Z" transform="translate(-21535.301 -2926.241)" fill="#929292" stroke="#929292" stroke-width="1"/>
      <path id="Path_82" data-name="Path 82" d="M21810.926,3034.682l10.367,53.059-6.437-11.449-7.338-47.648Z" transform="translate(-21550.822 -2932.837)" fill="#aaa" stroke="#a9a9a9" stroke-width="1"/>
      <path id="Path_83" data-name="Path 83" d="M21808.459,3159.716c-.451,1.26-16.424,46.1-16.424,46.1l-6.148-8.842,16.246-47.765Z" transform="translate(-21537.934 -3004.68)" fill="#939393" stroke="#929292" stroke-width="1"/>
      <path id="Path_84" data-name="Path 84" d="M21767.512,3039.509l-8.459,60.87,10.65,30.239,16.246-47.536-18.094-44.023-.344.45" transform="translate(-21521.945 -2939.043)" fill="#717171" stroke="#737373" stroke-width="1"/>
      <path id="Path_85" data-name="Path 85" d="M21753.621,3039.325l-15.088,18.545-1.557-11.324,16.076-7.687" transform="translate(-21508.791 -2938.924)" fill="#4f4f4f" stroke="#4f4f4f" stroke-width="1"/>
      <path id="Path_86" data-name="Path 86" d="M21675.48,3101.2l8.16-60.886-15.656,19.115-7.215,15.253-13.8,8.2-17.158-1.521-11.008,9.429,15.357,27.466Z" transform="translate(-21438.373 -2939.788)" fill="#3a3a3a" stroke="#3d3d3d" stroke-width="1"/>
      <path id="Path_87" data-name="Path 87" d="M21668.4,3086.795l-6.551,14.991-14.463,8.582-17.713-1.442-11.182,9.436,5.783-28.466,12.3-3.892Z" transform="translate(-21438.191 -2967.584)" fill="none" stroke="#000" stroke-width="1"/>
      <path id="Path_88" data-name="Path 88" d="M21661.328,3057.379l1.49,11.953-31.754-.627-12.656,4-8.7-5.255,18.377-10.075Z" transform="translate(-21433.148 -2950.256)" fill="#131313" stroke="#101010" stroke-linecap="round" stroke-linejoin="round" stroke-width="1"/>
      <path id="Path_89" data-name="Path 89" d="M21655.223,2985.954l4.445,28.57h-33.332l-18.465-24.6Z" transform="translate(-21431.861 -2907.4)" fill="#3d3d3d" stroke="#3d3d3d" stroke-width="1"/>
      <path id="Path_90" data-name="Path 90" d="M21607.871,2995.836l.383,34.726,18.113-10.15Z" transform="translate(-21431.861 -2913.289)" fill="#424242" stroke="#404040" stroke-width="1"/>
      <path id="Path_91" data-name="Path 91" d="M21527.111,2896.676l44.908-7.426,34.742,37.872v1.106l-47.316,3.929Z" transform="translate(-21383.74 -2849.778)" fill="#4d4d4d" stroke="#4d4d4d" stroke-width="1"/>
      <path id="Path_92" data-name="Path 92" d="M21558.891,2943.338l-32.369,28.446v-64.052Z" transform="translate(-21383.389 -2860.791)" fill="#5d5d5d" stroke="#5e5e5e" stroke-width="1"/>
      <path id="Path_93" data-name="Path 93" d="M21445.533,2943.028l32.43,28.547v-64.364Z" transform="translate(-21335.131 -2860.481)" fill="#3e3e3e" stroke="#3f3f3f" stroke-width="1"/>
      <path id="Path_94" data-name="Path 94" d="M21327.25,2928.338l47.34,3.479,33.068-35.857-44.289-7.393-36.119,39.3" transform="translate(-21264.652 -2849.371)" fill="#575757" stroke="#585858" stroke-width="1"/>
      <path id="Path_95" data-name="Path 95" d="M21368.223,2990.493l-19.25,24.446-32.727.394,4.4-28.67Z" transform="translate(-21258.096 -2907.822)" fill="#696969" stroke="#686868" stroke-width="1"/>
      <path id="Path_96" data-name="Path 96" d="M21416.811,3030.541l.6-34.458-19.324,24.592Z" transform="translate(-21306.857 -2913.436)" fill="#4b4b4b" stroke="#4b4b4b" stroke-width="1"/>
      <path id="Path_97" data-name="Path 97" d="M21477.477,3024.914c-.312-.021-32.758,5.79-32.758,5.79l.406-34.4Z" transform="translate(-21334.646 -2913.567)" fill="#535353" stroke="#535353" stroke-width="1"/>
      <path id="Path_98" data-name="Path 98" d="M21558.691,3030.482c-1.941-.612-32.639-5.795-32.639-5.795l32.639-28.7Z" transform="translate(-21382.682 -2913.376)" fill="#363636" stroke="#363636" stroke-width="1"/>
      <path id="Path_99" data-name="Path 99" d="M21595.441,3087.1l-5.809,28.385-19.135,9.065,15.229-43.082Z" transform="translate(-21409.594 -2964.312)" fill="#565656" stroke="#565656" stroke-width="1"/>
      <path id="Path_100" data-name="Path 100" d="M21605.6,3193.242c-2.379-.456-14.041-1.123-14.041-1.123l-20.557-17.1,19.176-9.016Z" transform="translate(-21409.895 -3014.687)" fill="#6a6a6a" stroke="#6a6a6a" stroke-width="1"/>
      <path id="Path_101" data-name="Path 101" d="M21698.566,3191.248l10.559,31.345-25.48,19.166-26.256-33.616Z" transform="translate(-21461.367 -3029.726)" fill="#292929" stroke="#292929" stroke-width="1"/>
      <path id="Path_102" data-name="Path 102" d="M21736.32,3268.5l6.137,8.791-34.268,28.652-5.486,10.094,7.959-28.236Z" transform="translate(-21488.369 -3075.755)" fill="#6d6d6d" stroke="#6d6d6d" stroke-width="1"/>
      <path id="Path_103" data-name="Path 103" d="M21683.164,3266.922l-26.3-33.952,6.3,32.933Z" transform="translate(-21461.053 -3054.587)" fill="#464646" stroke="#464646" stroke-width="1"/>
      <path id="Path_104" data-name="Path 104" d="M21692.691,3316.018l-7.926,28.389-3.387,7.256-8.857-36.884Z" transform="translate(-21470.801 -3103.333)" fill="#7f7f7f" stroke="#7f7f7f" stroke-width="1"/>
      <path id="Path_105" data-name="Path 105" d="M21621.652,3231.073l14.033,1.219,6.4,32.446,3.432,16.565-21.475-15.674Z" transform="translate(-21440.074 -3053.456)" fill="#686868" stroke="#686868" stroke-width="1"/>
      <path id="Path_106" data-name="Path 106" d="M21570.5,3189.065l12.146,38.028,10.514,13.412-2.076-34.591Z" transform="translate(-21409.594 -3028.426)" fill="#585858" stroke="#585858" stroke-width="1"/>
      <path id="Path_107" data-name="Path 107" d="M21593.729,3283.407s11.176,13.513,10.646,13.407-15.109-1.634-15.109-1.634Z" transform="translate(-21420.775 -3084.64)" fill="#5f5f5f" stroke="#5f5f5f" stroke-width="1"/>
      <path id="Path_108" data-name="Path 108" d="M21608.318,3317.2s21.92,15.5,21.439,15.567-34.211,1.168-34.211,1.168Z" transform="translate(-21424.518 -3104.775)" fill="#3a3a3a" stroke="#3a3a3a" stroke-width="1"/>
      <path id="Path_109" data-name="Path 109" d="M21581.484,3317.2s-12.211,16.6-12.428,16.58-17.545,5.583-17.545,5.583l2.594-10.4Z" transform="translate(-21398.279 -3104.54)" stroke="#000" stroke-width="1"/>
      <path id="Path_110" data-name="Path 110" d="M21570.641,3313.052l-12.178,13.4,27.246-11.8Z" transform="translate(-21402.422 -3102.304)" fill="#171717" stroke="#171717" stroke-width="1"/>
      <path id="Path_111" data-name="Path 111" d="M21550.691,3313.316l-12.3,13.52-12.924,2.47v-10.5Z" transform="translate(-21382.76 -3102.462)" fill="#1c1c1c" stroke="#1c1c1c" stroke-width="1"/>
      <path id="Path_112" data-name="Path 112" d="M21463.273,3313.543l24.873,5.483.213,10.355-12.57-2.069Z" transform="translate(-21345.703 -3102.597)" fill="#2b2b2b" stroke="#2b2b2b" stroke-width="1"/>
      <path id="Path_113" data-name="Path 113" d="M21424.5,3314.537l28.037,12.636-12.9-14.11Z" transform="translate(-21322.6 -3102.311)" fill="#282828" stroke="#282828" stroke-width="1"/>
      <path id="Path_114" data-name="Path 114" d="M21525.469,3349.762l-.125,25.967,10.254-18.186,2.422-10.372-.105.181Z" transform="translate(-21382.424 -3122.588)" fill="#131313" stroke="#131313" stroke-width="1"/>
      <path id="Path_115" data-name="Path 115" d="M21493.875,3348.552h0l2.551,9.617,10.105,18.863V3350.59Z" transform="translate(-21363.762 -3123.505)" fill="#252525" stroke="#252525" stroke-width="1"/>
      <path id="Path_116" data-name="Path 116" d="M21452.383,3329.74l2.6,10.094-17.268-5.756-13.809-17.185Z" transform="translate(-21322.463 -3104.772)" fill="#010101" stroke="#010101" stroke-width="1"/>
      <path id="Path_117" data-name="Path 117" d="M21525.656,3068.368l-.592,49.348h17.861s16-43.631,15.6-43.75S21525.656,3068.368,21525.656,3068.368Z" transform="translate(-21382.521 -2957.374)" fill="#3d3d3d" stroke="#3d3d3d" stroke-width="1"/>
      <path id="Path_118" data-name="Path 118" d="M21445.533,3074.058l32.607-6.275-.73,49.342h-16.945Z" transform="translate(-21335.131 -2956.689)" fill="#585858" stroke="#585858" stroke-width="1"/>
      <path id="Path_119" data-name="Path 119" d="M21421.992,3087.38c.309,1.192,5.141,28.271,5.141,28.271l19.18,9.867-14.926-43.02Z" transform="translate(-21321.104 -2964.926)" fill="#555" stroke="#555" stroke-width="1"/>
      <path id="Path_120" data-name="Path 120" d="M21394.813,3057.6c1.039.711,18.713,10,18.713,10s-8.789,5.114-9.244,4.981-11.686-3.2-11.686-3.2Z" transform="translate(-21303.588 -2950.093)" fill="#212121" stroke="#212121" stroke-width="1"/>
      <path id="Path_121" data-name="Path 121" d="M21314.488,3057.6l-1.191,12.7,32.2-.484,1.91-12.214Z" transform="translate(-21256.338 -2950.094)" fill="#1d1d1d" stroke="#1d1d1d" stroke-width="1"/>
      <path id="Path_122" data-name="Path 122" d="M21340.8,3087.45l3.215,19.227,7.59,4.433,15.988-1.665,11.246,9.564s-4.865-28.478-5.293-28.5-11.924-3.064-11.924-3.064Z" transform="translate(-21272.723 -2967.877)" fill="none" stroke="#141414" stroke-width="1"/>
      <path id="Path_123" data-name="Path 123" d="M21411.688,3165.54l-15.754,27.98,13.785-1.864Z" transform="translate(-21305.578 -3014.762)" fill="#6a6a6a" stroke="#6a6a6a" stroke-width="1"/>
      <path id="Path_124" data-name="Path 124" d="M21430.32,3191.574l20.207-16.93-18.289-9.363Z" transform="translate(-21326.066 -3014.254)" fill="#6c6c6c" stroke="#6c6c6c" stroke-width="1"/>
      <path id="Path_125" data-name="Path 125" d="M21448.078,3190.187l-12.543,38.458-9.959,12.662.088-.645,1.832-33.8Z" transform="translate(-21323.189 -3029.596)" fill="#646464" stroke="#646464" stroke-linejoin="round" stroke-width="1"/>
      <path id="Path_126" data-name="Path 126" d="M21381.84,3232.552l13.605-1.888-1.816,34.647-21.348,16.152Z" transform="translate(-21291.484 -3053.672)" fill="#737373" stroke="#737373" stroke-width="1"/>
      <path id="Path_127" data-name="Path 127" d="M21392.814,3317.246s13.479,16.753,13.213,16.717-34.168-.725-34.168-.725Z" transform="translate(-21291.232 -3104.803)" fill="#666" stroke="#666" stroke-width="1"/>
      <path id="Path_128" data-name="Path 128" d="M21405.658,3357.253l-21.121,35.076-12.918-36.163Z" transform="translate(-21291.09 -3127.994)" fill="#3b3b3b" stroke="#3b3b3b" stroke-width="1"/>
      <path id="Path_129" data-name="Path 129" d="M21425.094,3359.49l3.9,36.038-25.48-.7Z" transform="translate(-21310.092 -3130.331)" fill="#262626" stroke="#262626" stroke-width="1"/>
      <path id="Path_130" data-name="Path 130" d="M21484.777,3383.271l-9.926-18.291-17.588-5.878,4.045,35.9Z" transform="translate(-21342.121 -3129.744)" fill="#1f1f1f" stroke="#1f1f1f" stroke-width="1"/>
      <path id="Path_131" data-name="Path 131" d="M21554,3359.1l-4.535,35.713-22.746-11.845,10.2-18.222Z" transform="translate(-21383.51 -3129.744)" fill="#262626" stroke="#262626" stroke-width="1"/>
      <path id="Path_132" data-name="Path 132" d="M21609.318,3393.751c-.6-.933-21.256-34.624-21.256-34.624l-4.5,35.79Z" transform="translate(-21417.377 -3129.759)" fill="#1e1e1e" stroke="#1e1e1e" stroke-width="1"/>
      <path id="Path_133" data-name="Path 133" d="M21629.545,3355.36l-12.965,36.384-21.4-34.775Z" transform="translate(-21424.299 -3127.514)" fill="#282828" stroke="#282828" stroke-width="1"/>
      <path id="Path_134" data-name="Path 134" d="M21661.949,3355.36l4.789,21.188-17.9,15.347Z" transform="translate(-21456.371 -3127.514)" fill="#4f4f4f" stroke="#4f4f4f" stroke-width="1"/>
      <path id="Path_135" data-name="Path 135" d="M21660.531,3409.422c0,.288-22.211,39.7-22.211,39.7l4.063-24.676Z" transform="translate(-21450.182 -3160.079)" fill="#505050" stroke="#505050" stroke-width="1"/>
      <path id="Path_136" data-name="Path 136" d="M21625.922,3447.471c-.3.341-6.023,3.777-6.023,3.777h-5.891l-2.578,20.281h10.848Z" transform="translate(-21433.982 -3182.399)" fill="#2c2c2c" stroke="#2c2c2c" stroke-width="1"/>
      <path id="Path_137" data-name="Path 137" d="M21575.211,3456.994c.258.258,14.463,19.424,14.463,19.424l2.611-20.747Z" transform="translate(-21412.4 -3187.285)" fill="#262626" stroke="#262626" stroke-linecap="round" stroke-linejoin="round" stroke-width="1"/>
      <path id="Path_138" data-name="Path 138" d="M21560.742,3478.36l-33.492,8.29,19.248-27.714Z" transform="translate(-21383.822 -3189.23)" fill="#1a1a1a" stroke="#1a1a1a" stroke-width="1"/>
      <path id="Path_139" data-name="Path 139" d="M21526,3451.544l.16,30.576,19.672-27.641Z" transform="translate(-21383.076 -3184.826)" fill="#282828" stroke="#282828" stroke-width="1"/>
      <path id="Path_140" data-name="Path 140" d="M21475.648,3453.975c.586,1.319,20.27,27.221,20.27,27.221v-30.522Z" transform="translate(-21353.141 -3183.955)" fill="#262626" stroke="#262626" stroke-width="1"/>
      <path id="Path_141" data-name="Path 141" d="M21456.949,3460.465l-12.574,19.089,32.648,8.063-20.074-27.152" transform="translate(-21334.441 -3190.142)" fill="#252525" stroke="#252525" stroke-width="1"/>
      <path id="Path_142" data-name="Path 142" d="M21435.035,3458.935l3.383,19.635,13.525-19.635Z" transform="translate(-21328.877 -3189.23)" fill="#323232" stroke="#323232" stroke-linejoin="round" stroke-width="1"/>
      <path id="Path_143" data-name="Path 143" d="M21369.646,3417.951l21.025,39.024,12.5.671-3.668-22.481h-6.664l-7.738-4.7Z" transform="translate(-21294.053 -3168.39)" fill="#2a2a2a" stroke="#2a2a2a" stroke-width="1"/>
      <path id="Path_144" data-name="Path 144" d="M21359.406,3377.134c.631.551,17.754,14.883,17.754,14.883l-12.988-36.434Z" transform="translate(-21283.813 -3127.646)" fill="#656565" stroke="#656565" stroke-width="1"/>
      <path id="Path_145" data-name="Path 145" d="M21331.043,3316.448c.135.291,16.2,15.4,16.2,15.4l-4.746,22.039Z" transform="translate(-21266.912 -3104.328)" fill="#9b9b9b" stroke="#9b9b9b" stroke-width="1"/>
      <path id="Path_146" data-name="Path 146" d="M21356.941,3235.729l-25.6,32.781,16.244,15.251Z" transform="translate(-21267.088 -3056.231)" fill="#424242" stroke="#424242" stroke-width="1"/>
      <path id="Path_147" data-name="Path 147" d="M21279.17,3190.881l-10.674,30.971,25.184,19.571,25.818-32.632Z" transform="translate(-21229.643 -3029.508)" fill="#3e3e3e" stroke="#3e3e3e" stroke-width="1"/>
      <path id="Path_148" data-name="Path 148" d="M21259.473,3267.94l-6.119,8.54,34.67,29.292,4.912,9.5-8.232-27.628Z" transform="translate(-21220.619 -3075.424)" fill="#848484" stroke="#848484" stroke-width="1"/>
      <path id="Path_149" data-name="Path 149" d="M21480.889,3276.62v20.053l-25.818-5.7-4.523-11.691Z" transform="translate(-21338.119 -3080.596)" fill="#a4a4a4" stroke="#a4a4a4" stroke-width="1"/>
      <path id="Path_150" data-name="Path 150" d="M21526.723,3276.62l29.367,2.5s-4.039,12.271-4.359,12.134-25.008,5.425-25.008,5.425Z" transform="translate(-21383.51 -3080.596)" fill="#3d3d3d" stroke="#3d3d3d" stroke-width="1"/>
      <path id="Path_151" data-name="Path 151" d="M21525.344,3189.065h17.895s13.047,37.9,12.063,37.622-29.957-2.394-29.957-2.394Z" transform="translate(-21382.688 -3028.426)" fill="#3d3d3d" stroke="#3d3d3d" stroke-width="1"/>
      <path id="Path_152" data-name="Path 152" d="M21480.375,3188.5l-17.184-.382-13.125,38.375,30.309-2.613Z" transform="translate(-21337.832 -3027.883)" fill="#5a5a5a" stroke="#5a5a5a" stroke-width="1"/>
      <path id="Path_153" data-name="Path 153" d="M21454.469,3418.9s22.641,11.719,22.918,11.721,26.016-1.038,26.016-1.038v.694l-5.434,3.515-23.684,1.064-19.816-3.029-20.975,3.595-21.256-.912-7.43-4.284,25.348.394Z" transform="translate(-21311.461 -3165.377)" fill="#030303" stroke="#030303" stroke-width="1"/>
      <path id="Path_154" data-name="Path 154" d="M21435.455,3283.785l4.629,11.4-11.623,1.05-2.68.242Z" transform="translate(-21323.361 -3084.69)" fill="#6f6f6f" stroke="#6f6f6f" stroke-width="1"/>
      <path id="Path_155" data-name="Path 155" d="M21327.555,3080.029c.281.277,10.807,9.09,10.807,9.09l-15.814,28.281-40.4-18.2-8.512-61.5,16.2,20.05,7.188,15.236,6.414,3.707,7.848,4.976Z" transform="translate(-21232.705 -2938.237)" fill="#858585" stroke="#858585" stroke-width="1"/>
      <path id="Path_156" data-name="Path 156" d="M21314.734,3087.45l7.113,15.242,6.221,3.667-3.232-18.909Z" transform="translate(-21257.193 -2967.877)" fill="#494949" stroke="#494949" stroke-width="1"/>
      <path id="Path_157" data-name="Path 157" d="M21295.41,2987.777l-21.984,20.381,16.119,19.805,5.865-39.741" transform="translate(-21232.811 -2909.359)" fill="#7b7b7b" stroke="#7b7b7b" stroke-width="1"/>
      <path id="Path_158" data-name="Path 158" d="M21229.563,3149.668l26.152,16.438-10.66,30.96Z" transform="translate(-21206.443 -3004.951)" fill="#6f6f6f" stroke="#6f6f6f" stroke-width="1"/>
      <path id="Path_159" data-name="Path 159" d="M21247.586,3038.665l-17.527,44.427,25.979,16.946Z" transform="translate(-21206.738 -2938.808)" fill="#737373" stroke="#737373" stroke-width="1"/>
      <path id="Path_160" data-name="Path 160" d="M21214.516,3159.927l15.633,45.69,6.148-8.691-15.973-47.515Z" transform="translate(-21197.479 -3004.797)" fill="#a8a8a8" stroke="#a8a8a8" stroke-width="1"/>
      <path id="Path_161" data-name="Path 161" d="M21209.33,2792.4l29.6,23.617-12.092-18.816Z" transform="translate(-21194.389 -2792.07)" fill="#171717" stroke="#171717" stroke-width="1"/>
      <path id="Path_162" data-name="Path 162" d="M21173.2,2806.769c.7.212,50.248,18.779,50.248,18.779l-7.213-11.183-28.58-22.207Z" transform="translate(-21172.861 -2791.925)" fill="#1f1f1f" stroke="#1f1f1f" stroke-width="1"/>
      <path id="Path_163" data-name="Path 163" d="M21231.838,2861.462l-15.7,25.58-43.787-24.844.2-33.041,49.566,17.3Z" transform="translate(-21172.355 -2813.971)" fill="#2f2f2f" stroke="#2f2f2f" stroke-width="1"/>
      <path id="Path_164" data-name="Path 164" d="M21191.352,2946.4h17.307l6.006-9.406-43.375-24.406Z" transform="translate(-21170.947 -2863.753)" fill="#242424" stroke="#242424" stroke-width="1"/>
      <path id="Path_165" data-name="Path 165" d="M21239.654,2996.854l-5.326,7.918-4.625,10.216-7.355-18.135Z" transform="translate(-21202.145 -2913.895)" fill="#1e1e1e" stroke="#1e1e1e" stroke-width="1"/>
      <path id="Path_166" data-name="Path 166" d="M21279.566,2908.63l2.789,31.217-21.674,20.315-8.824-7.67Z" transform="translate(-21219.729 -2861.326)" fill="#3e3e3e" stroke="#3e3e3e" stroke-width="1"/>
      <path id="Path_167" data-name="Path 167" d="M21238.4,3017.565l8.814,7.776-17.939,44.791Z" transform="translate(-21206.275 -2926.236)" fill="#9d9d9d" stroke="#9d9d9d" stroke-width="1"/>
      <path id="Path_168" data-name="Path 168" d="M21225.053,3026.843l4.553-10.094-9.164,53.162-5.936,10.819Z" transform="translate(-21197.473 -2925.75)" fill="#afafaf" stroke="#afafaf" stroke-width="1"/>
    </g>
  </g>
</svg>
