<svg xmlns="http://www.w3.org/2000/svg" xmlns:xlink="http://www.w3.org/1999/xlink" width="47.736" height="59.112" viewBox="0 0 47.736 59.112"><defs><clipPath id="a"><path d="M52.417,28.08,36.505,44,52.417,59.915H34.235L18.317,44,34.235,28.08ZM34.235.8,4.682,30.357l9.094,9.094L52.417.8H34.235Z" transform="translate(-4.682 -0.804)"/></clipPath><linearGradient id="e" x1="0.197" y1="1.193" x2="0.699" y2="0.448" gradientUnits="objectBoundingBox"><stop offset="0" stop-color="#1a237e" stop-opacity="0.4"/><stop offset="1" stop-color="#1a237e" stop-opacity="0"/></linearGradient><radialGradient id="g" cx="0.028" cy="0.068" r="1.223" gradientTransform="matrix(1.238, 0, 0, -1, -2.189, -5.539)" gradientUnits="objectBoundingBox"><stop offset="0" stop-color="#fff" stop-opacity="0.102"/><stop offset="1" stop-color="#fff" stop-opacity="0"/></radialGradient></defs><g clip-path="url(#a)"><path d="M23.075,44.422,48.081,19.41H29.9L13.987,35.328Z" transform="translate(-0.346 7.867)" fill="#39cefd"/></g><g clip-path="url(#a)"><path d="M4.682,30.357,34.235.8H52.417L13.776,39.451Z" transform="translate(-4.682 -0.804)" fill="#39cefd"/></g><g clip-path="url(#a)"><path d="M27.01,46.18H45.192L29.281,30.268l-9.094,9.094Z" transform="translate(2.543 12.926)" fill="#03569b"/></g><g clip-path="url(#a)"><path d="M29.281,30.268l-9.094,9.094L33.674,34.69Z" transform="translate(2.543 12.926)" fill="url(#e)"/></g><g clip-path="url(#a)"><path d="M13.986,33.157l9.094-9.094,9.095,9.094L23.08,42.251Z" transform="translate(-0.346 10.034)" fill="#16b9fd"/></g><path d="M52.417,28.08,36.505,44,52.417,59.915H34.235L18.317,44,34.235,28.08ZM34.235.8,4.682,30.357l9.094,9.094L52.417.8H34.235Z" transform="translate(-4.682 -0.804)" fill="url(#g)"/></svg>