<svg xmlns="http://www.w3.org/2000/svg"  viewBox="0 0 16.406 16"><path d="M8.2.445A8.2,8.2,0,0,0,5.609,16.431c.41.077.561-.176.561-.394,0-.195-.007-.711-.01-1.395-2.282.495-2.763-1.1-2.763-1.1a2.174,2.174,0,0,0-.913-1.2c-.743-.509.057-.5.057-.5a1.72,1.72,0,0,1,1.256.845,1.748,1.748,0,0,0,2.389.682,1.749,1.749,0,0,1,.52-1.1C4.884,12.069,2.97,11.363,2.97,8.22a3.165,3.165,0,0,1,.844-2.2,2.917,2.917,0,0,1,.072-2.171s.687-.22,2.256.841a7.734,7.734,0,0,1,4.1,0c1.559-1.061,2.246-.841,2.246-.841a3,3,0,0,1,.082,2.171,3.178,3.178,0,0,1,.841,2.2c0,3.151-1.917,3.845-3.743,4.047a1.964,1.964,0,0,1,.554,1.518c0,1.1-.01,1.98-.01,2.246,0,.215.144.472.564.39A8.193,8.193,0,0,0,8.2.445" transform="translate(0 -0.446)" /></svg>