<svg viewBox="0 0 26 26" fill="none">
<path d="M25.2606 10.6568C25.4122 11.5293 25.4878 12.4134 25.4865 13.299C25.4865 17.2543 24.0728 20.5985 21.6125 22.8621H21.6158C19.4643 24.8495 16.5067 26 13 26C9.55219 26 6.24558 24.6304 3.80761 22.1924C1.36964 19.7544 0 16.4478 0 13C0 9.55219 1.36964 6.24559 3.80761 3.80762C6.24558 1.36964 9.55219 3.32356e-06 13 3.32356e-06C16.2271 -0.0377915 19.3437 1.17461 21.697 3.38325L17.9855 7.09475C16.6439 5.81584 14.8533 5.11549 13 5.14475C9.60863 5.14475 6.7275 7.43275 5.7005 10.5138C5.15597 12.1282 5.15597 13.8767 5.7005 15.4911H5.70537C6.73725 18.5673 9.6135 20.8553 13.0049 20.8553C14.7566 20.8553 16.2614 20.4068 17.4281 19.6138H17.4233C18.1007 19.1649 18.6802 18.5835 19.1268 17.9046C19.5734 17.2256 19.8778 16.4632 20.0216 15.6634H13V10.6584H25.2606V10.6568Z" />
</svg>
