<svg xmlns="http://www.w3.org/2000/svg" xmlns:xlink="http://www.w3.org/1999/xlink" width="380.185" height="502.667" viewBox="0 0 380.185 502.667">
  <defs>
    <filter id="Path_22" x="60" y="0" width="259.671" height="502.667" filterUnits="userSpaceOnUse">
      <feOffset dy="3" input="SourceAlpha"/>
      <feGaussianBlur stdDeviation="3" result="blur"/>
      <feFlood flood-opacity="0.161"/>
      <feComposite operator="in" in2="blur"/>
      <feComposite in="SourceGraphic"/>
    </filter>
    <filter id="Rectangle_396" x="0" y="100" width="296.185" height="88.129" filterUnits="userSpaceOnUse">
      <feOffset dy="3" input="SourceAlpha"/>
      <feGaussianBlur stdDeviation="3" result="blur-2"/>
      <feFlood flood-opacity="0.161"/>
      <feComposite operator="in" in2="blur-2"/>
      <feComposite in="SourceGraphic"/>
    </filter>
    <filter id="Rectangle_396-2" x="84" y="300" width="296.185" height="88.129" filterUnits="userSpaceOnUse">
      <feOffset dy="3" input="SourceAlpha"/>
      <feGaussianBlur stdDeviation="3" result="blur-3"/>
      <feFlood flood-opacity="0.161"/>
      <feComposite operator="in" in2="blur-3"/>
      <feComposite in="SourceGraphic"/>
    </filter>
  </defs>
  <g transform="matrix(1, 0, 0, 1, 0, 0)" filter="url(#Path_22)">
    <path id="Path_22-2" data-name="Path 22" d="M652.783,217.334h-2.663V144.383A42.224,42.224,0,0,0,607.9,102.16H453.336a42.223,42.223,0,0,0-42.223,42.224V544.6a42.223,42.223,0,0,0,42.223,42.223H607.9A42.223,42.223,0,0,0,650.12,544.6V269.261h2.663Z" transform="translate(-342.11 -96.16)" fill="var(--my-gray-50)"/>
  </g>
  <path id="Path_23" data-name="Path 23" d="M615.718,117.918H595.431a15.065,15.065,0,0,1-13.95,20.754H492.438a15.065,15.065,0,0,1-13.948-20.754H459.541a31.709,31.709,0,0,0-31.709,31.709V551.508a31.709,31.709,0,0,0,31.709,31.709H615.718a31.709,31.709,0,0,0,31.709-31.709h0V149.626a31.709,31.709,0,0,0-31.708-31.708Z" transform="translate(-347.632 -101.875)" fill="var(--my-gray-100)"/>
  <rect id="Rectangle_394" data-name="Rectangle 394" width="194.185" height="70.129" rx="10" transform="translate(93 206)" fill="var(--my-gray-200)"/>
  <path id="Rectangle_395" data-name="Rectangle 395" d="M0,0H220.185a0,0,0,0,1,0,0V41.8a30,30,0,0,1-30,30H30a30,30,0,0,1-30-30V0A0,0,0,0,1,0,0Z" transform="translate(80 410)" fill="var(--my-gray-200)"/>
  <g transform="matrix(1, 0, 0, 1, 0, 0)" filter="url(#Rectangle_396)">
    <rect id="Rectangle_396-3" data-name="Rectangle 396" width="278.185" height="70.129" rx="10" transform="translate(9 106)" fill="var(--my-gray-200)"/>
  </g>
  <circle id="Ellipse_105" data-name="Ellipse 105" cx="18" cy="18" r="18" transform="translate(28.185 123)" fill="var(--my-gray-50)"/>
  <rect id="Rectangle_397" data-name="Rectangle 397" width="120" height="8" rx="4" transform="translate(74.185 130)" fill="var(--my-gray-50)"/>
  <rect id="Rectangle_398" data-name="Rectangle 398" width="185" height="8" rx="4" transform="translate(74.185 144)" fill="var(--my-gray-50)"/>
  <g transform="matrix(1, 0, 0, 1, 0, 0)" filter="url(#Rectangle_396-2)">
    <rect id="Rectangle_396-4" data-name="Rectangle 396" width="278.185" height="70.129" rx="10" transform="translate(93 306)" fill="var(--my-gray-200)"/>
  </g>
  <circle id="Ellipse_105-2" data-name="Ellipse 105" cx="18" cy="18" r="18" transform="translate(112.185 323)" fill="var(--my-gray-50)"/>
  <rect id="Rectangle_397-2" data-name="Rectangle 397" width="120" height="8" rx="4" transform="translate(158.185 330)" fill="var(--my-gray-50)"/>
  <rect id="Rectangle_398-2" data-name="Rectangle 398" width="185" height="8" rx="4" transform="translate(158.185 344)" fill="var(--my-gray-50)"/>
  <g id="Ellipse_1" data-name="Ellipse 1" transform="translate(133 52)" fill="none" stroke="var(--my-gray-200)" stroke-width="5">
    <circle cx="14" cy="14" r="14" stroke="none"/>
    <circle cx="14" cy="14" r="11.5" fill="none"/>
  </g>
  <path id="Path_52" data-name="Path 52" d="M6.337,0l6.337,11H0Z" transform="translate(140.705 59.041)" fill="var(--my-gray-200)"/>
  <text id="THE_HAPPY_PROGRAMMER" data-name="THE HAPPY 
PROGRAMMER" transform="translate(166 65)" fill="var(--my-gray-200)" font-size="11" font-family="SFProText-Black, SF Pro Text" font-weight="800" letter-spacing="-0.062em"><tspan x="0" y="0">THE HAPPY </tspan><tspan x="0" y="9">PROGRAMMER</tspan></text>
</svg>
