<svg xmlns="http://www.w3.org/2000/svg" xmlns:xlink="http://www.w3.org/1999/xlink" viewBox="0 0 552.057 382">
  <defs>
    <filter id="Rectangle_399" x="0" y="0" width="458" height="382" filterUnits="userSpaceOnUse">
      <feOffset dy="3" input="SourceAlpha"/>
      <feGaussianBlur stdDeviation="3" result="blur"/>
      <feFlood flood-opacity="0.161"/>
      <feComposite operator="in" in2="blur"/>
      <feComposite in="SourceGraphic"/>
    </filter>
    <filter id="Rectangle_400" x="345.943" y="95.034" width="206.115" height="223.216" filterUnits="userSpaceOnUse">
      <feOffset dy="3" input="SourceAlpha"/>
      <feGaussianBlur stdDeviation="3" result="blur-2"/>
      <feFlood flood-opacity="0.161"/>
      <feComposite operator="in" in2="blur-2"/>
      <feComposite in="SourceGraphic"/>
    </filter>
  </defs>
  <g transform="matrix(1, 0, 0, 1, 0, 0)" filter="url(#Rectangle_399)">
    <rect id="Rectangle_399-2" data-name="Rectangle 399" width="440" height="364" rx="13" transform="translate(9 6)" fill="#fff"/>
  </g>
  <line id="Line_16" data-name="Line 16" x1="440" transform="translate(9.5 24.5)" fill="none" stroke="#eee" stroke-width="1"/>
  <circle id="Ellipse_110" data-name="Ellipse 110" cx="3" cy="3" r="3" transform="translate(22 13)" fill="#9e9e9e"/>
  <circle id="Ellipse_111" data-name="Ellipse 111" cx="3" cy="3" r="3" transform="translate(35 13)" fill="#9e9e9e"/>
  <circle id="Ellipse_112" data-name="Ellipse 112" cx="3" cy="3" r="3" transform="translate(47 13)" fill="#9e9e9e"/>
  <line id="Line_17" data-name="Line 17" y2="346" transform="translate(150.5 24.5)" fill="none" stroke="#eee" stroke-width="1"/>
  <g id="Rectangle_401" data-name="Rectangle 401" transform="translate(22 41)" fill="#eee" stroke="#eee" stroke-width="1">
    <rect width="80" height="7" rx="3.5" stroke="none"/>
    <rect x="0.5" y="0.5" width="79" height="6" rx="3" fill="none"/>
  </g>
  <g id="Rectangle_402" data-name="Rectangle 402" transform="translate(54 61)" fill="#eee" stroke="#eee" stroke-width="1">
    <rect width="80" height="7" rx="3.5" stroke="none"/>
    <rect x="0.5" y="0.5" width="79" height="6" rx="3" fill="none"/>
  </g>
  <g id="Rectangle_405" data-name="Rectangle 405" transform="translate(22 114)" fill="#eee" stroke="#eee" stroke-width="1">
    <rect width="80" height="7" rx="3.5" stroke="none"/>
    <rect x="0.5" y="0.5" width="79" height="6" rx="3" fill="none"/>
  </g>
  <g id="Rectangle_406" data-name="Rectangle 406" transform="translate(54 134)" fill="#eee" stroke="#eee" stroke-width="1">
    <rect width="80" height="7" rx="3.5" stroke="none"/>
    <rect x="0.5" y="0.5" width="79" height="6" rx="3" fill="none"/>
  </g>
  <g id="Rectangle_407" data-name="Rectangle 407" transform="translate(54 154)" fill="#eee" stroke="#eee" stroke-width="1">
    <rect width="80" height="7" rx="3.5" stroke="none"/>
    <rect x="0.5" y="0.5" width="79" height="6" rx="3" fill="none"/>
  </g>
  <g id="Rectangle_408" data-name="Rectangle 408" transform="translate(22 187)" fill="#eee" stroke="#eee" stroke-width="1">
    <rect width="80" height="7" rx="3.5" stroke="none"/>
    <rect x="0.5" y="0.5" width="79" height="6" rx="3" fill="none"/>
  </g>
  <g id="Rectangle_409" data-name="Rectangle 409" transform="translate(54 207)" fill="#eee" stroke="#eee" stroke-width="1">
    <rect width="80" height="7" rx="3.5" stroke="none"/>
    <rect x="0.5" y="0.5" width="79" height="6" rx="3" fill="none"/>
  </g>
  <g id="Rectangle_410" data-name="Rectangle 410" transform="translate(54 227)" fill="#eee" stroke="#eee" stroke-width="1">
    <rect width="80" height="7" rx="3.5" stroke="none"/>
    <rect x="0.5" y="0.5" width="79" height="6" rx="3" fill="none"/>
  </g>
  <g id="Rectangle_412" data-name="Rectangle 412" transform="translate(54 81)" fill="#eee" stroke="#eee" stroke-width="1">
    <rect width="80" height="7" rx="3.5" stroke="none"/>
    <rect x="0.5" y="0.5" width="79" height="6" rx="3" fill="none"/>
  </g>
  <g id="Group_247" data-name="Group 247" transform="translate(-478 -1031)">
    <g id="Rectangle_400-2" data-name="Rectangle 400" transform="translate(645 1072)" fill="#fff" stroke="#eee" stroke-width="1">
      <rect width="121" height="132" rx="11" stroke="none"/>
      <rect x="0.5" y="0.5" width="120" height="131" rx="10.5" fill="none"/>
    </g>
    <g id="Rectangle_404" data-name="Rectangle 404" transform="translate(654 1160)" fill="#eee" stroke="#eee" stroke-width="1">
      <rect width="100" height="7" rx="3.5" stroke="none"/>
      <rect x="0.5" y="0.5" width="99" height="6" rx="3" fill="none"/>
    </g>
    <g id="Rectangle_411" data-name="Rectangle 411" transform="translate(645 1072)" fill="#eee" stroke="#eee" stroke-width="1">
      <path d="M11,0h99a11,11,0,0,1,11,11V60a0,0,0,0,1,0,0H0a0,0,0,0,1,0,0V11A11,11,0,0,1,11,0Z" stroke="none"/>
      <path d="M11,.5h99A10.5,10.5,0,0,1,120.5,11V59a.5.5,0,0,1-.5.5H1A.5.5,0,0,1,.5,59V11A10.5,10.5,0,0,1,11,.5Z" fill="none"/>
    </g>
    <g id="Rectangle_413" data-name="Rectangle 413" transform="translate(653 1189)" fill="#eee" stroke="#eee" stroke-width="1">
      <rect width="26" height="7" rx="3.5" stroke="none"/>
      <rect x="0.5" y="0.5" width="25" height="6" rx="3" fill="none"/>
    </g>
    <g id="Rectangle_414" data-name="Rectangle 414" transform="translate(654 1171)" fill="#eee" stroke="#eee" stroke-width="1">
      <rect width="100" height="7" rx="3.5" stroke="none"/>
      <rect x="0.5" y="0.5" width="99" height="6" rx="3" fill="none"/>
    </g>
    <g id="Rectangle_415" data-name="Rectangle 415" transform="translate(654 1142)" fill="#eee" stroke="#eee" stroke-width="1">
      <rect width="61" height="7" rx="3.5" stroke="none"/>
      <rect x="0.5" y="0.5" width="60" height="6" rx="3" fill="none"/>
    </g>
    <g id="Rectangle_416" data-name="Rectangle 416" transform="translate(683 1189)" fill="#eee" stroke="#eee" stroke-width="1">
      <rect width="26" height="7" rx="3.5" stroke="none"/>
      <rect x="0.5" y="0.5" width="25" height="6" rx="3" fill="none"/>
    </g>
  </g>
  <g id="Group_248" data-name="Group 248" transform="translate(-340 -1031)">
    <g id="Rectangle_400-3" data-name="Rectangle 400" transform="translate(645 1072)" fill="#fff" stroke="#eee" stroke-width="1">
      <rect width="121" height="132" rx="11" stroke="none"/>
      <rect x="0.5" y="0.5" width="120" height="131" rx="10.5" fill="none"/>
    </g>
    <g id="Rectangle_404-2" data-name="Rectangle 404" transform="translate(654 1160)" fill="#eee" stroke="#eee" stroke-width="1">
      <rect width="100" height="7" rx="3.5" stroke="none"/>
      <rect x="0.5" y="0.5" width="99" height="6" rx="3" fill="none"/>
    </g>
    <g id="Rectangle_411-2" data-name="Rectangle 411" transform="translate(645 1072)" fill="#eee" stroke="#eee" stroke-width="1">
      <path d="M11,0h99a11,11,0,0,1,11,11V60a0,0,0,0,1,0,0H0a0,0,0,0,1,0,0V11A11,11,0,0,1,11,0Z" stroke="none"/>
      <path d="M11,.5h99A10.5,10.5,0,0,1,120.5,11V59a.5.5,0,0,1-.5.5H1A.5.5,0,0,1,.5,59V11A10.5,10.5,0,0,1,11,.5Z" fill="none"/>
    </g>
    <g id="Rectangle_413-2" data-name="Rectangle 413" transform="translate(653 1189)" fill="#eee" stroke="#eee" stroke-width="1">
      <rect width="26" height="7" rx="3.5" stroke="none"/>
      <rect x="0.5" y="0.5" width="25" height="6" rx="3" fill="none"/>
    </g>
    <g id="Rectangle_414-2" data-name="Rectangle 414" transform="translate(654 1171)" fill="#eee" stroke="#eee" stroke-width="1">
      <rect width="100" height="7" rx="3.5" stroke="none"/>
      <rect x="0.5" y="0.5" width="99" height="6" rx="3" fill="none"/>
    </g>
    <g id="Rectangle_415-2" data-name="Rectangle 415" transform="translate(654 1142)" fill="#eee" stroke="#eee" stroke-width="1">
      <rect width="61" height="7" rx="3.5" stroke="none"/>
      <rect x="0.5" y="0.5" width="60" height="6" rx="3" fill="none"/>
    </g>
    <g id="Rectangle_416-2" data-name="Rectangle 416" transform="translate(683 1189)" fill="#eee" stroke="#eee" stroke-width="1">
      <rect width="26" height="7" rx="3.5" stroke="none"/>
      <rect x="0.5" y="0.5" width="25" height="6" rx="3" fill="none"/>
    </g>
  </g>
  <g id="Group_249" data-name="Group 249" transform="translate(-340 -1031)">
    <g id="Rectangle_400-4" data-name="Rectangle 400" transform="translate(645 1072)" fill="#fff" stroke="#eee" stroke-width="1">
      <rect width="121" height="132" rx="11" stroke="none"/>
      <rect x="0.5" y="0.5" width="120" height="131" rx="10.5" fill="none"/>
    </g>
    <g id="Rectangle_404-3" data-name="Rectangle 404" transform="translate(654 1160)" fill="#eee" stroke="#eee" stroke-width="1">
      <rect width="100" height="7" rx="3.5" stroke="none"/>
      <rect x="0.5" y="0.5" width="99" height="6" rx="3" fill="none"/>
    </g>
    <g id="Rectangle_411-3" data-name="Rectangle 411" transform="translate(645 1072)" fill="#eee" stroke="#eee" stroke-width="1">
      <path d="M11,0h99a11,11,0,0,1,11,11V60a0,0,0,0,1,0,0H0a0,0,0,0,1,0,0V11A11,11,0,0,1,11,0Z" stroke="none"/>
      <path d="M11,.5h99A10.5,10.5,0,0,1,120.5,11V59a.5.5,0,0,1-.5.5H1A.5.5,0,0,1,.5,59V11A10.5,10.5,0,0,1,11,.5Z" fill="none"/>
    </g>
    <g id="Rectangle_413-3" data-name="Rectangle 413" transform="translate(653 1189)" fill="#eee" stroke="#eee" stroke-width="1">
      <rect width="26" height="7" rx="3.5" stroke="none"/>
      <rect x="0.5" y="0.5" width="25" height="6" rx="3" fill="none"/>
    </g>
    <g id="Rectangle_414-3" data-name="Rectangle 414" transform="translate(654 1171)" fill="#eee" stroke="#eee" stroke-width="1">
      <rect width="100" height="7" rx="3.5" stroke="none"/>
      <rect x="0.5" y="0.5" width="99" height="6" rx="3" fill="none"/>
    </g>
    <g id="Rectangle_415-3" data-name="Rectangle 415" transform="translate(654 1142)" fill="#eee" stroke="#eee" stroke-width="1">
      <rect width="61" height="7" rx="3.5" stroke="none"/>
      <rect x="0.5" y="0.5" width="60" height="6" rx="3" fill="none"/>
    </g>
    <g id="Rectangle_416-3" data-name="Rectangle 416" transform="translate(683 1189)" fill="#eee" stroke="#eee" stroke-width="1">
      <rect width="26" height="7" rx="3.5" stroke="none"/>
      <rect x="0.5" y="0.5" width="25" height="6" rx="3" fill="none"/>
    </g>
  </g>
  <g id="Group_250" data-name="Group 250" transform="translate(-478 -882)">
    <g id="Rectangle_400-5" data-name="Rectangle 400" transform="translate(645 1072)" fill="#fff" stroke="#eee" stroke-width="1">
      <rect width="121" height="132" rx="11" stroke="none"/>
      <rect x="0.5" y="0.5" width="120" height="131" rx="10.5" fill="none"/>
    </g>
    <g id="Rectangle_404-4" data-name="Rectangle 404" transform="translate(654 1160)" fill="#eee" stroke="#eee" stroke-width="1">
      <rect width="100" height="7" rx="3.5" stroke="none"/>
      <rect x="0.5" y="0.5" width="99" height="6" rx="3" fill="none"/>
    </g>
    <g id="Rectangle_411-4" data-name="Rectangle 411" transform="translate(645 1072)" fill="#eee" stroke="#eee" stroke-width="1">
      <path d="M11,0h99a11,11,0,0,1,11,11V60a0,0,0,0,1,0,0H0a0,0,0,0,1,0,0V11A11,11,0,0,1,11,0Z" stroke="none"/>
      <path d="M11,.5h99A10.5,10.5,0,0,1,120.5,11V59a.5.5,0,0,1-.5.5H1A.5.5,0,0,1,.5,59V11A10.5,10.5,0,0,1,11,.5Z" fill="none"/>
    </g>
    <g id="Rectangle_413-4" data-name="Rectangle 413" transform="translate(653 1189)" fill="#eee" stroke="#eee" stroke-width="1">
      <rect width="26" height="7" rx="3.5" stroke="none"/>
      <rect x="0.5" y="0.5" width="25" height="6" rx="3" fill="none"/>
    </g>
    <g id="Rectangle_414-4" data-name="Rectangle 414" transform="translate(654 1171)" fill="#eee" stroke="#eee" stroke-width="1">
      <rect width="100" height="7" rx="3.5" stroke="none"/>
      <rect x="0.5" y="0.5" width="99" height="6" rx="3" fill="none"/>
    </g>
    <g id="Rectangle_415-4" data-name="Rectangle 415" transform="translate(654 1142)" fill="#eee" stroke="#eee" stroke-width="1">
      <rect width="61" height="7" rx="3.5" stroke="none"/>
      <rect x="0.5" y="0.5" width="60" height="6" rx="3" fill="none"/>
    </g>
    <g id="Rectangle_416-4" data-name="Rectangle 416" transform="translate(683 1189)" fill="#eee" stroke="#eee" stroke-width="1">
      <rect width="26" height="7" rx="3.5" stroke="none"/>
      <rect x="0.5" y="0.5" width="25" height="6" rx="3" fill="none"/>
    </g>
  </g>
  <g id="Group_251" data-name="Group 251" transform="translate(-478 -882)">
    <g id="Rectangle_400-6" data-name="Rectangle 400" transform="translate(645 1072)" fill="#fff" stroke="#eee" stroke-width="1">
      <rect width="121" height="132" rx="11" stroke="none"/>
      <rect x="0.5" y="0.5" width="120" height="131" rx="10.5" fill="none"/>
    </g>
    <g id="Rectangle_404-5" data-name="Rectangle 404" transform="translate(654 1160)" fill="#eee" stroke="#eee" stroke-width="1">
      <rect width="100" height="7" rx="3.5" stroke="none"/>
      <rect x="0.5" y="0.5" width="99" height="6" rx="3" fill="none"/>
    </g>
    <g id="Rectangle_411-5" data-name="Rectangle 411" transform="translate(645 1072)" fill="#eee" stroke="#eee" stroke-width="1">
      <path d="M11,0h99a11,11,0,0,1,11,11V60a0,0,0,0,1,0,0H0a0,0,0,0,1,0,0V11A11,11,0,0,1,11,0Z" stroke="none"/>
      <path d="M11,.5h99A10.5,10.5,0,0,1,120.5,11V59a.5.5,0,0,1-.5.5H1A.5.5,0,0,1,.5,59V11A10.5,10.5,0,0,1,11,.5Z" fill="none"/>
    </g>
    <g id="Rectangle_413-5" data-name="Rectangle 413" transform="translate(653 1189)" fill="#eee" stroke="#eee" stroke-width="1">
      <rect width="26" height="7" rx="3.5" stroke="none"/>
      <rect x="0.5" y="0.5" width="25" height="6" rx="3" fill="none"/>
    </g>
    <g id="Rectangle_414-5" data-name="Rectangle 414" transform="translate(654 1171)" fill="#eee" stroke="#eee" stroke-width="1">
      <rect width="100" height="7" rx="3.5" stroke="none"/>
      <rect x="0.5" y="0.5" width="99" height="6" rx="3" fill="none"/>
    </g>
    <g id="Rectangle_415-5" data-name="Rectangle 415" transform="translate(654 1142)" fill="#eee" stroke="#eee" stroke-width="1">
      <rect width="61" height="7" rx="3.5" stroke="none"/>
      <rect x="0.5" y="0.5" width="60" height="6" rx="3" fill="none"/>
    </g>
    <g id="Rectangle_416-5" data-name="Rectangle 416" transform="translate(683 1189)" fill="#eee" stroke="#eee" stroke-width="1">
      <rect width="26" height="7" rx="3.5" stroke="none"/>
      <rect x="0.5" y="0.5" width="25" height="6" rx="3" fill="none"/>
    </g>
  </g>
  <g id="Group_252" data-name="Group 252" transform="translate(-478 -882)">
    <g id="Rectangle_400-7" data-name="Rectangle 400" transform="translate(645 1072)" fill="#fff" stroke="#eee" stroke-width="1">
      <rect width="121" height="132" rx="11" stroke="none"/>
      <rect x="0.5" y="0.5" width="120" height="131" rx="10.5" fill="none"/>
    </g>
    <g id="Rectangle_404-6" data-name="Rectangle 404" transform="translate(654 1160)" fill="#eee" stroke="#eee" stroke-width="1">
      <rect width="100" height="7" rx="3.5" stroke="none"/>
      <rect x="0.5" y="0.5" width="99" height="6" rx="3" fill="none"/>
    </g>
    <g id="Rectangle_411-6" data-name="Rectangle 411" transform="translate(645 1072)" fill="#eee" stroke="#eee" stroke-width="1">
      <path d="M11,0h99a11,11,0,0,1,11,11V60a0,0,0,0,1,0,0H0a0,0,0,0,1,0,0V11A11,11,0,0,1,11,0Z" stroke="none"/>
      <path d="M11,.5h99A10.5,10.5,0,0,1,120.5,11V59a.5.5,0,0,1-.5.5H1A.5.5,0,0,1,.5,59V11A10.5,10.5,0,0,1,11,.5Z" fill="none"/>
    </g>
    <g id="Rectangle_413-6" data-name="Rectangle 413" transform="translate(653 1189)" fill="#eee" stroke="#eee" stroke-width="1">
      <rect width="26" height="7" rx="3.5" stroke="none"/>
      <rect x="0.5" y="0.5" width="25" height="6" rx="3" fill="none"/>
    </g>
    <g id="Rectangle_414-6" data-name="Rectangle 414" transform="translate(654 1171)" fill="#eee" stroke="#eee" stroke-width="1">
      <rect width="100" height="7" rx="3.5" stroke="none"/>
      <rect x="0.5" y="0.5" width="99" height="6" rx="3" fill="none"/>
    </g>
    <g id="Rectangle_415-6" data-name="Rectangle 415" transform="translate(654 1142)" fill="#eee" stroke="#eee" stroke-width="1">
      <rect width="61" height="7" rx="3.5" stroke="none"/>
      <rect x="0.5" y="0.5" width="60" height="6" rx="3" fill="none"/>
    </g>
    <g id="Rectangle_416-6" data-name="Rectangle 416" transform="translate(683 1189)" fill="#eee" stroke="#eee" stroke-width="1">
      <rect width="26" height="7" rx="3.5" stroke="none"/>
      <rect x="0.5" y="0.5" width="25" height="6" rx="3" fill="none"/>
    </g>
  </g>
  <g id="Group_253" data-name="Group 253" transform="translate(-290.057 -970.966)">
    <g transform="matrix(1, 0, 0, 1, 290.06, 970.97)" filter="url(#Rectangle_400)">
      <g id="Rectangle_400-8" data-name="Rectangle 400" transform="translate(354.94 101.03)" fill="#fff" stroke="#eee" stroke-width="1">
        <rect width="188.115" height="205.216" rx="11" stroke="none"/>
        <rect x="0.5" y="0.5" width="187.115" height="204.216" rx="10.5" fill="none"/>
      </g>
    </g>
    <g id="Rectangle_404-7" data-name="Rectangle 404" transform="translate(658.992 1208.811)" fill="#eee" stroke="#eee" stroke-width="1">
      <rect width="155.467" height="10.883" rx="5.441" stroke="none"/>
      <rect x="0.5" y="0.5" width="154.467" height="9.883" rx="4.941" fill="none"/>
    </g>
    <g id="Rectangle_411-7" data-name="Rectangle 411" transform="translate(645 1072)" fill="#eee" stroke="#eee" stroke-width="1">
      <path d="M11,0H177.115a11,11,0,0,1,11,11V93.28a0,0,0,0,1,0,0H0a0,0,0,0,1,0,0V11A11,11,0,0,1,11,0Z" stroke="none"/>
      <path d="M11,.5H177.115a10.5,10.5,0,0,1,10.5,10.5V92.28a.5.5,0,0,1-.5.5H1a.5.5,0,0,1-.5-.5V11A10.5,10.5,0,0,1,11,.5Z" fill="none"/>
    </g>
    <g id="Rectangle_413-7" data-name="Rectangle 413" transform="translate(657.437 1253.896)" fill="#eee" stroke="#eee" stroke-width="1">
      <rect width="40.421" height="10.883" rx="5.441" stroke="none"/>
      <rect x="0.5" y="0.5" width="39.421" height="9.883" rx="4.941" fill="none"/>
    </g>
    <g id="Rectangle_414-7" data-name="Rectangle 414" transform="translate(658.992 1225.912)" fill="#eee" stroke="#eee" stroke-width="1">
      <rect width="155.467" height="10.883" rx="5.441" stroke="none"/>
      <rect x="0.5" y="0.5" width="154.467" height="9.883" rx="4.941" fill="none"/>
    </g>
    <g id="Rectangle_415-7" data-name="Rectangle 415" transform="translate(658.992 1180.827)" fill="#eee" stroke="#eee" stroke-width="1">
      <rect width="94.835" height="10.883" rx="5.441" stroke="none"/>
      <rect x="0.5" y="0.5" width="93.835" height="9.883" rx="4.941" fill="none"/>
    </g>
    <g id="Rectangle_416-7" data-name="Rectangle 416" transform="translate(704.077 1253.896)" fill="#eee" stroke="#eee" stroke-width="1">
      <rect width="40.421" height="10.883" rx="5.441" stroke="none"/>
      <rect x="0.5" y="0.5" width="39.421" height="9.883" rx="4.941" fill="none"/>
    </g>
  </g>
</svg>
