<svg xmlns="http://www.w3.org/2000/svg" xmlns:xlink="http://www.w3.org/1999/xlink" viewBox="0 0 322 397">
  <defs>
    <filter id="Rectangle_424" x="50" y="161" width="223" height="53" filterUnits="userSpaceOnUse">
      <feOffset dy="3" input="SourceAlpha"/>
      <feGaussianBlur stdDeviation="3" result="blur"/>
      <feFlood flood-opacity="0.161"/>
      <feComposite operator="in" in2="blur"/>
      <feComposite in="SourceGraphic"/>
    </filter>
    <filter id="Rectangle_423" x="50" y="67" width="223" height="53" filterUnits="userSpaceOnUse">
      <feOffset dy="3" input="SourceAlpha"/>
      <feGaussianBlur stdDeviation="3" result="blur-2"/>
      <feFlood flood-opacity="0.161"/>
      <feComposite operator="in" in2="blur-2"/>
      <feComposite in="SourceGraphic"/>
    </filter>
    <filter id="Rectangle_419" x="0" y="0" width="322" height="95" filterUnits="userSpaceOnUse">
      <feOffset dy="3" input="SourceAlpha"/>
      <feGaussianBlur stdDeviation="3" result="blur-3"/>
      <feFlood flood-opacity="0.161"/>
      <feComposite operator="in" in2="blur-3"/>
      <feComposite in="SourceGraphic"/>
    </filter>
    <filter id="Rectangle_420" x="0" y="95" width="322" height="95" filterUnits="userSpaceOnUse">
      <feOffset dy="3" input="SourceAlpha"/>
      <feGaussianBlur stdDeviation="3" result="blur-4"/>
      <feFlood flood-opacity="0.161"/>
      <feComposite operator="in" in2="blur-4"/>
      <feComposite in="SourceGraphic"/>
    </filter>
    <filter id="Rectangle_425" x="50" y="259" width="223" height="53" filterUnits="userSpaceOnUse">
      <feOffset dy="3" input="SourceAlpha"/>
      <feGaussianBlur stdDeviation="3" result="blur-5"/>
      <feFlood flood-opacity="0.161"/>
      <feComposite operator="in" in2="blur-5"/>
      <feComposite in="SourceGraphic"/>
    </filter>
    <filter id="Rectangle_426" x="208" y="343" width="65" height="53" filterUnits="userSpaceOnUse">
      <feOffset dy="3" input="SourceAlpha"/>
      <feGaussianBlur stdDeviation="3" result="blur-6"/>
      <feFlood flood-opacity="0.161"/>
      <feComposite operator="in" in2="blur-6"/>
      <feComposite in="SourceGraphic"/>
    </filter>
    <filter id="Rectangle_427" x="50" y="344" width="65" height="53" filterUnits="userSpaceOnUse">
      <feOffset dy="3" input="SourceAlpha"/>
      <feGaussianBlur stdDeviation="3" result="blur-7"/>
      <feFlood flood-opacity="0.161"/>
      <feComposite operator="in" in2="blur-7"/>
      <feComposite in="SourceGraphic"/>
    </filter>
    <filter id="Rectangle_421" x="0" y="190" width="322" height="95" filterUnits="userSpaceOnUse">
      <feOffset dy="3" input="SourceAlpha"/>
      <feGaussianBlur stdDeviation="3" result="blur-8"/>
      <feFlood flood-opacity="0.161"/>
      <feComposite operator="in" in2="blur-8"/>
      <feComposite in="SourceGraphic"/>
    </filter>
    <filter id="Rectangle_422" x="0" y="285" width="322" height="95" filterUnits="userSpaceOnUse">
      <feOffset dy="3" input="SourceAlpha"/>
      <feGaussianBlur stdDeviation="3" result="blur-9"/>
      <feFlood flood-opacity="0.161"/>
      <feComposite operator="in" in2="blur-9"/>
      <feComposite in="SourceGraphic"/>
    </filter>
  </defs>
  <g transform="matrix(1, 0, 0, 1, 0, 0)" filter="url(#Rectangle_424)">
    <rect id="Rectangle_424-2" data-name="Rectangle 424" width="205" height="35" transform="translate(59 167)" fill="var(--my-gray-100)"/>
  </g>
  <g transform="matrix(1, 0, 0, 1, 0, 0)" filter="url(#Rectangle_423)">
    <rect id="Rectangle_423-2" data-name="Rectangle 423" width="205" height="35" transform="translate(59 73)" fill="var(--my-gray-100)"/>
  </g>
  <g transform="matrix(1, 0, 0, 1, 0, 0)" filter="url(#Rectangle_419)">
    <rect id="Rectangle_419-2" data-name="Rectangle 419" width="304" height="77" rx="10" transform="translate(9 6)" fill="var(--my-gray-200)"/>
  </g>
  <g id="Group_263" data-name="Group 263" transform="translate(-1320 -342)">
    <g id="Group_262" data-name="Group 262">
      <circle id="Ellipse_116" data-name="Ellipse 116" cx="6" cy="6" r="6" transform="translate(1600 367)" fill="var(--my-gray-300)"/>
      <circle id="Ellipse_117" data-name="Ellipse 117" cx="6" cy="6" r="6" transform="translate(1600 395)" fill="var(--my-gray-300)"/>
      <circle id="Ellipse_118" data-name="Ellipse 118" cx="6" cy="6" r="6" transform="translate(1568 367)" fill="var(--my-gray-300)"/>
      <circle id="Ellipse_119" data-name="Ellipse 119" cx="6" cy="6" r="6" transform="translate(1568 395)" fill="var(--my-gray-300)"/>
      <circle id="Ellipse_120" data-name="Ellipse 120" cx="6" cy="6" r="6" transform="translate(1536 367)" fill="var(--my-gray-300)"/>
      <circle id="Ellipse_121" data-name="Ellipse 121" cx="6" cy="6" r="6" transform="translate(1536 395)" fill="var(--my-gray-300)"/>
      <circle id="Ellipse_122" data-name="Ellipse 122" cx="6" cy="6" r="6" transform="translate(1504 367)" fill="var(--my-gray-300)"/>
      <circle id="Ellipse_123" data-name="Ellipse 123" cx="6" cy="6" r="6" transform="translate(1504 395)" fill="var(--my-gray-300)"/>
      <circle id="Ellipse_124" data-name="Ellipse 124" cx="6" cy="6" r="6" transform="translate(1472 367)" fill="var(--my-gray-300)"/>
      <circle id="Ellipse_125" data-name="Ellipse 125" cx="6" cy="6" r="6" transform="translate(1472 395)" fill="var(--my-gray-300)"/>
    </g>
    <circle id="Ellipse_126" data-name="Ellipse 126" cx="17" cy="17" r="17" transform="translate(1350 370)" fill="var(--my-gray-100)"/>
  </g>
  <g transform="matrix(1, 0, 0, 1, 0, 0)" filter="url(#Rectangle_420)">
    <rect id="Rectangle_420-2" data-name="Rectangle 420" width="304" height="77" rx="10" transform="translate(9 101)" fill="var(--my-gray-200)"/>
  </g>
  <g transform="matrix(1, 0, 0, 1, 0, 0)" filter="url(#Rectangle_425)">
    <rect id="Rectangle_425-2" data-name="Rectangle 425" width="205" height="35" transform="translate(59 265)" fill="var(--my-gray-100)"/>
  </g>
  <g id="Group_264" data-name="Group 264" transform="translate(-1320 -247)">
    <g id="Group_262-2" data-name="Group 262">
      <circle id="Ellipse_116-2" data-name="Ellipse 116" cx="6" cy="6" r="6" transform="translate(1600 367)" fill="var(--my-gray-300)"/>
      <circle id="Ellipse_117-2" data-name="Ellipse 117" cx="6" cy="6" r="6" transform="translate(1600 395)" fill="var(--my-gray-300)"/>
      <circle id="Ellipse_118-2" data-name="Ellipse 118" cx="6" cy="6" r="6" transform="translate(1568 367)" fill="var(--my-gray-300)"/>
      <circle id="Ellipse_119-2" data-name="Ellipse 119" cx="6" cy="6" r="6" transform="translate(1568 395)" fill="var(--my-gray-300)"/>
      <circle id="Ellipse_120-2" data-name="Ellipse 120" cx="6" cy="6" r="6" transform="translate(1536 367)" fill="var(--my-gray-300)"/>
      <circle id="Ellipse_121-2" data-name="Ellipse 121" cx="6" cy="6" r="6" transform="translate(1536 395)" fill="var(--my-gray-300)"/>
      <circle id="Ellipse_122-2" data-name="Ellipse 122" cx="6" cy="6" r="6" transform="translate(1504 367)" fill="var(--my-gray-300)"/>
      <circle id="Ellipse_123-2" data-name="Ellipse 123" cx="6" cy="6" r="6" transform="translate(1504 395)" fill="var(--my-gray-300)"/>
      <circle id="Ellipse_124-2" data-name="Ellipse 124" cx="6" cy="6" r="6" transform="translate(1472 367)" fill="var(--my-gray-300)"/>
      <circle id="Ellipse_125-2" data-name="Ellipse 125" cx="6" cy="6" r="6" transform="translate(1472 395)" fill="var(--my-gray-300)"/>
    </g>
    <circle id="Ellipse_126-2" data-name="Ellipse 126" cx="17" cy="17" r="17" transform="translate(1350 370)" fill="var(--my-gray-100)"/>
  </g>
  <g transform="matrix(1, 0, 0, 1, 0, 0)" filter="url(#Rectangle_426)">
    <rect id="Rectangle_426-2" data-name="Rectangle 426" width="47" height="35" rx="10" transform="translate(217 349)" fill="var(--my-gray-100)"/>
  </g>
  <g transform="matrix(1, 0, 0, 1, 0, 0)" filter="url(#Rectangle_427)">
    <rect id="Rectangle_427-2" data-name="Rectangle 427" width="47" height="35" rx="10" transform="translate(59 350)" fill="var(--my-gray-100)"/>
  </g>
  <g transform="matrix(1, 0, 0, 1, 0, 0)" filter="url(#Rectangle_421)">
    <rect id="Rectangle_421-2" data-name="Rectangle 421" width="304" height="77" rx="10" transform="translate(9 196)" fill="var(--my-gray-200)"/>
  </g>
  <g id="Group_265" data-name="Group 265" transform="translate(-1320 -152)">
    <g id="Group_262-3" data-name="Group 262">
      <circle id="Ellipse_116-3" data-name="Ellipse 116" cx="6" cy="6" r="6" transform="translate(1600 367)" fill="var(--my-gray-300)"/>
      <circle id="Ellipse_117-3" data-name="Ellipse 117" cx="6" cy="6" r="6" transform="translate(1600 395)" fill="var(--my-gray-300)"/>
      <circle id="Ellipse_118-3" data-name="Ellipse 118" cx="6" cy="6" r="6" transform="translate(1568 367)" fill="var(--my-gray-300)"/>
      <circle id="Ellipse_119-3" data-name="Ellipse 119" cx="6" cy="6" r="6" transform="translate(1568 395)" fill="var(--my-gray-300)"/>
      <circle id="Ellipse_120-3" data-name="Ellipse 120" cx="6" cy="6" r="6" transform="translate(1536 367)" fill="var(--my-gray-300)"/>
      <circle id="Ellipse_121-3" data-name="Ellipse 121" cx="6" cy="6" r="6" transform="translate(1536 395)" fill="var(--my-gray-300)"/>
      <circle id="Ellipse_122-3" data-name="Ellipse 122" cx="6" cy="6" r="6" transform="translate(1504 367)" fill="var(--my-gray-300)"/>
      <circle id="Ellipse_123-3" data-name="Ellipse 123" cx="6" cy="6" r="6" transform="translate(1504 395)" fill="var(--my-gray-300)"/>
      <circle id="Ellipse_124-3" data-name="Ellipse 124" cx="6" cy="6" r="6" transform="translate(1472 367)" fill="var(--my-gray-300)"/>
      <circle id="Ellipse_125-3" data-name="Ellipse 125" cx="6" cy="6" r="6" transform="translate(1472 395)" fill="var(--my-gray-300)"/>
    </g>
    <circle id="Ellipse_126-3" data-name="Ellipse 126" cx="17" cy="17" r="17" transform="translate(1350 370)" fill="var(--my-gray-100)"/>
  </g>
  <g transform="matrix(1, 0, 0, 1, 0, 0)" filter="url(#Rectangle_422)">
    <rect id="Rectangle_422-2" data-name="Rectangle 422" width="304" height="77" rx="10" transform="translate(9 291)" fill="var(--my-gray-200)"/>
  </g>
  <g id="Group_266" data-name="Group 266" transform="translate(-1320 -57)">
    <g id="Group_262-4" data-name="Group 262">
      <circle id="Ellipse_116-4" data-name="Ellipse 116" cx="6" cy="6" r="6" transform="translate(1600 367)" fill="var(--my-gray-300)"/>
      <circle id="Ellipse_117-4" data-name="Ellipse 117" cx="6" cy="6" r="6" transform="translate(1600 395)" fill="var(--my-gray-300)"/>
      <circle id="Ellipse_118-4" data-name="Ellipse 118" cx="6" cy="6" r="6" transform="translate(1568 367)" fill="var(--my-gray-300)"/>
      <circle id="Ellipse_119-4" data-name="Ellipse 119" cx="6" cy="6" r="6" transform="translate(1568 395)" fill="var(--my-gray-300)"/>
      <circle id="Ellipse_120-4" data-name="Ellipse 120" cx="6" cy="6" r="6" transform="translate(1536 367)" fill="var(--my-gray-300)"/>
      <circle id="Ellipse_121-4" data-name="Ellipse 121" cx="6" cy="6" r="6" transform="translate(1536 395)" fill="var(--my-gray-300)"/>
      <circle id="Ellipse_122-4" data-name="Ellipse 122" cx="6" cy="6" r="6" transform="translate(1504 367)" fill="var(--my-gray-300)"/>
      <circle id="Ellipse_123-4" data-name="Ellipse 123" cx="6" cy="6" r="6" transform="translate(1504 395)" fill="var(--my-gray-300)"/>
      <circle id="Ellipse_124-4" data-name="Ellipse 124" cx="6" cy="6" r="6" transform="translate(1472 367)" fill="var(--my-gray-300)"/>
      <circle id="Ellipse_125-4" data-name="Ellipse 125" cx="6" cy="6" r="6" transform="translate(1472 395)" fill="var(--my-gray-300)"/>
    </g>
    <circle id="Ellipse_126-4" data-name="Ellipse 126" cx="17" cy="17" r="17" transform="translate(1350 370)" fill="var(--my-gray-100)"/>
  </g>
</svg>
