<svg id="Group_339" data-name="Group 339" xmlns="http://www.w3.org/2000/svg" xmlns:xlink="http://www.w3.org/1999/xlink"  viewBox="0 0 468.656 542.636">
  <defs>
    <filter id="Rectangle_451" x="0" y="0" width="468.656" height="542.636" filterUnits="userSpaceOnUse">
      <feOffset dy="3" input="SourceAlpha"/>
      <feGaussianBlur stdDeviation="10" result="blur"/>
      <feFlood flood-opacity="0.161"/>
      <feComposite operator="in" in2="blur"/>
      <feComposite in="SourceGraphic"/>
    </filter>
  </defs>
  <g transform="matrix(1, 0, 0, 1, 0, 0)" filter="url(#Rectangle_451)">
    <path id="Rectangle_451-2" data-name="Rectangle 451" d="M57.874,69.582l369.64-41.336a11.006,11.006,0,0,1,4.312.347,9.557,9.557,0,0,1,3.515,1.873,8.916,8.916,0,0,1,2.355,3.1,9.389,9.389,0,0,1,.83,4.035L432.89,497.976a10.887,10.887,0,0,1-.976,4.43,10.117,10.117,0,0,1-6.292,5.476,11.1,11.1,0,0,1-4.535.382L37.693,463.129a6.891,6.891,0,0,1-2.965-1.094,8.632,8.632,0,0,1-2.34-2.3A10.55,10.55,0,0,1,30.9,456.56a11.5,11.5,0,0,1-.412-3.719L49.939,79.106a10.83,10.83,0,0,1,.762-3.447,10.953,10.953,0,0,1,1.743-2.938,9.532,9.532,0,0,1,2.474-2.128A7.479,7.479,0,0,1,57.874,69.582Z" fill="var(--my-gray-200)"/>
  </g>
  <g id="Line_195" data-name="Line 195" transform="translate(49.208 60.964)" fill="none">
    <path d="M.023,37.713,389.587.534" stroke="none"/>
    <path d="M 389.580322265625 1.067156672477722 L -6.866083276690915e-05 38.14930725097656 L 0.04534115269780159 37.2762336730957 L 389.59326171875 -3.336557711008936e-05 L 389.580322265625 1.067156672477722 Z" stroke="none" fill="var(--my-gray-300)"/>
  </g>
  <g id="Ellipse_131" data-name="Ellipse 131" transform="translate(60.66 79.81)" fill="#ec6b60">
    <path d="M3.808.36a2.72,2.72,0,0,1,2.359.9,3.306,3.306,0,0,1,.671,1.181,4.171,4.171,0,0,1,.192,1.512,4.873,4.873,0,0,1-.347,1.568,4.923,4.923,0,0,1-.8,1.333,4.286,4.286,0,0,1-1.131.958,3.377,3.377,0,0,1-1.346.445,2.72,2.72,0,0,1-2.353-.913A3.312,3.312,0,0,1,.39,6.168,4.175,4.175,0,0,1,.2,4.66,4.874,4.874,0,0,1,.546,3.1a4.924,4.924,0,0,1,.793-1.329A4.292,4.292,0,0,1,2.465.81,3.385,3.385,0,0,1,3.808.36Z" stroke="none"/>
    <path d="M 3.426334857940674 7.909646034240723 C 3.855376482009888 7.866335391998291 4.269716262817383 7.72398567199707 4.651500701904297 7.503716468811035 C 5.033435344696045 7.283359050750732 5.382744789123535 6.985048294067383 5.681545257568359 6.629961490631104 C 5.980422496795654 6.274782657623291 6.228722095489502 5.862854480743408 6.408556461334229 5.415414333343506 C 6.588406085968018 4.967932224273682 6.699746608734131 4.485013008117676 6.724714756011963 3.987940549850464 C 6.749679565429688 3.490918636322021 6.685957431793213 3.026175737380981 6.549466609954834 2.611490964889526 C 6.413012504577637 2.196918964385986 6.203846454620361 1.832438111305237 5.937901020050049 1.535764813423157 C 5.672058582305908 1.23920738697052 5.349504470825195 1.010432720184326 4.986146926879883 0.8670943975448608 C 4.622959136962891 0.7238230109214783 4.219025135040283 0.6659154295921326 3.790209770202637 0.7109776735305786 C 3.36160683631897 0.7560175657272339 2.948075532913208 0.8997321724891663 2.567342042922974 1.120882391929626 C 2.186758041381836 1.341946125030518 1.838900804519653 1.640411257743835 1.541471600532532 1.995101571083069 C 1.244119048118591 2.349700212478638 0.9971235990524292 2.760548114776611 0.8181806206703186 3.206526517868042 C 0.6392544507980347 3.652463674545288 0.5283359885215759 4.133604049682617 0.5031444430351257 4.628875732421875 C 0.4779502749443054 5.124197483062744 0.5408437848091125 5.587572574615479 0.6760937571525574 6.001350879669189 C 0.8113800883293152 6.415240287780762 1.019081473350525 6.779565811157227 1.283475875854492 7.076610088348389 C 1.547974109649658 7.373773097991943 1.86923611164093 7.603629112243652 2.231520175933838 7.748404502868652 C 2.593973636627197 7.893248081207275 2.997505664825439 7.952935695648193 3.426334857940674 7.909646034240723 M 3.408571004867554 8.261072158813477 C 2.937151432037354 8.308566093444824 2.493884801864624 8.243213653564453 2.095955371856689 8.084442138671875 C 1.698229908943176 7.925752639770508 1.345772385597229 7.673730373382568 1.055718421936035 7.347744464874268 C 0.7657890319824219 7.02189826965332 0.5381782054901123 6.622117519378662 0.389998197555542 6.167697429656982 C 0.2418621331453323 5.713411808013916 0.1730863302946091 5.204447269439697 0.2007948309183121 4.660023212432861 C 0.2285002321004868 4.115658760070801 0.3500521779060364 3.587257385253906 0.5461590886116028 3.097758531570435 C 0.742286205291748 2.608209609985352 1.013022303581238 2.157474756240845 1.339104652404785 1.768549203872681 C 1.665279030799866 1.379513263702393 2.046885013580322 1.052257776260376 2.464653253555298 0.8098463416099548 C 2.882601976394653 0.5673305988311768 3.336799383163452 0.4097004532814026 3.80794620513916 0.36009481549263 C 4.279349327087402 0.3104621767997742 4.72310209274292 0.373666524887085 5.121917724609375 0.5305442810058594 C 5.520937442779541 0.6875025629997253 5.874951839447021 0.9382216334342957 6.166625022888184 1.263480544090271 C 6.458422660827637 1.588879466056824 6.687794208526611 1.988847494125366 6.837380409240723 2.444090604782104 C 6.987010955810547 2.899468421936035 7.056784152984619 3.41008186340332 7.029351711273193 3.956557989120483 C 7.00191593170166 4.50309419631958 6.879857540130615 5.03364086151123 6.682638168334961 5.525002479553223 C 6.485439300537109 6.016314029693604 6.213134765625 6.468349933624268 5.885215759277344 6.857973098754883 C 5.557390213012695 7.247485160827637 5.174035549163818 7.574555397033691 4.754638671875 7.81611442565918 C 4.335421085357666 8.057568550109863 3.880247592926025 8.213552474975586 3.408571004867554 8.261072158813477 Z" stroke="none" fill="rgba(0,0,0,0.1)"/>
  </g>
  <g id="Ellipse_132" data-name="Ellipse 132" transform="translate(72.075 78.6)" fill="#f4be4f">
    <path d="M3.847.365A2.827,2.827,0,0,1,5.178.535a2.8,2.8,0,0,1,1.06.737A3.325,3.325,0,0,1,6.92,2.46a4.172,4.172,0,0,1,.2,1.522,4.874,4.874,0,0,1-.349,1.579A4.942,4.942,0,0,1,5.962,6.9a4.331,4.331,0,0,1-1.144.965,3.436,3.436,0,0,1-1.363.449A2.769,2.769,0,0,1,1.068,7.4,3.331,3.331,0,0,1,.392,6.212,4.176,4.176,0,0,1,.2,4.7,4.874,4.874,0,0,1,.545,3.123a4.944,4.944,0,0,1,.8-1.338A4.337,4.337,0,0,1,2.486.818,3.444,3.444,0,0,1,3.847.365Z" stroke="none"/>
    <path d="M 3.471316814422607 7.963459968566895 C 3.906058788299561 7.91957426071167 4.325751304626465 7.776017665863037 4.712332725524902 7.554059028625488 C 5.099067687988281 7.332013130187988 5.452619552612305 7.031530380249023 5.754897117614746 6.673938274383545 C 6.057253360748291 6.316253185272217 6.308264255523682 5.901485919952393 6.489835262298584 5.451023578643799 C 6.671421051025391 5.000519275665283 6.783522129058838 4.514395713806152 6.808065891265869 4.01408863067627 C 6.832606315612793 3.513832569122314 6.767316341400146 3.046127557754517 6.628353595733643 2.628856182098389 C 6.489428997039795 2.211699724197388 6.276891708374023 1.845010757446289 6.006914138793945 1.546608686447144 C 5.737042427062988 1.248324275016785 5.409801006317139 1.018301725387573 5.041338443756104 0.8742973804473877 C 4.673049449920654 0.7303608059883118 4.263598442077637 0.6723687648773193 3.829089879989624 0.718029260635376 C 3.394798278808594 0.7636670470237732 2.975932836532593 0.9086049795150757 2.59042501449585 1.131454348564148 C 2.205069065093994 1.354215979576111 1.852998733520508 1.65485417842865 1.552119016647339 2.012043476104736 C 1.251317620277405 2.369140148162842 1.001634955406189 2.782812356948853 0.8209714889526367 3.231792449951172 C 0.6403251886367798 3.680731058120728 0.5286523103713989 4.16505241394043 0.5038776993751526 4.663535118103027 C 0.4791004955768585 5.162068367004395 0.5435438752174377 5.62838888168335 0.6812386512756348 6.044741630554199 C 0.8189707398414612 6.461208343505859 1.030014395713806 6.827741622924805 1.298409700393677 7.126520156860352 C 1.566910982131958 7.425417900085449 1.892836332321167 7.656538486480713 2.260205507278442 7.801999092102051 C 2.627747535705566 7.94752836227417 3.036791563034058 8.007325172424316 3.471316814422607 7.963459968566895 M 3.453850746154785 8.317170143127441 C 2.976169109344482 8.36529541015625 2.526848554611206 8.299824714660645 2.123332977294922 8.140300750732422 C 1.720025539398193 7.980859279632568 1.362452626228333 7.727451801300049 1.06800901889801 7.399560928344727 C 0.7736927270889282 7.071813106536865 0.5424191951751709 6.669610023498535 0.3915590643882751 6.212360858917236 C 0.2407439202070236 5.755248069763184 0.1702702790498734 5.243049621582031 0.1975207924842834 4.695095062255859 C 0.2247682362794876 4.147202014923096 0.3471449613571167 3.61530876159668 0.5451358556747437 3.122515678405762 C 0.7431471347808838 2.629672288894653 1.016827583312988 2.175839424133301 1.346691250801086 1.784174561500549 C 1.67664909362793 1.39239776134491 2.06287670135498 1.062759280204773 2.485882759094238 0.8184854984283447 C 2.909072875976562 0.5741059184074402 3.369128942489624 0.4151329100131989 3.846528768539429 0.3648688793182373 C 4.324190616607666 0.3145773112773895 4.774003505706787 0.3778711259365082 5.178420543670654 0.5354759097099304 C 5.583045482635498 0.6931620836257935 5.942204475402832 0.9452478885650635 6.238298892974854 1.272400856018066 C 6.534520626068115 1.599695563316345 6.767590522766113 2.002086877822876 6.919886112213135 2.460168600082397 C 7.072227954864502 2.918387174606323 7.143721580505371 3.432255506515503 7.116756439208984 3.982288122177124 C 7.089787006378174 4.532382011413574 6.966896533966064 5.066449165344238 6.767773628234863 5.561130046844482 C 6.568671703338623 6.055759429931641 6.293393135070801 6.510912418365479 5.961657047271729 6.903285026550293 C 5.630015850067139 7.295546054840088 5.242003440856934 7.624996662139893 4.817334651947021 7.868409156799316 C 4.392848968505859 8.111712455749512 3.931793928146362 8.269020080566406 3.453850746154785 8.317170143127441 Z" stroke="none" fill="rgba(0,0,0,0.1)"/>
  </g>
  <g id="Ellipse_133" data-name="Ellipse 133" transform="translate(83.641 77.373)" fill="#61c454">
    <path d="M3.886.37a2.885,2.885,0,0,1,1.35.171,2.841,2.841,0,0,1,1.075.741A3.345,3.345,0,0,1,7,2.476a4.174,4.174,0,0,1,.2,1.532A4.874,4.874,0,0,1,6.854,5.6,4.962,4.962,0,0,1,6.04,6.949a4.377,4.377,0,0,1-1.158.972A3.5,3.5,0,0,1,3.5,8.374,2.881,2.881,0,0,1,2.151,8.2,2.844,2.844,0,0,1,1.08,7.452,3.35,3.35,0,0,1,.393,6.258a4.177,4.177,0,0,1-.2-1.527,4.874,4.874,0,0,1,.35-1.583A4.964,4.964,0,0,1,1.354,1.8,4.383,4.383,0,0,1,2.507.827,3.5,3.5,0,0,1,3.886.37Z" stroke="none"/>
    <path d="M 3.517098665237427 8.018028259277344 C 3.95765495300293 7.973555088043213 4.382806777954102 7.828773021697998 4.774279594421387 7.605101585388184 C 5.165908813476562 7.381340026855469 5.523786067962646 7.078653335571289 5.829607486724854 6.718521118164062 C 6.135509014129639 6.358294010162354 6.389282703399658 5.940648078918457 6.572619438171387 5.487123012542725 C 6.755972385406494 5.033554553985596 6.868843555450439 4.54418420791626 6.89294958114624 4.040600299835205 C 6.917052745819092 3.537067651748657 6.850157260894775 3.066362142562866 6.708670139312744 2.646472930908203 C 6.567220687866211 2.226699113845825 6.351239681243896 1.857775211334229 6.077146530151367 1.557624697685242 C 5.803161144256592 1.257593393325806 5.471135139465332 1.026310205459595 5.097464084625244 0.8816348314285278 C 4.723970413208008 0.7370278835296631 4.308889865875244 0.6789544224739075 3.868575096130371 0.7252251505851746 C 3.428480386734009 0.7714726328849792 3.004174947738647 0.9176539182662964 2.61379861831665 1.142228245735168 C 2.223577499389648 1.366713404655457 1.867211937904358 1.669556260108948 1.562816381454468 2.029279947280884 C 1.258500218391418 2.388909339904785 1.006080627441406 2.805444478988647 0.8236666321754456 3.257467746734619 C 0.6412700414657593 3.709447860717773 0.5288325548171997 4.19699239730835 0.5044882297515869 4.698728084564209 C 0.480141282081604 5.200515270233154 0.546170175075531 5.66981840133667 0.686363160610199 6.088778972625732 C 0.8265944123268127 6.507853507995605 1.041050910949707 6.876620769500732 1.313530564308167 7.177154541015625 C 1.586118578910828 7.477807998657227 1.916803002357483 7.710204601287842 2.289361238479614 7.856357097625732 C 2.662096261978149 8.00257682800293 3.07676362991333 8.062479972839355 3.517098665237427 8.018028259277344 M 3.499939918518066 8.374053001403809 C 3.015871286392212 8.422821998596191 2.560373544692993 8.357234954833984 2.151158094406128 8.196953773498535 C 1.742154836654663 8.036754608154297 1.379361152648926 7.781946659088135 1.0804363489151 7.452130794525146 C 0.7816419005393982 7.122457504272461 0.5466278195381165 6.71780252456665 0.3930292129516602 6.257688999176025 C 0.2394766807556152 5.797713756561279 0.1672659516334534 5.282239437103271 0.1940438002347946 4.730709552764893 C 0.2208185940980911 4.179241180419922 0.3440313935279846 3.64380955696106 0.5439391136169434 3.147678136825562 C 0.7438675165176392 2.651495218276978 1.020547032356262 2.194522380828857 1.354264259338379 1.800079345703125 C 1.688077092170715 1.40552282333374 2.079016447067261 1.073466897010803 2.507362842559814 0.8273025155067444 C 2.9358971118927 0.5810308456420898 3.401928424835205 0.4206930994987488 3.885706424713135 0.3697574734687805 C 4.369751453399658 0.3187938034534454 4.825747966766357 0.3821738958358765 5.235880374908447 0.5405111908912659 C 5.646225452423096 0.6989307999610901 6.010635375976562 0.9523975849151611 6.311242580413818 1.281466245651245 C 6.611980438232422 1.610678315162659 6.848828792572021 2.015522480010986 7.00389289855957 2.476478099822998 C 7.159004211425781 2.937572717666626 7.232258319854736 3.454737901687622 7.205774784088135 4.008373737335205 C 7.179286956787109 4.562071323394775 7.055553436279297 5.099706172943115 6.854493618011475 5.597751140594482 C 6.653455257415771 6.095744132995605 6.375147819519043 6.554056644439697 6.039520740509033 6.949217796325684 C 5.703991413116455 7.344265937805176 5.311230659484863 7.676132678985596 4.881186485290527 7.921425342559814 C 4.451328754425049 8.166607856750488 3.984275817871094 8.325258255004883 3.499939918518066 8.374053001403809 Z" stroke="none" fill="rgba(0,0,0,0.1)"/>
  </g>
  <g id="Group_322" data-name="Group 322" transform="translate(58.419 120.51)">
    <path id="Rectangle_452" data-name="Rectangle 452" d="M3.9,1.867,23.658.288a2.976,2.976,0,0,1,2.492.993,3.535,3.535,0,0,1,.714,1.239,4.291,4.291,0,0,1,.211,1.57,4.911,4.911,0,0,1-1.19,2.975,4.313,4.313,0,0,1-1.187.964,3.519,3.519,0,0,1-1.417.427L3.512,9.945a2.9,2.9,0,0,1-1.353-.214A2.957,2.957,0,0,1,1.084,8.95,3.5,3.5,0,0,1,.4,7.725,4.291,4.291,0,0,1,.2,6.177,4.9,4.9,0,0,1,1.361,3.246a4.242,4.242,0,0,1,1.157-.953A3.423,3.423,0,0,1,3.9,1.867Z" transform="translate(23.056 0)" fill="#690"/>
    <path id="Ellipse_134" data-name="Ellipse 134" d="M3.822.274A2.792,2.792,0,0,1,5.141.481a2.87,2.87,0,0,1,1.048.768,3.458,3.458,0,0,1,.673,1.21,4.284,4.284,0,0,1,.192,1.533A4.874,4.874,0,0,1,6.7,5.568a4.815,4.815,0,0,1-.8,1.326,4.148,4.148,0,0,1-1.134.938,3.3,3.3,0,0,1-1.351.414A2.79,2.79,0,0,1,2.1,8.034a2.873,2.873,0,0,1-1.043-.772,3.463,3.463,0,0,1-.667-1.21A4.287,4.287,0,0,1,.2,4.524,4.875,4.875,0,0,1,.549,2.955a4.817,4.817,0,0,1,.8-1.322A4.154,4.154,0,0,1,2.475.694,3.3,3.3,0,0,1,3.822.274Z" transform="translate(0 3.443)" fill="var(--my-gray-300)"/>
  </g>
  <g id="Group_323" data-name="Group 323" transform="translate(57.517 136.954)">
    <path id="Rectangle_457" data-name="Rectangle 457" d="M3.953,2.458l31.54-2.2a3.122,3.122,0,0,1,2.57,1.035A3.648,3.648,0,0,1,38.8,2.562a4.344,4.344,0,0,1,.222,1.6,4.907,4.907,0,0,1-1.217,3.018,4.354,4.354,0,0,1-1.22.97,3.621,3.621,0,0,1-1.458.421L3.57,10.627a2.982,2.982,0,0,1-1.376-.23A3.056,3.056,0,0,1,1.1,9.6,3.593,3.593,0,0,1,.4,8.349,4.34,4.34,0,0,1,.193,6.781a4.884,4.884,0,0,1,1.18-2.954,4.238,4.238,0,0,1,1.175-.952A3.46,3.46,0,0,1,3.953,2.458Z" transform="translate(36.444)" fill="#e56b6f"/>
    <path id="Ellipse_135" data-name="Ellipse 135" d="M3.828.24a2.8,2.8,0,0,1,1.32.221A2.916,2.916,0,0,1,6.2,1.243a3.52,3.52,0,0,1,.673,1.223,4.33,4.33,0,0,1,.192,1.542,4.875,4.875,0,0,1-.349,1.579,4.773,4.773,0,0,1-.8,1.323,4.094,4.094,0,0,1-1.136.931,3.268,3.268,0,0,1-1.352.4,2.8,2.8,0,0,1-1.318-.228,2.92,2.92,0,0,1-1.045-.786A3.526,3.526,0,0,1,.393,6.006,4.333,4.333,0,0,1,.2,4.469,4.875,4.875,0,0,1,.551,2.9a4.775,4.775,0,0,1,.8-1.319A4.1,4.1,0,0,1,2.479.646,3.274,3.274,0,0,1,3.828.24Z" transform="translate(0 4.768)" fill="var(--my-gray-300)"/>
  </g>
  <g id="Group_326" data-name="Group 326" transform="translate(54.698 188.402)">
    <path id="Rectangle_458" data-name="Rectangle 458" d="M4.037,6.862,181.436.168a4.149,4.149,0,0,1,1.718.3,4.069,4.069,0,0,1,1.387.931,4.232,4.232,0,0,1,.915,1.425,4.554,4.554,0,0,1,.3,1.777,4.885,4.885,0,0,1-.4,1.8,5.013,5.013,0,0,1-.993,1.494,4.838,4.838,0,0,1-1.44,1.033,4.465,4.465,0,0,1-1.738.418L3.661,15.212a3.119,3.119,0,0,1-1.412-.281,3.288,3.288,0,0,1-1.123-.855,3.837,3.837,0,0,1-.724-1.3,4.494,4.494,0,0,1-.214-1.612A4.878,4.878,0,0,1,.55,9.533,4.728,4.728,0,0,1,1.393,8.18a4.137,4.137,0,0,1,1.2-.936A3.463,3.463,0,0,1,4.037,6.862Z" transform="translate(55.075)" fill="#e56b6f"/>
    <path id="Ellipse_136" data-name="Ellipse 136" d="M3.847.13A2.839,2.839,0,0,1,5.172.4a3.068,3.068,0,0,1,1.053.827A3.721,3.721,0,0,1,6.9,2.484a4.475,4.475,0,0,1,.192,1.568A4.876,4.876,0,0,1,6.742,5.64a4.641,4.641,0,0,1-.805,1.314A3.93,3.93,0,0,1,4.8,7.859a3.179,3.179,0,0,1-1.358.363,2.839,2.839,0,0,1-1.324-.274,3.072,3.072,0,0,1-1.048-.83A3.727,3.727,0,0,1,.4,5.859,4.478,4.478,0,0,1,.206,4.3a4.877,4.877,0,0,1,.35-1.581,4.643,4.643,0,0,1,.8-1.31A3.936,3.936,0,0,1,2.492.5,3.184,3.184,0,0,1,3.847.13Z" transform="translate(0 8.817)" fill="var(--my-gray-300)"/>
  </g>
  <g id="Group_324" data-name="Group 324" transform="translate(56.566 155.129)">
    <path id="Rectangle_459" data-name="Rectangle 459" d="M3.976,3.083,52.469.224a3.277,3.277,0,0,1,1.467.245A3.315,3.315,0,0,1,55.11,1.3a3.762,3.762,0,0,1,.762,1.3A4.4,4.4,0,0,1,56.1,4.23a4.9,4.9,0,0,1-1.24,3.055,4.379,4.379,0,0,1-1.249.973,3.7,3.7,0,0,1-1.5.413L3.595,11.305a3.019,3.019,0,0,1-1.386-.247,3.126,3.126,0,0,1-1.1-.818A3.671,3.671,0,0,1,.4,8.977,4.391,4.391,0,0,1,.192,7.4,4.877,4.877,0,0,1,.548,5.783a4.8,4.8,0,0,1,.83-1.349,4.2,4.2,0,0,1,1.183-.946A3.453,3.453,0,0,1,3.976,3.083Z" transform="translate(41.265)" fill="#0377aa"/>
    <path id="Ellipse_137" data-name="Ellipse 137" d="M3.835.2A2.814,2.814,0,0,1,5.156.44a2.966,2.966,0,0,1,1.05.8,3.587,3.587,0,0,1,.674,1.235,4.378,4.378,0,0,1,.192,1.55A4.875,4.875,0,0,1,6.723,5.6a4.728,4.728,0,0,1-.8,1.32,4.038,4.038,0,0,1-1.138.922,3.237,3.237,0,0,1-1.354.389,2.812,2.812,0,0,1-1.32-.243,2.97,2.97,0,0,1-1.046-.8A3.593,3.593,0,0,1,.394,5.957,4.381,4.381,0,0,1,.2,4.411,4.876,4.876,0,0,1,.552,2.836a4.73,4.73,0,0,1,.8-1.316A4.044,4.044,0,0,1,2.483.6,3.243,3.243,0,0,1,3.835.2Z" transform="translate(0 5.32)" fill="var(--my-gray-300)"/>
  </g>
  <g id="Group_329" data-name="Group 329" transform="translate(51.895 251.119)">
    <path id="Rectangle_453" data-name="Rectangle 453" d="M4.121.909,156.309.026a4.164,4.164,0,0,1,1.713.354,4.235,4.235,0,0,1,1.382.985,4.461,4.461,0,0,1,.911,1.468,4.72,4.72,0,0,1,.3,1.8,4.873,4.873,0,0,1-1.391,3.283,4.62,4.62,0,0,1-1.437,1,4.322,4.322,0,0,1-1.734.366l-152.3.161A3.268,3.268,0,0,1,2.3,9.108,3.537,3.537,0,0,1,1.152,8.2,4.1,4.1,0,0,1,.408,6.844,4.653,4.653,0,0,1,.185,5.187,4.881,4.881,0,0,1,.552,3.529a4.623,4.623,0,0,1,.862-1.357,4.039,4.039,0,0,1,1.231-.919A3.472,3.472,0,0,1,4.121.909Z" transform="translate(73.425 0)" fill="#9e9e9e"/>
    <path id="Ellipse_140" data-name="Ellipse 140" d="M3.865.02a2.886,2.886,0,0,1,1.33.314,3.23,3.23,0,0,1,1.057.871A3.93,3.93,0,0,1,6.93,2.5,4.623,4.623,0,0,1,7.122,4.1a4.878,4.878,0,0,1-.353,1.6A4.513,4.513,0,0,1,5.96,7a3.774,3.774,0,0,1-1.146.88A3.1,3.1,0,0,1,3.451,8.2a2.886,2.886,0,0,1-1.329-.32A3.235,3.235,0,0,1,1.07,7.008,3.936,3.936,0,0,1,.4,5.711a4.625,4.625,0,0,1-.19-1.589,4.878,4.878,0,0,1,.351-1.59,4.516,4.516,0,0,1,.8-1.3A3.78,3.78,0,0,1,2.5.349,3.1,3.1,0,0,1,3.865.02Z" transform="translate(0 1.317)" fill="var(--my-gray-300)"/>
  </g>
  <g id="Group_328" data-name="Group 328" transform="translate(52.818 229.26)">
    <path id="Rectangle_455" data-name="Rectangle 455" d="M4.387,2.61,159.456.078a4.67,4.67,0,0,1,1.856.347,4.581,4.581,0,0,1,2.5,2.515,4.7,4.7,0,0,1,.342,1.865,4.89,4.89,0,0,1-.414,1.877,5.044,5.044,0,0,1-2.6,2.59,4.854,4.854,0,0,1-1.872.4L4.073,11.471a3.679,3.679,0,0,1-1.575-.33,3.812,3.812,0,0,1-1.26-.934,4.2,4.2,0,0,1-.821-1.4A4.632,4.632,0,0,1,.158,7.1,4.883,4.883,0,0,1,.539,5.37a4.783,4.783,0,0,1,.921-1.418,4.382,4.382,0,0,1,1.327-.968A3.914,3.914,0,0,1,4.387,2.61Z" transform="translate(149.56 0)" fill="#0377aa"/>
    <path id="Ellipse_141" data-name="Ellipse 141" d="M3.859.056a2.869,2.869,0,0,1,1.328.3,3.175,3.175,0,0,1,1.056.857A3.86,3.86,0,0,1,6.92,2.5a4.574,4.574,0,0,1,.193,1.586A4.877,4.877,0,0,1,6.76,5.677a4.555,4.555,0,0,1-.808,1.308,3.824,3.824,0,0,1-1.144.888,3.125,3.125,0,0,1-1.362.336A2.87,2.87,0,0,1,2.12,7.9a3.18,3.18,0,0,1-1.051-.86A3.866,3.866,0,0,1,.4,5.76a4.576,4.576,0,0,1-.19-1.58A4.877,4.877,0,0,1,.558,2.592a4.557,4.557,0,0,1,.8-1.3A3.83,3.83,0,0,1,2.5.4,3.129,3.129,0,0,1,3.859.056Z" transform="translate(0 5.004)" fill="var(--my-gray-300)"/>
    <path id="Rectangle_475" data-name="Rectangle 475" d="M4.088,1.2,73.679.066a3.6,3.6,0,0,1,1.552.32,3.744,3.744,0,0,1,1.245.922,4.159,4.159,0,0,1,.813,1.386,4.625,4.625,0,0,1,.255,1.71,4.882,4.882,0,0,1-.38,1.72,4.76,4.76,0,0,1-.915,1.412,4.322,4.322,0,0,1-1.315.959,3.829,3.829,0,0,1-1.579.364L3.716,9.667a3.209,3.209,0,0,1-1.434-.316,3.446,3.446,0,0,1-1.141-.892A4.006,4.006,0,0,1,.406,7.125,4.6,4.6,0,0,1,.187,5.484,4.88,4.88,0,0,1,.551,3.836a4.655,4.655,0,0,1,.854-1.355,4.066,4.066,0,0,1,1.22-.924A3.46,3.46,0,0,1,4.088,1.2Z" transform="translate(65.876 2.779)" fill="#dd4a68"/>
  </g>
  <g id="Group_325" data-name="Group 325" transform="translate(55.657 169.806)">
    <path id="Rectangle_456" data-name="Rectangle 456" d="M4.01,2.032,41.992.185a3.277,3.277,0,0,1,1.465.261,3.358,3.358,0,0,1,1.172.849,3.826,3.826,0,0,1,.76,1.308A4.449,4.449,0,0,1,45.62,4.24a4.879,4.879,0,0,1-.368,1.665,4.824,4.824,0,0,1-.872,1.385,4.313,4.313,0,0,1-1.247.963,3.66,3.66,0,0,1-1.493.4L3.633,10.322a3.074,3.074,0,0,1-1.4-.264,3.209,3.209,0,0,1-1.114-.837A3.754,3.754,0,0,1,.4,7.941a4.441,4.441,0,0,1-.211-1.6A4.878,4.878,0,0,1,.549,4.72a4.765,4.765,0,0,1,.837-1.352,4.173,4.173,0,0,1,1.194-.942A3.464,3.464,0,0,1,4.01,2.032Z" transform="translate(49.34 4.274)" fill="#0377aa"/>
    <path id="Ellipse_138" data-name="Ellipse 138" d="M3.84.167A2.826,2.826,0,0,1,5.164.419a3.015,3.015,0,0,1,1.052.811A3.652,3.652,0,0,1,6.89,2.478a4.425,4.425,0,0,1,.192,1.559,4.876,4.876,0,0,1-.35,1.585,4.686,4.686,0,0,1-.8,1.317,3.985,3.985,0,0,1-1.139.914,3.208,3.208,0,0,1-1.356.376,2.824,2.824,0,0,1-1.322-.258,3.019,3.019,0,0,1-1.047-.815,3.658,3.658,0,0,1-.67-1.247A4.428,4.428,0,0,1,.2,4.355,4.876,4.876,0,0,1,.554,2.777a4.688,4.688,0,0,1,.8-1.313A3.991,3.991,0,0,1,2.487.549,3.214,3.214,0,0,1,3.84.167Z" transform="translate(0 8.545)" fill="var(--my-gray-300)"/>
    <path id="Rectangle_460" data-name="Rectangle 460" d="M4.209,3.547,72.984.2A3.776,3.776,0,0,1,74.6.473a3.736,3.736,0,0,1,1.3.887,4.016,4.016,0,0,1,.851,1.369,4.477,4.477,0,0,1,.273,1.715,4.882,4.882,0,0,1-.385,1.746,4.967,4.967,0,0,1-.943,1.454A4.663,4.663,0,0,1,74.33,8.654a4.154,4.154,0,0,1-1.637.421L3.869,12.1a3.378,3.378,0,0,1-1.494-.27,3.439,3.439,0,0,1-1.193-.862,3.87,3.87,0,0,1-.773-1.32A4.457,4.457,0,0,1,.172,8,4.888,4.888,0,0,1,1.424,4.93a4.391,4.391,0,0,1,1.265-.974A3.767,3.767,0,0,1,4.209,3.547Z" transform="translate(105.869)" fill="#9e9e9e"/>
  </g>
  <g id="Group_327" data-name="Group 327" transform="translate(53.783 207.869)">
    <path id="Ellipse_139" data-name="Ellipse 139" d="M3.853.094A2.853,2.853,0,0,1,5.179.377a3.119,3.119,0,0,1,1.054.841A3.788,3.788,0,0,1,6.91,2.491,4.523,4.523,0,0,1,7.1,4.067a4.877,4.877,0,0,1-.352,1.591,4.6,4.6,0,0,1-.806,1.311,3.878,3.878,0,0,1-1.143.9,3.152,3.152,0,0,1-1.36.35,2.853,2.853,0,0,1-1.325-.289,3.124,3.124,0,0,1-1.05-.845A3.794,3.794,0,0,1,.4,5.811a4.526,4.526,0,0,1-.19-1.571,4.877,4.877,0,0,1,.35-1.584,4.6,4.6,0,0,1,.8-1.307A3.884,3.884,0,0,1,2.5.45,3.157,3.157,0,0,1,3.853.094Z" transform="translate(0 7.386)" fill="var(--my-gray-300)"/>
    <path id="Rectangle_461" data-name="Rectangle 461" d="M4.06,5.835,213.023.126a4.4,4.4,0,0,1,1.786.32,4.315,4.315,0,0,1,1.445.967,4.4,4.4,0,0,1,.957,1.467,4.625,4.625,0,0,1,.322,1.821,4.887,4.887,0,0,1-.406,1.84A5.026,5.026,0,0,1,216.1,8.058,4.93,4.93,0,0,1,214.609,9.1a4.659,4.659,0,0,1-1.8.41L3.687,14.239a3.161,3.161,0,0,1-1.422-.3,3.363,3.363,0,0,1-1.131-.873A3.918,3.918,0,0,1,.4,11.752a4.545,4.545,0,0,1-.216-1.626A4.879,4.879,0,0,1,.55,8.487,4.692,4.692,0,0,1,1.4,7.134,4.1,4.1,0,0,1,2.61,6.2,3.46,3.46,0,0,1,4.06,5.835Z" transform="translate(60.041 0)" fill="#9e9e9e"/>
  </g>
  <g id="Group_330" data-name="Group 330" transform="translate(50.922 271.552)">
    <path id="Ellipse_142" data-name="Ellipse 142" d="M3.871.018A2.9,2.9,0,0,1,5.2.348a3.288,3.288,0,0,1,1.058.887A4,4,0,0,1,6.94,2.547a4.675,4.675,0,0,1,.193,1.6,4.878,4.878,0,0,1-.354,1.6,4.469,4.469,0,0,1-.81,1.3,3.721,3.721,0,0,1-1.147.871,3.074,3.074,0,0,1-1.365.31A2.905,2.905,0,0,1,2.126,7.9a3.294,3.294,0,0,1-1.054-.89A4.011,4.011,0,0,1,.4,5.7a4.677,4.677,0,0,1-.19-1.6A4.878,4.878,0,0,1,.561,2.5a4.472,4.472,0,0,1,.806-1.3A3.727,3.727,0,0,1,2.509.333,3.078,3.078,0,0,1,3.871.018Z" transform="translate(0)" fill="var(--my-gray-300)"/>
    <path id="Rectangle_462" data-name="Rectangle 462" d="M4.107.02l37.326.2a3.462,3.462,0,0,1,1.5.351,3.734,3.734,0,0,1,1.2.942A4.244,4.244,0,0,1,44.925,2.9a4.72,4.72,0,0,1,.24,1.7,4.882,4.882,0,0,1-.375,1.7A4.621,4.621,0,0,1,43.9,7.683a4.094,4.094,0,0,1-1.28.924,3.606,3.606,0,0,1-1.533.328L3.734,8.559a3.257,3.257,0,0,1-1.441-.35,3.575,3.575,0,0,1-1.146-.926A4.162,4.162,0,0,1,.408,5.92a4.705,4.705,0,0,1-.22-1.661A4.881,4.881,0,0,1,.554,2.6a4.569,4.569,0,0,1,.858-1.349A3.963,3.963,0,0,1,2.638.347,3.414,3.414,0,0,1,4.107.02Z" transform="translate(67.715 0.358)" fill="#690"/>
  </g>
  <g id="Group_331" data-name="Group 331" transform="translate(49.993 289.788)">
    <path id="Ellipse_143" data-name="Ellipse 143" d="M3.877.055A2.922,2.922,0,0,1,5.211.4a3.346,3.346,0,0,1,1.059.9,4.077,4.077,0,0,1,.679,1.325,4.725,4.725,0,0,1,.193,1.612,4.878,4.878,0,0,1-.354,1.6,4.428,4.428,0,0,1-.811,1.3A3.672,3.672,0,0,1,4.828,8a3.05,3.05,0,0,1-1.367.3,2.924,2.924,0,0,1-1.332-.352,3.352,3.352,0,0,1-1.055-.905A4.083,4.083,0,0,1,.4,5.719,4.727,4.727,0,0,1,.21,4.112a4.879,4.879,0,0,1,.353-1.6,4.431,4.431,0,0,1,.807-1.295A3.678,3.678,0,0,1,2.513.357,3.054,3.054,0,0,1,3.877.055Z" transform="translate(0)" fill="var(--my-gray-300)"/>
    <path id="Rectangle_463" data-name="Rectangle 463" d="M4.088.059,80.694,1.278a3.667,3.667,0,0,1,1.561.375,3.945,3.945,0,0,1,1.252.976,4.4,4.4,0,0,1,.817,1.432A4.789,4.789,0,0,1,84.581,5.8,4.883,4.883,0,0,1,84.2,7.533a4.623,4.623,0,0,1-.921,1.4,4.157,4.157,0,0,1-1.323.93,3.752,3.752,0,0,1-1.588.318L3.708,8.595a3.238,3.238,0,0,1-1.43-.365,3.605,3.605,0,0,1-1.138-.938A4.221,4.221,0,0,1,.408,5.921,4.754,4.754,0,0,1,.191,4.257,4.881,4.881,0,0,1,.556,2.6a4.515,4.515,0,0,1,.854-1.34A3.885,3.885,0,0,1,2.629.371,3.351,3.351,0,0,1,4.088.059Z" transform="translate(60.375 0.96)" fill="#e56b6f"/>
    <path id="Rectangle_474" data-name="Rectangle 474" d="M4.414.065l84.827,1.35a4.28,4.28,0,0,1,1.737.4,4.434,4.434,0,0,1,1.4,1.029,4.663,4.663,0,0,1,.925,1.51,4.909,4.909,0,0,1-.1,3.66,4.771,4.771,0,0,1-1,1.476,4.54,4.54,0,0,1-1.456.978,4.324,4.324,0,0,1-1.758.333L4.1,9.039a3.753,3.753,0,0,1-1.584-.386,4.017,4.017,0,0,1-1.268-.988A4.442,4.442,0,0,1,.419,6.224,4.8,4.8,0,0,1,.16,4.475,4.885,4.885,0,0,1,.544,2.738,4.646,4.646,0,0,1,1.471,1.33,4.215,4.215,0,0,1,2.806.392,3.834,3.834,0,0,1,4.414.065Z" transform="translate(151.131 2.404)" fill="#9e9e9e"/>
  </g>
  <g id="Group_333" data-name="Group 333" transform="translate(48.076 327.381)">
    <path id="Ellipse_145" data-name="Ellipse 145" d="M3.89.131A2.964,2.964,0,0,1,5.227.509a3.468,3.468,0,0,1,1.062.933,4.23,4.23,0,0,1,.681,1.351,4.83,4.83,0,0,1,.193,1.631,4.879,4.879,0,0,1-.356,1.609,4.343,4.343,0,0,1-.814,1.292,3.573,3.573,0,0,1-1.152.845,3,3,0,0,1-1.371.269,2.966,2.966,0,0,1-1.336-.384,3.474,3.474,0,0,1-1.057-.936A4.236,4.236,0,0,1,.4,5.768,4.931,4.931,0,0,1,.565,2.541a4.346,4.346,0,0,1,.809-1.289A3.578,3.578,0,0,1,2.522.406,3.008,3.008,0,0,1,3.89.131Z" fill="var(--my-gray-300)"/>
    <path id="Rectangle_464" data-name="Rectangle 464" d="M4.01.137,41.771,1.566a3.346,3.346,0,0,1,1.455.4,3.783,3.783,0,0,1,1.162.974,4.4,4.4,0,0,1,.752,1.41A4.941,4.941,0,0,1,45,7.723a4.44,4.44,0,0,1-.871,1.346,3.816,3.816,0,0,1-1.243.879,3.359,3.359,0,0,1-1.486.278L3.611,8.612a3.145,3.145,0,0,1-1.392-.393,3.622,3.622,0,0,1-1.1-.956A4.317,4.317,0,0,1,.406,5.885,4.936,4.936,0,0,1,.562,2.593,4.392,4.392,0,0,1,1.4,1.278,3.693,3.693,0,0,1,2.588.416,3.174,3.174,0,0,1,4.01.137Z" transform="translate(34.538 1.306)" fill="#0377aa"/>
    <path id="Rectangle_472" data-name="Rectangle 472" d="M4.188.145,170.452,6.437a4.433,4.433,0,0,1,1.769.442,4.667,4.667,0,0,1,1.429,1.078,4.888,4.888,0,0,1,.944,1.555,4.971,4.971,0,0,1,.314,1.873,4.889,4.889,0,0,1-.407,1.845,4.7,4.7,0,0,1-1.021,1.478A4.478,4.478,0,0,1,172,15.67a4.356,4.356,0,0,1-1.789.3L3.822,8.866A3.419,3.419,0,0,1,2.347,8.46a3.846,3.846,0,0,1-1.175-.985A4.441,4.441,0,0,1,.413,6.056,4.944,4.944,0,0,1,.556,2.668a4.46,4.46,0,0,1,.876-1.351A3.864,3.864,0,0,1,2.685.43,3.426,3.426,0,0,1,4.188.145Z" transform="translate(84.788 3.207)" fill="#9e9e9e"/>
  </g>
  <g id="Group_332" data-name="Group 332" transform="translate(49.06 308.091)">
    <path id="Ellipse_144" data-name="Ellipse 144" d="M3.883.092A2.942,2.942,0,0,1,5.219.453a3.4,3.4,0,0,1,1.061.917,4.151,4.151,0,0,1,.68,1.337,4.776,4.776,0,0,1,.193,1.621A4.879,4.879,0,0,1,6.8,5.934a4.386,4.386,0,0,1-.813,1.3,3.623,3.623,0,0,1-1.151.854,3.028,3.028,0,0,1-1.369.283A2.944,2.944,0,0,1,2.131,8a3.411,3.411,0,0,1-1.056-.92A4.157,4.157,0,0,1,.4,5.743,4.778,4.778,0,0,1,.21,4.127a4.879,4.879,0,0,1,.353-1.6,4.389,4.389,0,0,1,.808-1.292A3.629,3.629,0,0,1,2.517.381,3.031,3.031,0,0,1,3.883.092Z" transform="translate(0 0)" fill="var(--my-gray-300)"/>
    <path id="Rectangle_465" data-name="Rectangle 465" d="M4.06.1,42.471,1.119a3.415,3.415,0,0,1,1.481.382,3.79,3.79,0,0,1,1.185.966,4.363,4.363,0,0,1,.769,1.408,4.819,4.819,0,0,1,.233,1.706,4.882,4.882,0,0,1-.373,1.689,4.509,4.509,0,0,1-.883,1.362,3.929,3.929,0,0,1-1.263.9,3.47,3.47,0,0,1-1.511.3L3.673,8.618a3.207,3.207,0,0,1-1.416-.38A3.625,3.625,0,0,1,1.131,7.29,4.274,4.274,0,0,1,.407,5.913,4.8,4.8,0,0,1,.195,4.25,4.881,4.881,0,0,1,.559,2.6a4.458,4.458,0,0,1,.847-1.33A3.8,3.8,0,0,1,2.614.394,3.278,3.278,0,0,1,4.06.1Z" transform="translate(50.63 1.345)" fill="#690"/>
    <path id="Rectangle_473" data-name="Rectangle 473" d="M4.273.1,136.342,3.615a4.348,4.348,0,0,1,1.751.418,4.541,4.541,0,0,1,1.414,1.052,4.769,4.769,0,0,1,.933,1.531,4.94,4.94,0,0,1-.1,3.687,4.733,4.733,0,0,1-1.012,1.476,4.506,4.506,0,0,1-1.467.97,4.334,4.334,0,0,1-1.772.317L3.926,8.915a3.539,3.539,0,0,1-1.516-.394A3.893,3.893,0,0,1,1.2,7.539,4.421,4.421,0,0,1,.415,6.115a4.831,4.831,0,0,1-.24-1.721,4.883,4.883,0,0,1,.376-1.7,4.542,4.542,0,0,1,.9-1.374A4.01,4.01,0,0,1,2.731.409,3.586,3.586,0,0,1,4.273.1Z" transform="translate(110.411 2.934)" fill="#690"/>
  </g>
  <g id="Group_334" data-name="Group 334" transform="translate(47.136 345.822)">
    <path id="Ellipse_146" data-name="Ellipse 146" d="M3.9.169A2.986,2.986,0,0,1,5.234.562,3.53,3.53,0,0,1,6.3,1.511a4.306,4.306,0,0,1,.681,1.364,4.957,4.957,0,0,1-.163,3.252A4.3,4.3,0,0,1,6,7.415a3.525,3.525,0,0,1-1.154.836,2.968,2.968,0,0,1-2.71-.144,3.537,3.537,0,0,1-1.059-.952A4.312,4.312,0,0,1,.4,5.793,4.957,4.957,0,0,1,.567,2.553a4.305,4.305,0,0,1,.81-1.285A3.531,3.531,0,0,1,2.526.43,2.987,2.987,0,0,1,3.9.169Z" transform="translate(0 0)" fill="var(--my-gray-300)"/>
    <path id="Rectangle_466" data-name="Rectangle 466" d="M4.217.187l40.319,1.96a3.708,3.708,0,0,1,1.558.429A4.128,4.128,0,0,1,47.342,3.6a4.64,4.64,0,0,1,.814,1.473,4.955,4.955,0,0,1,.253,1.768,4.885,4.885,0,0,1-.383,1.736,4.478,4.478,0,0,1-.921,1.385,3.972,3.972,0,0,1-1.321.9,3.645,3.645,0,0,1-1.585.269L3.853,8.972a3.478,3.478,0,0,1-1.487-.425A3.942,3.942,0,0,1,1.18,7.541,4.538,4.538,0,0,1,.414,6.1,4.973,4.973,0,0,1,.557,2.69a4.425,4.425,0,0,1,.882-1.352A3.834,3.834,0,0,1,2.7.459,3.435,3.435,0,0,1,4.217.187Z" transform="translate(90.866 4.415)" fill="#9e9e9e"/>
    <path id="Rectangle_471" data-name="Rectangle 471" d="M4.008.175,41.717,2.009a3.357,3.357,0,0,1,1.453.412,3.838,3.838,0,0,1,1.16.99,4.479,4.479,0,0,1,.751,1.422,4.969,4.969,0,0,1-.146,3.386,4.394,4.394,0,0,1-.871,1.34,3.757,3.757,0,0,1-1.242.868,3.325,3.325,0,0,1-1.484.263L3.606,8.671a3.156,3.156,0,0,1-1.39-.409,3.676,3.676,0,0,1-1.1-.971A4.39,4.39,0,0,1,.406,5.9,4.963,4.963,0,0,1,.564,2.6,4.347,4.347,0,0,1,1.4,1.293,3.636,3.636,0,0,1,2.588.44,3.14,3.14,0,0,1,4.008.175Z" transform="translate(32.182 1.564)" fill="#9e9e9e"/>
  </g>
  <g id="Group_335" data-name="Group 335" transform="translate(46.146 365.259)">
    <path id="Ellipse_147" data-name="Ellipse 147" d="M3.9.209a3.01,3.01,0,0,1,1.341.41,3.6,3.6,0,0,1,1.065.964A4.388,4.388,0,0,1,6.99,2.961,4.936,4.936,0,0,1,7.182,4.61a4.88,4.88,0,0,1-.357,1.615,4.259,4.259,0,0,1-.816,1.285,3.476,3.476,0,0,1-1.156.827,2.963,2.963,0,0,1-1.375.241A3.014,3.014,0,0,1,2.14,8.162a3.6,3.6,0,0,1-1.06-.968A4.394,4.394,0,0,1,.4,5.818a4.938,4.938,0,0,1-.19-1.643A4.88,4.88,0,0,1,.568,2.566,4.262,4.262,0,0,1,1.38,1.284,3.481,3.481,0,0,1,2.53.456,2.965,2.965,0,0,1,3.9.209Z" transform="translate(0 0)" fill="var(--my-gray-300)"/>
    <path id="Rectangle_467" data-name="Rectangle 467" d="M4.023.217,132.932,7.951a3.931,3.931,0,0,1,1.616.458,4.365,4.365,0,0,1,1.3,1.064,4.822,4.822,0,0,1,.85,1.516,5.035,5.035,0,0,1,.269,1.81,4.887,4.887,0,0,1-.391,1.77,4.475,4.475,0,0,1-.949,1.4,4.032,4.032,0,0,1-1.366.9,3.8,3.8,0,0,1-1.642.256l-129-8.37a3.2,3.2,0,0,1-1.4-.427,3.756,3.756,0,0,1-1.107-.989A4.48,4.48,0,0,1,.408,5.937,4.957,4.957,0,0,1,.2,4.26,4.882,4.882,0,0,1,.565,2.619,4.307,4.307,0,0,1,1.4,1.312,3.593,3.593,0,0,1,2.6.468,3.13,3.13,0,0,1,4.023.217Z" transform="translate(34.633 2.076)" fill="#dd4a68"/>
  </g>
  <g id="Group_336" data-name="Group 336" transform="translate(45.198 383.84)">
    <path id="Ellipse_148" data-name="Ellipse 148" d="M3.908.247A3.035,3.035,0,0,1,5.25.673a3.662,3.662,0,0,1,1.066.98A4.467,4.467,0,0,1,7,3.044,4.989,4.989,0,0,1,7.192,4.7,4.88,4.88,0,0,1,6.835,6.32,4.218,4.218,0,0,1,6.017,7.6a3.43,3.43,0,0,1-1.157.818,2.944,2.944,0,0,1-1.376.228,3.039,3.039,0,0,1-1.341-.433,3.669,3.669,0,0,1-1.061-.983A4.473,4.473,0,0,1,.4,5.843,4.991,4.991,0,0,1,.213,4.19,4.881,4.881,0,0,1,.57,2.579,4.222,4.222,0,0,1,1.383,1.3,3.435,3.435,0,0,1,2.535.48,2.946,2.946,0,0,1,3.908.247Z" fill="var(--my-gray-300)"/>
    <path id="Rectangle_468" data-name="Rectangle 468" d="M4.076.261,111.837,7.9a3.911,3.911,0,0,1,1.6.475,4.4,4.4,0,0,1,1.288,1.078,4.887,4.887,0,0,1,.842,1.524,5.088,5.088,0,0,1,.266,1.813,4.887,4.887,0,0,1-.39,1.765,4.418,4.418,0,0,1-.944,1.395,3.95,3.95,0,0,1-1.357.885,3.73,3.73,0,0,1-1.63.238L3.68,8.9a3.292,3.292,0,0,1-1.419-.448A3.884,3.884,0,0,1,1.135,7.438,4.6,4.6,0,0,1,.41,6.008,5.019,5.019,0,0,1,.2,4.308,4.882,4.882,0,0,1,.565,2.652a4.281,4.281,0,0,1,.85-1.313A3.587,3.587,0,0,1,2.627.5,3.173,3.173,0,0,1,4.076.261Z" transform="translate(47.641 3.375)" fill="#9e9e9e"/>
  </g>
  <g id="Group_337" data-name="Group 337" transform="translate(44.2 403.425)">
    <path id="Ellipse_149" data-name="Ellipse 149" d="M3.915.287A3.062,3.062,0,0,1,5.259.731a3.732,3.732,0,0,1,1.067,1,4.552,4.552,0,0,1,.684,1.4A5.046,5.046,0,0,1,7.2,4.8a4.881,4.881,0,0,1-.358,1.621A4.176,4.176,0,0,1,6.026,7.7a3.382,3.382,0,0,1-1.159.809,2.925,2.925,0,0,1-1.378.213,3.066,3.066,0,0,1-1.343-.45,3.74,3.74,0,0,1-1.063-1A4.558,4.558,0,0,1,.4,5.868a5.047,5.047,0,0,1-.19-1.662A4.881,4.881,0,0,1,.571,2.592a4.179,4.179,0,0,1,.814-1.275A3.387,3.387,0,0,1,2.539.506,2.926,2.926,0,0,1,3.915.287Z" fill="var(--my-gray-300)"/>
    <path id="Path_626" data-name="Path 626" d="M4.083.3,220.5,18.128a4.655,4.655,0,0,1,1.8.533,5.079,5.079,0,0,1,1.458,1.169,5.32,5.32,0,0,1,.964,1.636,5.232,5.232,0,0,1,.322,1.934,4.893,4.893,0,0,1-.413,1.872,4.518,4.518,0,0,1-1.039,1.468,4.285,4.285,0,0,1-3.333,1.144L3.686,8.977A3.322,3.322,0,0,1,2.265,8.51,3.958,3.958,0,0,1,1.136,7.48,4.684,4.684,0,0,1,.411,6.035,5.077,5.077,0,0,1,.2,4.326a4.883,4.883,0,0,1,.367-1.66,4.238,4.238,0,0,1,.852-1.31A3.538,3.538,0,0,1,2.632.525,3.153,3.153,0,0,1,4.083.3Z" transform="translate(47.708 3.927)" fill="#690"/>
    <path id="Ellipse_150" data-name="Ellipse 150" d="M3.915.287A3.062,3.062,0,0,1,5.259.731a3.732,3.732,0,0,1,1.067,1,4.552,4.552,0,0,1,.684,1.4A5.046,5.046,0,0,1,7.2,4.8a4.881,4.881,0,0,1-.358,1.621A4.176,4.176,0,0,1,6.026,7.7a3.382,3.382,0,0,1-1.159.809,2.925,2.925,0,0,1-1.378.213,3.066,3.066,0,0,1-1.343-.45,3.74,3.74,0,0,1-1.063-1A4.558,4.558,0,0,1,.4,5.868a5.047,5.047,0,0,1-.19-1.662A4.881,4.881,0,0,1,.571,2.592a4.179,4.179,0,0,1,.814-1.275A3.387,3.387,0,0,1,2.539.506,2.926,2.926,0,0,1,3.915.287Z" fill="var(--my-gray-300)"/>
  </g>
  <g id="Group_338" data-name="Group 338" transform="translate(43.245 422.148)">
    <path id="Rectangle_469" data-name="Rectangle 469" d="M4.1.346,42.858,3.964a3.584,3.584,0,0,1,1.495.491,4.227,4.227,0,0,1,1.2,1.072,4.883,4.883,0,0,1,.775,1.5,5.161,5.161,0,0,1,.234,1.768,4.885,4.885,0,0,1-.378,1.71,4.245,4.245,0,0,1-.892,1.34,3.623,3.623,0,0,1-1.275.837,3.344,3.344,0,0,1-1.525.2L3.7,9.069a3.369,3.369,0,0,1-1.428-.485A4.046,4.046,0,0,1,1.142,7.534,4.778,4.778,0,0,1,.412,6.073,5.135,5.135,0,0,1,.2,4.35,4.883,4.883,0,0,1,.568,2.684a4.2,4.2,0,0,1,.856-1.308A3.5,3.5,0,0,1,2.643.553,3.151,3.151,0,0,1,4.1.346Z" transform="translate(51.053 4.763)" fill="#9e9e9e"/>
    <path id="Ellipse_151" data-name="Ellipse 151" d="M3.921.326a3.089,3.089,0,0,1,1.346.46A3.8,3.8,0,0,1,6.335,1.8,4.634,4.634,0,0,1,7.02,3.216a5.1,5.1,0,0,1,.193,1.677,4.881,4.881,0,0,1-.359,1.625,4.135,4.135,0,0,1-.82,1.275,3.337,3.337,0,0,1-1.161.8,2.907,2.907,0,0,1-1.38.2,3.094,3.094,0,0,1-1.344-.466A3.809,3.809,0,0,1,1.085,7.31,4.64,4.64,0,0,1,.405,5.893a5.1,5.1,0,0,1-.19-1.671A4.881,4.881,0,0,1,.573,2.6a4.139,4.139,0,0,1,.815-1.272,3.342,3.342,0,0,1,1.155-.8A2.909,2.909,0,0,1,3.921.326Z" transform="translate(0 0)" fill="var(--my-gray-300)"/>
  </g>
</svg>
