<svg xmlns="http://www.w3.org/2000/svg" width="80.536" height="48.353" viewBox="0 0 80.536 48.353"><g transform="translate(0 0)"><path d="M48.942,12.9h15.19v1.2h-13.8v9.043H63.309v1.2H50.335v9.928H64.29v1.2H48.942Zm16.551,0h1.614l7.152,9.928,7.31-9.928L91.512.287,75.176,23.87l8.418,11.6H81.917L74.259,24.913l-7.69,10.561H64.923L73.4,23.87Zm18.7,1.2V12.9h17.31v1.2H93.531V35.474H92.138V14.1Z" transform="translate(-29.939 -0.287)"/><path d="M.2,32.632H1.943l24,35.742L16.026,55.208,1.659,34.339,1.6,55.208H.2Z" transform="translate(-0.203 -20.021)"/><path d="M182.618,78.628a.5.5,0,1,0-.5-.5A.489.489,0,0,0,182.618,78.628Zm1.368-1.323a1.362,1.362,0,0,0,1.49,1.384,1.4,1.4,0,0,0,1.51-1.542V73.7h-.759v3.442c0,.543-.274.834-.759.834a.679.679,0,0,1-.738-.672Zm3.993-.044c.054.871.782,1.428,1.866,1.428,1.158,0,1.883-.584,1.883-1.515,0-.732-.413-1.137-1.416-1.37l-.538-.132c-.637-.148-.894-.348-.894-.7,0-.439.4-.726,1-.726a.933.933,0,0,1,1.033.729h.738a1.593,1.593,0,0,0-1.761-1.4c-1.067,0-1.778.577-1.778,1.444,0,.715.4,1.141,1.287,1.347l.63.152c.647.152.931.375.931.746,0,.432-.447.746-1.057.746-.654,0-1.107-.294-1.172-.756Z" transform="translate(-111.191 -45.005)"/></g></svg>