<svg xmlns="http://www.w3.org/2000/svg" width="61.842" height="45.899" viewBox="0 0 61.842 45.899"><g transform="translate(-997.085 -862.668)"><path d="M459.72,170.692l-2.12,3.672L450.347,161.8l-22.262,38.555h15.073a3.672,3.672,0,0,0,3.672,3.672H428.085a3.672,3.672,0,0,1-3.179-5.508l22.262-38.555a3.672,3.672,0,0,1,6.36,0Z" transform="translate(572.671 704.537)" fill="#00c58e"/><path d="M578.053,267.047,564.1,242.889l-2.12-3.672-2.121,3.672-13.949,24.158a3.672,3.672,0,0,0,3.179,5.508h25.777a3.672,3.672,0,0,0,3.181-5.508Zm-28.961,1.836,12.89-22.322,12.887,22.322Z" transform="translate(470.408 636.011)" fill="#2f495e"/><path d="M678.375,243.651a3.671,3.671,0,0,1-3.179,1.836h-9.978a3.672,3.672,0,0,0,3.672-3.672h6.3l-17.873-30.956-2.864,4.962-2.12-3.672,1.805-3.126a3.672,3.672,0,0,1,6.36,0l17.879,30.956a3.672,3.672,0,0,1,0,3.672Z" transform="translate(380.06 663.079)" fill="#108775"/></g></svg>