<svg xmlns="http://www.w3.org/2000/svg" viewBox="0 0 63.442 47.086">
  <g id="Group_529" data-name="Group 529" transform="translate(-217 -830)">
    <path id="Path_26" data-name="Path 26" d="M460.633,171.016l-2.175,3.767-7.44-12.886L428.18,201.449h15.463a3.767,3.767,0,0,0,3.767,3.767H428.18a3.767,3.767,0,0,1-3.262-5.65l22.838-39.552a3.767,3.767,0,0,1,6.525,0Z" transform="translate(-207.414 671.869)" fill="var(--my-icon-gray)"/>
    <path id="Path_27" data-name="Path 27" d="M578.9,267.767l-14.311-24.783-2.175-3.767-2.175,3.767-14.309,24.783a3.767,3.767,0,0,0,3.261,5.65H575.63a3.767,3.767,0,0,0,3.263-5.65Zm-29.709,1.883,13.223-22.9,13.22,22.9Z" transform="translate(-309.191 603.668)" fill="var(--my-icon-gray)"/>
    <path id="Path_28" data-name="Path 28" d="M679.048,244.594a3.766,3.766,0,0,1-3.261,1.883H665.55a3.767,3.767,0,0,0,3.767-3.767h6.462l-18.335-31.756-2.938,5.09-2.175-3.767,1.852-3.207a3.767,3.767,0,0,1,6.525,0l18.341,31.756a3.767,3.767,0,0,1,0,3.767Z" transform="translate(-399.111 630.608)" fill="var(--my-icon-gray)"/>
  </g>
</svg>
