<svg xmlns="http://www.w3.org/2000/svg" viewBox="0 0 166.627 32.573">
  <g id="Group_139" data-name="Group 139" transform="translate(-8.439 -16.137)">
    <g id="g20" transform="translate(52.538 16.273)">
      <path id="path6" d="M1531,98.462h-3.16V96.179c-.01-2.941,0-5.881-.03-8.822a5.122,5.122,0,0,0-4.017-4.845,5.281,5.281,0,0,0-6.24,5.024c-.01,3.439.01,6.878.02,10.317v.618h-3.07V80.21h3.04v1.007a7.493,7.493,0,0,1,3.25-1.734,8.3,8.3,0,0,1,10.108,7.1,3.266,3.266,0,0,0,.09.429C1531,90.816,1531,94.644,1531,98.462Z" transform="translate(-1408.47 -73.092)"/>
      <path id="path8" d="M453.921,96.5v9.111h-3.05c-.01-.13-.03-.259-.03-.389,0-5.3-.02-10.6.01-15.9a10.027,10.027,0,1,1,11.175,10.078,9.5,9.5,0,0,1-7.706-2.642,1.738,1.738,0,0,1-.229-.379C454.031,96.425,453.981,96.465,453.921,96.5Zm6.968-.11a6.973,6.973,0,1,0-6.958-6.948A6.947,6.947,0,0,0,460.889,96.395Z" transform="translate(-450.835 -73.178)"/>
      <path id="path10" d="M1087.324,93.323a6.87,6.87,0,0,0,7.357,2.632,6.787,6.787,0,0,0,4-2.861,6.94,6.94,0,0,0,1.116-4.825h3.05a9.926,9.926,0,0,1-6.918,10.537,10.056,10.056,0,0,1-7.975-18.342,9.919,9.919,0,0,1,12.3,1.984C1095.947,86.066,1091.651,89.685,1087.324,93.323Zm-1.3-2.941c3.1-2.6,6.111-5.134,9.151-7.7a6.769,6.769,0,0,0-7.167,1.565A6.988,6.988,0,0,0,1086.028,90.383Z" transform="translate(-1019.852 -73.008)"/>
      <path id="path12" d="M682.568,98.408h-3.08V96.524c-.159.13-.249.2-.329.269a10.073,10.073,0,1,1,3.4-7.706c.03,2.991.01,5.981.01,8.972Zm-17-9.181a6.959,6.959,0,1,0,6.978-6.958A6.971,6.971,0,0,0,665.572,89.227Z" transform="translate(-641.382 -73.028)"/>
      <path id="path14" d="M1295.3,89.248a10.038,10.038,0,1,1,10.008,10.068A10.068,10.068,0,0,1,1295.3,89.248Zm10.028,6.978a6.978,6.978,0,1,0-6.958-7A6.969,6.969,0,0,0,1305.328,96.226Z" transform="translate(-1211.12 -73.05)"/>
      <path id="path16" d="M873.8,24.558h1.764V17.5h3.09v7.058h4.605v3.08h-4.6V42.87h-3.07v-.6c0-4.685-.01-9.37.01-14.055,0-.449-.11-.628-.578-.578-.389.04-.787.01-1.216.01C873.8,26.611,873.8,25.624,873.8,24.558Z" transform="translate(-831.637 -17.5)"/>
      <path id="path18" d="M987.41,90.161a10.145,10.145,0,0,1,5.074-2.562c.678-.12,1.376-.13,2.113-.2v2.831c0,.349-.259.289-.459.289a6.548,6.548,0,0,0-4.1,1.455,6.709,6.709,0,0,0-2.691,5.373c-.03,2.622-.01,5.253-.01,7.875v.578H984.3V87.53h2.981V90.1C987.33,90.121,987.37,90.141,987.41,90.161Z" transform="translate(-931.122 -80.432)"/>
    </g>
    <path id="path4-6" d="M25.863,16.137c.939.169,1.895.279,2.817.507a16.294,16.294,0,0,1-.947,31.778c-.617.127-1.252.195-1.878.288H17.227q0-8.183.009-16.358a6.7,6.7,0,0,1,.093-1.091,7.443,7.443,0,1,1,4.238,7.934c-.11-.051-.22-.093-.381-.152,0,1.734-.009,3.409.017,5.083,0,.1.195.254.321.288a11.465,11.465,0,0,0,5.024.3A12.42,12.42,0,1,0,12.3,32.47q-.013,7.9,0,15.809a3.564,3.564,0,0,0,.034.423H8.439V31.193c.051-.33.11-.66.152-1A16.224,16.224,0,0,1,20.72,16.636c.914-.228,1.852-.338,2.774-.5h2.368Z" fill="#e6461a"/>
  </g>
</svg>
