<svg xmlns="http://www.w3.org/2000/svg" xmlns:xlink="http://www.w3.org/1999/xlink" width="51.675" height="50.598" viewBox="0 0 51.675 50.598"><defs><linearGradient id="a" x1="1" y1="0.389" x2="0" y2="0.381" gradientUnits="objectBoundingBox"><stop offset="0" stop-color="#366a96"/><stop offset="1" stop-color="#3679b0"/></linearGradient><linearGradient id="b" x1="1" y1="0.5" x2="-0.976" y2="0.5" gradientUnits="objectBoundingBox"><stop offset="0" stop-color="#ffc836"/><stop offset="1" stop-color="#ffe873"/></linearGradient></defs><g transform="translate(-723.438 -869.436)"><path d="M120.911,88.663c0-3.484.955-5.379,6.231-6.281a39.836,39.836,0,0,1,12.457,0c3.383.546,6.231,3.01,6.231,6.281v11.493a6.176,6.176,0,0,1-6.231,6.132H127.142a7.812,7.812,0,0,0-7.791,7.508v5.514h-4.283c-3.623,0-5.732-2.554-6.619-6.128a21.848,21.848,0,0,1,0-12.26,7.738,7.738,0,0,1,7.786-6.128h17.137V93.26H120.911v-4.6Z" transform="translate(615.866 787.544)" fill="url(#a)"/><path d="M140.737,120.516c0,3.484-3.092,5.248-6.231,6.128a21.525,21.525,0,0,1-12.457,0c-3.3-.938-6.231-2.856-6.231-6.128V109.024a6.253,6.253,0,0,1,6.231-6.132h12.457A7.878,7.878,0,0,0,142.3,95.23V89.869h4.671c3.628,0,5.336,2.635,6.231,6.128,1.246,4.851,1.3,8.479,0,12.26-1.26,3.673-2.608,6.128-6.231,6.128H128.28v1.534h12.457v4.6Z" transform="translate(620.958 792.47)" fill="url(#b)"/><path d="M117.744,86.485a2.336,2.336,0,1,1,2.336,2.3A2.316,2.316,0,0,1,117.744,86.485Zm14.016,38.3a2.336,2.336,0,1,1,2.336,2.3A2.318,2.318,0,0,1,131.761,124.79Z" transform="translate(622.148 788.959)" fill="#fff"/></g></svg>