<svg xmlns="http://www.w3.org/2000/svg" width="55.278" height="49.49" viewBox="0 0 55.278 49.49"><g transform="translate(-430.842 -1522.994)"><circle cx="4.842" cy="4.842" r="4.842" transform="translate(453.639 1542.849)" fill="#00d8ff"/><path d="M25.99,7.725a54.326,54.326,0,0,1,17.094,2.5c5.486,1.889,8.86,4.752,8.86,7.344,0,2.7-3.575,5.743-9.467,7.7A54.55,54.55,0,0,1,25.99,27.511c-6.327,0-12.318-.723-16.823-2.262C3.468,23.3.035,20.22.035,17.57c0-2.571,3.221-5.412,8.63-7.3A54.8,54.8,0,0,1,25.989,7.725Z" transform="translate(432.491 1530.121)" fill="none" stroke="#00d8ff" stroke-width="3.37" fill-rule="evenodd"/><path d="M13.125,18.033A54.327,54.327,0,0,1,23.831,4.475C28.208.665,32.374-.826,34.619.469c2.34,1.35,3.189,5.966,1.937,12.045a54.519,54.519,0,0,1-6.291,15.4C27.1,33.4,23.485,38.228,19.9,41.36c-4.534,3.964-8.918,5.4-11.214,4.074C6.46,44.15,5.608,39.94,6.677,34.312a54.822,54.822,0,0,1,6.447-16.279Z" transform="translate(436.785 1524.764)" fill="none" stroke="#00d8ff" stroke-width="3.37" fill-rule="evenodd"/><path d="M13.128,27.911a54.341,54.341,0,0,1-6.4-16.046C5.614,6.17,6.4,1.816,8.645.517c2.338-1.354,6.761.217,11.4,4.337A54.546,54.546,0,0,1,30.252,18c3.17,5.476,5.546,11.023,6.47,15.692,1.169,5.908.223,10.422-2.071,11.75-2.225,1.288-6.3-.076-10.64-3.812A54.8,54.8,0,0,1,13.128,27.91Z" transform="translate(436.791 1524.785)" fill="none" stroke="#00d8ff" stroke-width="3.37" fill-rule="evenodd"/></g></svg>