<svg xmlns="http://www.w3.org/2000/svg" viewBox="0 0 12 12">
  <path id="Icon_open-magnifying-glass" data-name="Icon open-magnifying-glass" d="M5.2-.03a5.2,5.2,0,0,0,0,10.406,5.142,5.142,0,0,0,2.468-.609,1.486,1.486,0,0,0,.193.193L9.35,11.446a1.516,1.516,0,1,0,2.141-2.141L10,7.819a1.487,1.487,0,0,0-.238-.193,5.133,5.133,0,0,0,.654-2.468,5.209,5.209,0,0,0-5.2-5.2Zm0,1.487A3.7,3.7,0,0,1,8.919,5.173,3.728,3.728,0,0,1,7.938,7.73l-.045.045a1.486,1.486,0,0,0-.193.193A3.72,3.72,0,0,1,5.188,8.9a3.716,3.716,0,0,1,0-7.433Z" transform="translate(0 0.045)" />
</svg>
