<svg viewBox="0 0 153 45" >
<path  d="M49.4972 10.593V8.81818H57.8594V10.593H54.7422V19H52.6143V10.593H49.4972ZM59.2365 19V8.81818H61.3892V13.0192H65.7592V8.81818H67.907V19H65.7592V14.794H61.3892V19H59.2365ZM69.6818 19V8.81818H76.5426V10.593H71.8345V13.0192H76.1896V14.794H71.8345V17.2251H76.5625V19H69.6818ZM81.4943 19V8.81818H83.647V13.0192H88.017V8.81818H90.1648V19H88.017V14.794H83.647V19H81.4943ZM93.6946 19H91.3878L94.9027 8.81818H97.6768L101.187 19H98.88L96.3295 11.1449H96.25L93.6946 19ZM93.5504 14.9979H98.9993V16.6783H93.5504V14.9979ZM102.412 19V8.81818H106.429C107.202 8.81818 107.859 8.96567 108.403 9.26065C108.947 9.55232 109.361 9.95833 109.646 10.4787C109.934 10.9957 110.078 11.5923 110.078 12.2685C110.078 12.9446 109.933 13.5412 109.641 14.0582C109.349 14.5753 108.927 14.978 108.373 15.2663C107.823 15.5547 107.157 15.6989 106.375 15.6989H103.814V13.9737H106.027C106.441 13.9737 106.782 13.9025 107.051 13.7599C107.323 13.6141 107.525 13.4136 107.657 13.1584C107.793 12.8999 107.861 12.6032 107.861 12.2685C107.861 11.9304 107.793 11.6354 107.657 11.3835C107.525 11.1283 107.323 10.9311 107.051 10.7919C106.779 10.6494 106.434 10.5781 106.017 10.5781H104.565V19H102.412ZM111.477 19V8.81818H115.494C116.266 8.81818 116.924 8.96567 117.468 9.26065C118.011 9.55232 118.425 9.95833 118.71 10.4787C118.999 10.9957 119.143 11.5923 119.143 12.2685C119.143 12.9446 118.997 13.5412 118.705 14.0582C118.414 14.5753 117.991 14.978 117.438 15.2663C116.887 15.5547 116.221 15.6989 115.439 15.6989H112.879V13.9737H115.091C115.505 13.9737 115.847 13.9025 116.115 13.7599C116.387 13.6141 116.589 13.4136 116.722 13.1584C116.858 12.8999 116.926 12.6032 116.926 12.2685C116.926 11.9304 116.858 11.6354 116.722 11.3835C116.589 11.1283 116.387 10.9311 116.115 10.7919C115.843 10.6494 115.499 10.5781 115.081 10.5781H113.629V19H111.477ZM119.945 8.81818H122.356L124.678 13.2031H124.777L127.099 8.81818H129.51L125.796 15.4006V19H123.658V15.4006L119.945 8.81818ZM49.8849 36V25.8182H53.902C54.6742 25.8182 55.3321 25.9657 55.8757 26.2607C56.4193 26.5523 56.8336 26.9583 57.1186 27.4787C57.407 27.9957 57.5511 28.5923 57.5511 29.2685C57.5511 29.9446 57.4053 30.5412 57.1136 31.0582C56.822 31.5753 56.3994 31.978 55.8459 32.2663C55.2957 32.5547 54.6295 32.6989 53.8473 32.6989H51.2869V30.9737H53.4993C53.9136 30.9737 54.255 30.9025 54.5234 30.7599C54.7952 30.6141 54.9974 30.4136 55.13 30.1584C55.2659 29.8999 55.3338 29.6032 55.3338 29.2685C55.3338 28.9304 55.2659 28.6354 55.13 28.3835C54.9974 28.1283 54.7952 27.9311 54.5234 27.7919C54.2517 27.6494 53.907 27.5781 53.4893 27.5781H52.0376V36H49.8849ZM58.9494 36V25.8182H62.9664C63.7354 25.8182 64.3916 25.9557 64.9352 26.2308C65.4821 26.5026 65.898 26.8887 66.1831 27.3892C66.4714 27.8864 66.6156 28.4714 66.6156 29.1442C66.6156 29.8203 66.4698 30.402 66.1781 30.8892C65.8864 31.3731 65.4638 31.7443 64.9103 32.0028C64.3601 32.2614 63.694 32.3906 62.9118 32.3906H60.2221V30.6605H62.5637C62.9747 30.6605 63.3161 30.6042 63.5879 30.4915C63.8597 30.3788 64.0618 30.2098 64.1944 29.9844C64.3303 29.759 64.3983 29.4789 64.3983 29.1442C64.3983 28.8061 64.3303 28.5211 64.1944 28.2891C64.0618 28.0571 63.858 27.8814 63.5829 27.7621C63.3111 27.6394 62.9681 27.5781 62.5538 27.5781H61.1021V36H58.9494ZM64.448 31.3665L66.9785 36H64.6021L62.1262 31.3665H64.448ZM77.4934 30.9091C77.4934 32.0194 77.283 32.964 76.862 33.7429C76.4444 34.5218 75.8743 35.1167 75.1518 35.5277C74.4326 35.9354 73.6239 36.1392 72.7257 36.1392C71.8208 36.1392 71.0088 35.9337 70.2896 35.5227C69.5704 35.1117 69.002 34.5168 68.5843 33.7379C68.1667 32.959 67.9579 32.0161 67.9579 30.9091C67.9579 29.7988 68.1667 28.8542 68.5843 28.0753C69.002 27.2964 69.5704 26.7031 70.2896 26.2955C71.0088 25.8845 71.8208 25.679 72.7257 25.679C73.6239 25.679 74.4326 25.8845 75.1518 26.2955C75.8743 26.7031 76.4444 27.2964 76.862 28.0753C77.283 28.8542 77.4934 29.7988 77.4934 30.9091ZM75.3109 30.9091C75.3109 30.1899 75.2032 29.5833 74.9877 29.0895C74.7756 28.5956 74.4757 28.2211 74.0879 27.9659C73.7001 27.7107 73.246 27.5831 72.7257 27.5831C72.2053 27.5831 71.7512 27.7107 71.3635 27.9659C70.9757 28.2211 70.6741 28.5956 70.4586 29.0895C70.2465 29.5833 70.1404 30.1899 70.1404 30.9091C70.1404 31.6283 70.2465 32.2348 70.4586 32.7287C70.6741 33.2225 70.9757 33.5971 71.3635 33.8523C71.7512 34.1075 72.2053 34.2351 72.7257 34.2351C73.246 34.2351 73.7001 34.1075 74.0879 33.8523C74.4757 33.5971 74.7756 33.2225 74.9877 32.7287C75.2032 32.2348 75.3109 31.6283 75.3109 30.9091ZM85.8395 29.1094C85.7699 28.8674 85.6721 28.6536 85.5462 28.468C85.4202 28.2791 85.2661 28.12 85.0838 27.9908C84.9048 27.8582 84.6993 27.7571 84.4673 27.6875C84.2386 27.6179 83.9851 27.5831 83.7067 27.5831C83.1863 27.5831 82.7289 27.7124 82.3345 27.9709C81.9434 28.2294 81.6385 28.6056 81.4197 29.0994C81.201 29.59 81.0916 30.1899 81.0916 30.8991C81.0916 31.6084 81.1993 32.2116 81.4148 32.7088C81.6302 33.206 81.9351 33.5855 82.3295 33.8473C82.724 34.1058 83.1896 34.2351 83.7266 34.2351C84.2138 34.2351 84.6297 34.1489 84.9744 33.9766C85.3224 33.8009 85.5876 33.554 85.7699 33.2358C85.9555 32.9176 86.0483 32.5414 86.0483 32.1072L86.4858 32.1719H83.8608V30.5511H88.1214V31.8338C88.1214 32.7287 87.9325 33.4976 87.5547 34.1406C87.1768 34.7803 86.6565 35.2741 85.9936 35.6222C85.3307 35.9669 84.5717 36.1392 83.7166 36.1392C82.7621 36.1392 81.9235 35.9287 81.201 35.5078C80.4785 35.0836 79.915 34.482 79.5107 33.7031C79.1096 32.9209 78.9091 31.9929 78.9091 30.919C78.9091 30.0937 79.0284 29.358 79.267 28.7116C79.509 28.062 79.8471 27.5118 80.2812 27.0611C80.7154 26.6103 81.2209 26.2673 81.7976 26.032C82.3743 25.7966 82.9991 25.679 83.6719 25.679C84.2486 25.679 84.7855 25.7635 85.2827 25.9325C85.7798 26.0982 86.2206 26.3336 86.6051 26.6385C86.9929 26.9434 87.3094 27.3063 87.5547 27.7273C87.8 28.1449 87.9574 28.6056 88.027 29.1094H85.8395ZM89.7385 36V25.8182H93.7555C94.5244 25.8182 95.1807 25.9557 95.7243 26.2308C96.2711 26.5026 96.6871 26.8887 96.9721 27.3892C97.2605 27.8864 97.4047 28.4714 97.4047 29.1442C97.4047 29.8203 97.2588 30.402 96.9672 30.8892C96.6755 31.3731 96.2529 31.7443 95.6994 32.0028C95.1492 32.2614 94.483 32.3906 93.7008 32.3906H91.0112V30.6605H93.3528C93.7638 30.6605 94.1052 30.6042 94.377 30.4915C94.6487 30.3788 94.8509 30.2098 94.9835 29.9844C95.1194 29.759 95.1873 29.4789 95.1873 29.1442C95.1873 28.8061 95.1194 28.5211 94.9835 28.2891C94.8509 28.0571 94.6471 27.8814 94.372 27.7621C94.1002 27.6394 93.7572 27.5781 93.3429 27.5781H91.8912V36H89.7385ZM95.237 31.3665L97.7676 36H95.3912L92.9153 31.3665H95.237ZM100.681 36H98.3741L101.889 25.8182H104.663L108.173 36H105.866L103.316 28.1449H103.236L100.681 36ZM100.537 31.9979H105.986V33.6783H100.537V31.9979ZM109.399 25.8182H112.053L114.857 32.6591H114.977L117.781 25.8182H120.436V36H118.347V29.3729H118.263L115.628 35.9503H114.206L111.571 29.348H111.487V36H109.399V25.8182ZM122.209 25.8182H124.864L127.668 32.6591H127.787L130.591 25.8182H133.246V36H131.158V29.3729H131.074L128.439 35.9503H127.017L124.382 29.348H124.297V36H122.209V25.8182ZM135.02 36V25.8182H141.881V27.593H137.172V30.0192H141.528V31.794H137.172V34.2251H141.9V36H135.02ZM143.592 36V25.8182H147.609C148.378 25.8182 149.034 25.9557 149.578 26.2308C150.125 26.5026 150.541 26.8887 150.826 27.3892C151.114 27.8864 151.258 28.4714 151.258 29.1442C151.258 29.8203 151.112 30.402 150.821 30.8892C150.529 31.3731 150.106 31.7443 149.553 32.0028C149.003 32.2614 148.337 32.3906 147.554 32.3906H144.865V30.6605H147.206C147.617 30.6605 147.959 30.6042 148.23 30.4915C148.502 30.3788 148.704 30.2098 148.837 29.9844C148.973 29.759 149.041 29.4789 149.041 29.1442C149.041 28.8061 148.973 28.5211 148.837 28.2891C148.704 28.0571 148.501 27.8814 148.225 27.7621C147.954 27.6394 147.611 27.5781 147.196 27.5781H145.745V36H143.592ZM149.091 31.3665L151.621 36H149.245L146.769 31.3665H149.091Z" />
<path d="M41.75 22.5C41.75 33.1315 33.1315 41.75 22.5 41.75C11.8685 41.75 3.25 33.1315 3.25 22.5C3.25 11.8685 11.8685 3.25 22.5 3.25C33.1315 3.25 41.75 11.8685 41.75 22.5Z" stroke-width="6.5" stroke="" fill="none" />
<path d="M22.238 10.2093L32.238 30.2093H12.238L22.238 10.2093Z" fill=""/>
</svg>
