<svg viewBox="0 0 151 37" fill="none" xmlns="http://www.w3.org/2000/svg">
<path d="M51.7705 6.2533V16.9174H49.1997V6.2533H51.7705ZM54.9785 6.2533V8.23816H46.0649V6.2533H54.9785ZM63.2549 10.4867V12.4642H57.7837V10.4867H63.2549ZM58.6406 6.2533V16.9174H56.0698V6.2533H58.6406ZM64.9834 6.2533V16.9174H62.4199V6.2533H64.9834ZM73.9556 14.9398V16.9174H68.272V14.9398H73.9556ZM69.1875 6.2533V16.9174H66.6167V6.2533H69.1875ZM73.2231 10.4867V12.3983H68.272V10.4867H73.2231ZM73.9775 6.2533V8.23816H68.272V6.2533H73.9775ZM85.9307 10.4867V12.4642H80.4595V10.4867H85.9307ZM81.3164 6.2533V16.9174H78.7456V6.2533H81.3164ZM87.6592 6.2533V16.9174H85.0957V6.2533H87.6592ZM93.9434 8.49451L91.3433 16.9174H88.582L92.5005 6.2533H94.251L93.9434 8.49451ZM96.0967 16.9174L93.4893 8.49451L93.1523 6.2533H94.9248L98.8652 16.9174H96.0967ZM95.9941 12.9403V14.9252H90.5229V12.9403H95.9941ZM103.904 13.2992H101.253V11.3143H103.904C104.266 11.3143 104.559 11.2533 104.783 11.1312C105.008 11.0092 105.171 10.8407 105.274 10.6259C105.381 10.4061 105.435 10.1595 105.435 9.88611C105.435 9.59314 105.381 9.32214 105.274 9.07312C105.171 8.8241 105.008 8.6239 104.783 8.47253C104.559 8.31628 104.266 8.23816 103.904 8.23816H102.22V16.9174H99.6489V6.2533H103.904C104.759 6.2533 105.494 6.40955 106.109 6.72205C106.729 7.03455 107.205 7.46423 107.537 8.01111C107.869 8.5531 108.035 9.17322 108.035 9.87146C108.035 10.5599 107.869 11.1605 107.537 11.6732C107.205 12.1859 106.729 12.5863 106.109 12.8744C105.494 13.1576 104.759 13.2992 103.904 13.2992ZM113.675 13.2992H111.023V11.3143H113.675C114.036 11.3143 114.329 11.2533 114.554 11.1312C114.778 11.0092 114.942 10.8407 115.044 10.6259C115.152 10.4061 115.206 10.1595 115.206 9.88611C115.206 9.59314 115.152 9.32214 115.044 9.07312C114.942 8.8241 114.778 8.6239 114.554 8.47253C114.329 8.31628 114.036 8.23816 113.675 8.23816H111.99V16.9174H109.419V6.2533H113.675C114.529 6.2533 115.264 6.40955 115.879 6.72205C116.5 7.03455 116.976 7.46423 117.308 8.01111C117.64 8.5531 117.806 9.17322 117.806 9.87146C117.806 10.5599 117.64 11.1605 117.308 11.6732C116.976 12.1859 116.5 12.5863 115.879 12.8744C115.264 13.1576 114.529 13.2992 113.675 13.2992ZM121.124 6.2533L123.086 10.8822L125.057 6.2533H127.825L124.397 13.0868V16.9174H121.783V13.0868L118.348 6.2533H121.124ZM50.8623 26.2992H48.2109V24.3143H50.8623C51.2236 24.3143 51.5166 24.2533 51.7412 24.1312C51.9658 24.0092 52.1294 23.8407 52.2319 23.6259C52.3394 23.4061 52.3931 23.1595 52.3931 22.8861C52.3931 22.5931 52.3394 22.3221 52.2319 22.0731C52.1294 21.8241 51.9658 21.6239 51.7412 21.4725C51.5166 21.3163 51.2236 21.2382 50.8623 21.2382H49.1777V29.9174H46.6069V19.2533H50.8623C51.7168 19.2533 52.4517 19.4095 53.0669 19.722C53.687 20.0345 54.1631 20.4642 54.4951 21.0111C54.8271 21.5531 54.9932 22.1732 54.9932 22.8715C54.9932 23.5599 54.8271 24.1605 54.4951 24.6732C54.1631 25.1859 53.687 25.5863 53.0669 25.8744C52.4517 26.1576 51.7168 26.2992 50.8623 26.2992ZM56.3774 19.2533H60.5742C61.3945 19.2533 62.1074 19.3754 62.7129 19.6195C63.3184 19.8636 63.7847 20.225 64.1118 20.7035C64.4438 21.182 64.6099 21.7728 64.6099 22.476C64.6099 23.0863 64.5146 23.5966 64.3242 24.0067C64.1338 24.4169 63.8677 24.7562 63.5259 25.0248C63.189 25.2885 62.7959 25.5057 62.3467 25.6766L61.5044 26.1527H57.9814L57.9668 24.1678H60.5742C60.9014 24.1678 61.1724 24.1093 61.3872 23.9921C61.6021 23.8749 61.7632 23.7089 61.8706 23.494C61.9829 23.2743 62.0391 23.0131 62.0391 22.7103C62.0391 22.4027 61.9829 22.139 61.8706 21.9193C61.7583 21.6996 61.5923 21.5311 61.3726 21.4139C61.1577 21.2968 60.8916 21.2382 60.5742 21.2382H58.9482V29.9174H56.3774V19.2533ZM62.2148 29.9174L59.8564 25.2006L62.5811 25.1859L64.9688 29.8075V29.9174H62.2148ZM75.186 24.3729V24.8051C75.186 25.6205 75.0713 26.3529 74.8418 27.0023C74.6172 27.6469 74.2974 28.1986 73.8823 28.6576C73.4673 29.1117 72.9766 29.4608 72.4102 29.705C71.8438 29.9442 71.2188 30.0638 70.5352 30.0638C69.8467 30.0638 69.2168 29.9442 68.6455 29.705C68.0791 29.4608 67.5859 29.1117 67.166 28.6576C66.751 28.1986 66.4287 27.6469 66.1992 27.0023C65.9746 26.3529 65.8623 25.6205 65.8623 24.8051V24.3729C65.8623 23.5575 65.9746 22.8251 66.1992 22.1757C66.4287 21.5262 66.7485 20.9745 67.1587 20.5204C67.5737 20.0614 68.0645 19.7123 68.6309 19.473C69.2021 19.2289 69.832 19.1068 70.5205 19.1068C71.2041 19.1068 71.8291 19.2289 72.3955 19.473C72.9668 19.7123 73.46 20.0614 73.875 20.5204C74.29 20.9745 74.6123 21.5262 74.8418 22.1757C75.0713 22.8251 75.186 23.5575 75.186 24.3729ZM72.5786 24.8051V24.3583C72.5786 23.8309 72.5322 23.3671 72.4395 22.9667C72.3516 22.5614 72.2197 22.222 72.0439 21.9486C71.8682 21.6752 71.6509 21.4701 71.3921 21.3334C71.1382 21.1918 70.8477 21.121 70.5205 21.121C70.1787 21.121 69.8809 21.1918 69.627 21.3334C69.373 21.4701 69.1606 21.6752 68.9897 21.9486C68.8188 22.222 68.6895 22.5614 68.6016 22.9667C68.5186 23.3671 68.4771 23.8309 68.4771 24.3583V24.8051C68.4771 25.3275 68.5186 25.7914 68.6016 26.1967C68.6895 26.597 68.8188 26.9364 68.9897 27.2147C69.1655 27.493 69.3804 27.703 69.6343 27.8446C69.8931 27.9862 70.1934 28.057 70.5352 28.057C70.8623 28.057 71.1528 27.9862 71.4067 27.8446C71.6606 27.703 71.873 27.493 72.0439 27.2147C72.2197 26.9364 72.3516 26.597 72.4395 26.1967C72.5322 25.7914 72.5786 25.3275 72.5786 24.8051ZM85.2422 24.2191V28.599C85.0615 28.7992 84.7832 29.014 84.4072 29.2435C84.0361 29.4681 83.5674 29.661 83.001 29.8221C82.4346 29.9833 81.7681 30.0638 81.0015 30.0638C80.2935 30.0638 79.6514 29.9515 79.0752 29.7269C78.499 29.4974 78.0034 29.163 77.5884 28.7235C77.1782 28.2792 76.8608 27.7372 76.6362 27.0975C76.4165 26.453 76.3066 25.7157 76.3066 24.8856V24.2924C76.3066 23.4623 76.4189 22.725 76.6436 22.0804C76.8682 21.4359 77.1831 20.8939 77.5884 20.4545C77.9985 20.0101 78.4795 19.6732 79.0312 19.4437C79.5879 19.2142 80.1982 19.0995 80.8623 19.0995C81.8438 19.0995 82.6421 19.2557 83.2573 19.5682C83.8726 19.8759 84.3389 20.3031 84.6562 20.85C84.9736 21.392 85.1665 22.0194 85.2349 22.7323H82.7666C82.7178 22.3807 82.625 22.0829 82.4883 21.8387C82.3564 21.5897 82.166 21.4017 81.917 21.2748C81.668 21.1429 81.3457 21.077 80.9502 21.077C80.6426 21.077 80.3618 21.1429 80.1079 21.2748C79.8589 21.4066 79.6465 21.6068 79.4707 21.8754C79.2949 22.139 79.1582 22.4711 79.0605 22.8715C78.9678 23.2719 78.9214 23.7406 78.9214 24.2777V24.8856C78.9214 25.4178 78.9653 25.8842 79.0532 26.2845C79.146 26.6849 79.2827 27.0194 79.4634 27.288C79.6489 27.5516 79.8833 27.7518 80.1665 27.8885C80.4546 28.0204 80.7939 28.0863 81.1846 28.0863C81.458 28.0863 81.6924 28.0643 81.8877 28.0204C82.083 27.9716 82.2441 27.913 82.3711 27.8446C82.5029 27.7714 82.603 27.703 82.6714 27.6395V25.9843H80.8843V24.2191H85.2422ZM86.7437 19.2533H90.9404C91.7607 19.2533 92.4736 19.3754 93.0791 19.6195C93.6846 19.8636 94.1509 20.225 94.478 20.7035C94.8101 21.182 94.9761 21.7728 94.9761 22.476C94.9761 23.0863 94.8809 23.5966 94.6904 24.0067C94.5 24.4169 94.2339 24.7562 93.8921 25.0248C93.5552 25.2885 93.1621 25.5057 92.7129 25.6766L91.8706 26.1527H88.3477L88.333 24.1678H90.9404C91.2676 24.1678 91.5386 24.1093 91.7534 23.9921C91.9683 23.8749 92.1294 23.7089 92.2368 23.494C92.3491 23.2743 92.4053 23.0131 92.4053 22.7103C92.4053 22.4027 92.3491 22.139 92.2368 21.9193C92.1245 21.6996 91.9585 21.5311 91.7388 21.4139C91.5239 21.2968 91.2578 21.2382 90.9404 21.2382H89.3145V29.9174H86.7437V19.2533ZM92.5811 29.9174L90.2227 25.2006L92.9473 25.1859L95.335 29.8075V29.9174H92.5811ZM101.048 21.4945L98.4478 29.9174H95.6865L99.605 19.2533H101.355L101.048 21.4945ZM103.201 29.9174L100.594 21.4945L100.257 19.2533H102.029L105.97 29.9174H103.201ZM103.099 25.9403V27.9252H97.6274V25.9403H103.099ZM108.028 19.2533H110.123L112.503 26.6727L114.883 19.2533H116.978L113.353 29.9174H111.653L108.028 19.2533ZM106.753 19.2533H108.921L109.324 27.4271V29.9174H106.753V19.2533ZM116.084 19.2533H118.26V29.9174H115.682V27.4271L116.084 19.2533ZM121.182 19.2533H123.277L125.657 26.6727L128.038 19.2533H130.132L126.507 29.9174H124.808L121.182 19.2533ZM119.908 19.2533H122.076L122.479 27.4271V29.9174H119.908V19.2533ZM129.239 19.2533H131.414V29.9174H128.836V27.4271L129.239 19.2533ZM140.401 27.9398V29.9174H134.717V27.9398H140.401ZM135.633 19.2533V29.9174H133.062V19.2533H135.633ZM139.668 23.4867V25.3983H134.717V23.4867H139.668ZM140.423 19.2533V21.2382H134.717V19.2533H140.423ZM141.456 19.2533H145.652C146.473 19.2533 147.186 19.3754 147.791 19.6195C148.396 19.8636 148.863 20.225 149.19 20.7035C149.522 21.182 149.688 21.7728 149.688 22.476C149.688 23.0863 149.593 23.5966 149.402 24.0067C149.212 24.4169 148.946 24.7562 148.604 25.0248C148.267 25.2885 147.874 25.5057 147.425 25.6766L146.583 26.1527H143.06L143.045 24.1678H145.652C145.979 24.1678 146.25 24.1093 146.465 23.9921C146.68 23.8749 146.841 23.7089 146.949 23.494C147.061 23.2743 147.117 23.0131 147.117 22.7103C147.117 22.4027 147.061 22.139 146.949 21.9193C146.836 21.6996 146.67 21.5311 146.451 21.4139C146.236 21.2968 145.97 21.2382 145.652 21.2382H144.026V29.9174H141.456V19.2533ZM147.293 29.9174L144.935 25.2006L147.659 25.1859L150.047 29.8075V29.9174H147.293Z" fill="var(--my-gray-50)" stroke="var(--my-gray-50)" stroke-width="0.21" />
<path d="M18.8392 33.7511C27.4591 33.7511 34.4469 26.9044 34.4469 18.4587C34.4469 10.0129 27.4591 3.16626 18.8392 3.16626C10.2193 3.16626 3.23145 10.0129 3.23145 18.4587C3.23145 26.9044 10.2193 33.7511 18.8392 33.7511Z" stroke="var(--my-gray-50)" fill="" stroke-width="6"/>
<path d="M18.8021 9.07538L26.9909 22.9964H10.6133L18.8021 9.07538Z" fill="var(--my-gray-50)" stroke="" stroke-width="0.1" />
</svg>
