<svg xmlns="http://www.w3.org/2000/svg" xmlns:xlink="http://www.w3.org/1999/xlink"  viewBox="0 0 65.793 59.044"><defs>
<clipPath id="a">
<rect width="65.793" height="59.044" fill="none"/>
</clipPath>
</defs>
<g clip-path="url(#a)">
<g transform="translate(-992.15 -1519.852)">
<path d="M65.719,18.009a18.412,18.412,0,0,0-.416-3.886A12.65,12.65,0,0,0,61.4,7.236a12.387,12.387,0,0,0-3.543-2.321A14.63,14.63,0,0,0,53.8,3.66c-1.392-.257-2.93-.257-4.321-.378H15.1a25.391,25.391,0,0,0-3.2.258A12.218,12.218,0,0,0,8.812,4.3l-.977.378A17.959,17.959,0,0,0,5.178,6.308c-.271.257-.56.378-.833.619A11.215,11.215,0,0,0,1.8,10.056a11.646,11.646,0,0,0-1.38,3.775A36.75,36.75,0,0,0,0,17.7V47.668a18.411,18.411,0,0,0,.416,3.886,12.65,12.65,0,0,0,3.906,6.888,12.4,12.4,0,0,0,3.489,2.252,14.63,14.63,0,0,0,4.05,1.254c1.392.257,2.93.257,4.321.378H49.557a25.174,25.174,0,0,0,4.321-.378,15,15,0,0,0,3.978-1.238,15.975,15.975,0,0,0,3.615-2.252,12.5,12.5,0,0,0,3.905-6.895,36.751,36.751,0,0,0,.416-3.886V18.02Z" transform="translate(992.15 1516.57)" fill="#f05138"/>
<path d="M43.728,48.822c-5.853,3.05-13.892,3.359-21.967.241A33.634,33.634,0,0,1,6.28,37.1a26.816,26.816,0,0,0,5.726,3.1c8.346,3.447,16.71,3.291,22.581,0A114.068,114.068,0,0,1,13.813,20.762a21.8,21.8,0,0,1-2.782-3.447A160.325,160.325,0,0,0,31.229,31.1,137.1,137.1,0,0,1,17.013,15.022,139.4,139.4,0,0,0,40.5,32.361l.9.482a15.679,15.679,0,0,0,.633-1.724c1.952-6.412-.271-13.7-5.148-19.734C48.174,17.537,54.859,29.1,52.075,38.79a2.5,2.5,0,0,1-.236.776l.09.1c5.582,6.291,4.047,12.943,3.342,11.686-3.053-5.256-8.707-3.638-11.543-2.535Z" transform="translate(991.93 1516.139)" fill="#fefefe"/>
</g>
</g></svg>