<svg xmlns="http://www.w3.org/2000/svg" xmlns:xlink="http://www.w3.org/1999/xlink" viewBox="0 0 23.511 21.099">
<defs>
<linearGradient id="a" x1="0.5" x2="0.5" y2="1" gradientUnits="objectBoundingBox">
<stop offset="0" stop-color="#0be5ed"/><stop offset="1" stop-color="#014ddd"/></linearGradient></defs><g transform="translate(-336 -454)"><path d="M23.484,8.545a6.579,6.579,0,0,0-.149-1.389,4.52,4.52,0,0,0-1.4-2.461,4.427,4.427,0,0,0-1.266-.829,5.228,5.228,0,0,0-1.447-.448c-.5-.092-1.047-.092-1.544-.135H5.394a9.073,9.073,0,0,0-1.144.092,4.366,4.366,0,0,0-1.1.27L2.8,3.78a6.418,6.418,0,0,0-.95.584c-.1.092-.2.135-.3.221A4.008,4.008,0,0,0,.642,5.7,4.161,4.161,0,0,0,.149,7.052,13.132,13.132,0,0,0,0,8.434V19.143a6.579,6.579,0,0,0,.149,1.389,4.52,4.52,0,0,0,1.4,2.461,4.43,4.43,0,0,0,1.247.8,5.228,5.228,0,0,0,1.447.448c.5.092,1.047.092,1.544.135H17.709a9,9,0,0,0,1.544-.135,5.359,5.359,0,0,0,1.422-.442,5.708,5.708,0,0,0,1.292-.8,4.465,4.465,0,0,0,1.4-2.464,13.132,13.132,0,0,0,.149-1.389V8.549Z" transform="translate(336 450.718)" fill="url(#a)"/><path d="M19.662,24.763a9.652,9.652,0,0,1-7.85.086A12.019,12.019,0,0,1,6.28,20.575a9.583,9.583,0,0,0,2.046,1.108,9.41,9.41,0,0,0,8.069,0,40.762,40.762,0,0,1-7.424-6.947A7.791,7.791,0,0,1,7.978,13.5,57.292,57.292,0,0,0,15.2,18.431a48.991,48.991,0,0,1-5.08-5.747,49.815,49.815,0,0,0,8.391,6.2l.323.172a5.6,5.6,0,0,0,.226-.616,7.824,7.824,0,0,0-1.84-7.052c4.035,2.2,6.423,6.331,5.429,9.793a.9.9,0,0,1-.084.277l.032.037c1.995,2.248,1.446,4.625,1.194,4.176-1.091-1.878-3.112-1.3-4.125-.906Z" transform="translate(331.6 444.783)"/></g></svg>