<svg xmlns="http://www.w3.org/2000/svg"  viewBox="0 0 64.002 57.437"><g transform="translate(0 -3.282)"><path d="M63.93,17.608a17.91,17.91,0,0,0-.4-3.78,12.306,12.306,0,0,0-3.8-6.7A12.05,12.05,0,0,0,56.278,4.87a14.232,14.232,0,0,0-3.94-1.22c-1.354-.25-2.85-.25-4.2-.368H14.685a24.7,24.7,0,0,0-3.113.251,11.885,11.885,0,0,0-3,.736l-.95.368A17.47,17.47,0,0,0,5.037,6.226c-.264.25-.545.368-.81.6a10.91,10.91,0,0,0-2.48,3.044A11.329,11.329,0,0,0,.405,13.544,35.749,35.749,0,0,0,0,17.307V46.46a17.91,17.91,0,0,0,.405,3.78,12.306,12.306,0,0,0,3.8,6.7A12.06,12.06,0,0,0,7.6,59.131a14.232,14.232,0,0,0,3.94,1.22c1.354.25,2.85.25,4.2.368H48.208a24.489,24.489,0,0,0,4.2-.368,14.59,14.59,0,0,0,3.87-1.2A15.54,15.54,0,0,0,59.8,56.956a12.155,12.155,0,0,0,3.8-6.707,35.75,35.75,0,0,0,.4-3.78V17.619Z" fill="var(--my-icon-gray)"/><path d="M42.737,47.713c-5.7,2.96-13.525,3.26-21.386.234A32.731,32.731,0,0,1,6.28,36.34a26.134,26.134,0,0,0,5.575,3.01c8.125,3.345,16.268,3.194,21.984,0A110.906,110.906,0,0,1,13.614,20.484a21.17,21.17,0,0,1-2.708-3.345,156.109,156.109,0,0,0,19.663,13.38,133.176,133.176,0,0,1-13.84-15.6A135.69,135.69,0,0,0,39.59,31.74l.88.468a15.181,15.181,0,0,0,.616-1.673c1.9-6.222-.264-13.3-5.012-19.15,10.992,5.97,17.5,17.193,14.79,26.593a2.423,2.423,0,0,1-.23.753l.088.1c5.434,6.1,3.94,12.56,3.254,11.34-2.972-5.1-8.477-3.53-11.238-2.46Z" fill="var(--my-gray-100)"/></g></svg>