<svg xmlns="http://www.w3.org/2000/svg" viewBox="0 0 122.319 76.257">
  <path id="tailwindcss-icon" d="M30.58,38.219Q36.695,12.8,61.16,12.8c24.464,0,27.522,19.064,39.754,22.242q12.233,3.178,21.406-9.532Q116.2,50.928,91.74,50.929c-24.464,0-27.522-19.064-39.754-22.242Q39.753,25.509,30.58,38.219ZM0,76.348Q6.115,50.93,30.58,50.929c24.464,0,27.522,19.064,39.754,22.242q12.233,3.178,21.406-9.532Q85.624,89.056,61.16,89.057c-24.464,0-27.522-19.064-39.754-22.242Q9.173,63.637,0,76.348Z" transform="translate(0 -12.8)" fill="var(--my-icon-gray)" fill-rule="evenodd"/>
</svg>
