<svg  viewBox="0 0 64 38.4">
  <defs>
    <linearGradient id="linear-gradient" y1="-0.889" x2="1" y2="1.889" gradientUnits="objectBoundingBox">
      <stop offset="0" stop-color="#2383ae"/>
      <stop offset="1" stop-color="#6dd7b9"/>
    </linearGradient>
  </defs>
  <path id="Path_628" data-name="Path 628" d="M16,25.6q3.2-12.8,16-12.8c12.8,0,14.4,9.6,20.8,11.2q6.4,1.6,11.2-4.8Q60.8,32,48,32c-12.8,0-14.4-9.6-20.8-11.2Q20.8,19.2,16,25.6ZM0,44.8Q3.2,32,16,32c12.8,0,14.4,9.6,20.8,11.2q6.4,1.6,11.2-4.8Q44.8,51.2,32,51.2c-12.8,0-14.4-9.6-20.8-11.2Q4.8,38.4,0,44.8Z" transform="translate(0 -12.8)" fill-rule="evenodd" fill="url(#linear-gradient)"/>
</svg>
