<svg viewBox="0 0 26 26" fill="none" xmlns="http://www.w3.org/2000/svg">
<path fill-rule="evenodd" clip-rule="evenodd" d="M13 26C20.1797 26 26 20.1797 26 13C26 5.8203 20.1797 0 13 0C5.8203 0 0 5.8203 0 13C0 20.1797 5.8203 26 13 26ZM6.29289 13.0049C6.68342 12.6144 7.31658 12.6144 7.70711 13.0049L10.665 15.9628L18.3349 8.29289C18.7254 7.90237 19.3586 7.90237 19.7491 8.29289C20.1396 8.68342 20.1396 9.31658 19.7491 9.70711L11.3721 18.0841C10.9816 18.4746 10.3484 18.4746 9.95789 18.0841L6.29289 14.4191C5.90237 14.0286 5.90237 13.3954 6.29289 13.0049Z" />
</svg>
