<svg xmlns="http://www.w3.org/2000/svg" xmlns:xlink="http://www.w3.org/1999/xlink" viewBox="0 0 88 68"><defs><filter id="a" x="0" y="0"   filterUnits="userSpaceOnUse"><feOffset dy="3" input="SourceAlpha"/><feGaussianBlur stdDeviation="3" result="b"/><feFlood flood-opacity="0.161"/><feComposite operator="in" in2="b"/><feComposite in="SourceGraphic"/></filter><filter id="c" x="0" y="25"   filterUnits="userSpaceOnUse"><feOffset dy="3" input="SourceAlpha"/><feGaussianBlur stdDeviation="3" result="d"/><feFlood flood-opacity="0.161"/><feComposite operator="in" in2="d"/><feComposite in="SourceGraphic"/></filter></defs><g transform="translate(-682.958 -181.762)"><g transform="translate(692 188)"><g transform="matrix(1, 0, 0, 1, -9.04, -6.24)" filter="url(#a)"><path d="M6,0H64a6,6,0,0,1,6,6V25a0,0,0,0,1,0,0H0a0,0,0,0,1,0,0V6A6,6,0,0,1,6,0Z" transform="translate(9 6)" fill="#5f8bc8"/></g><g transform="matrix(1, 0, 0, 1, -9.04, -6.24)" filter="url(#c)"><path d="M0,0H70a0,0,0,0,1,0,0V19a6,6,0,0,1-6,6H6a6,6,0,0,1-6-6V0A0,0,0,0,1,0,0Z" transform="translate(9 31)" fill="#f3dd36"/></g></g></g></svg>