<svg viewBox="0 0 20 20" fill="none" xmlns="http://www.w3.org/2000/svg">
<path d="M5.1625 0.991264C6.01497 0.345657 7.05565 -0.00255388 8.125 1.41024e-05C8.425 1.41024e-05 8.66375 0.156264 8.8025 0.263764C8.9575 0.386264 9.1025 0.542514 9.2325 0.698764C9.32468 0.810719 9.37505 0.951245 9.375 1.09626V5.62501H8.01875C7.87132 5.20801 7.58121 4.85654 7.1997 4.63274C6.81819 4.40895 6.36985 4.32722 5.93392 4.40202C5.49798 4.47681 5.10252 4.70331 4.81743 5.04148C4.53235 5.37964 4.37598 5.80771 4.37598 6.25001C4.37598 6.69232 4.53235 7.12038 4.81743 7.45855C5.10252 7.79672 5.49798 8.02322 5.93392 8.09801C6.36985 8.1728 6.81819 8.09108 7.1997 7.86728C7.58121 7.64348 7.87132 7.29202 8.01875 6.87501H9.375V18.6438C9.37506 18.7363 9.35457 18.8277 9.31502 18.9114C9.27546 18.995 9.21781 19.0688 9.14625 19.1275C8.56875 19.6 7.79625 20 6.875 20C5.3925 20 4.28875 19.2525 3.575 18.3588C3.0622 17.722 2.71097 16.9706 2.55125 16.1688C2.0656 16.0393 1.61531 15.8022 1.23375 15.475C0.54375 14.8838 0 13.925 0 12.5C0 11.8038 0.0462499 11.175 0.15 10.625H4.0625C4.8575 10.625 5.5125 11.2188 5.6125 11.9863C5.19681 12.1367 4.84764 12.4292 4.62665 12.8121C4.40566 13.1949 4.32706 13.6436 4.40472 14.0788C4.48239 14.514 4.71133 14.9077 5.05112 15.1905C5.39091 15.4733 5.8197 15.627 6.26176 15.6243C6.70383 15.6217 7.13075 15.4629 7.46714 15.1761C7.80352 14.8893 8.02774 14.4928 8.1002 14.0567C8.17266 13.6206 8.0887 13.1729 7.86315 12.7927C7.6376 12.4125 7.28496 12.1242 6.8675 11.9788C6.81481 11.2709 6.49642 10.6091 5.97617 10.1262C5.45593 9.64329 4.77233 9.37495 4.0625 9.37501H0.55125C0.7425 9.00251 0.99875 8.68751 1.3325 8.46376C1.41692 8.40788 1.50552 8.35857 1.5975 8.31626C1.2425 7.27626 1.335 6.05876 1.6775 5.10251C1.89625 4.48751 2.24375 3.90626 2.72125 3.51876C3.03625 3.26251 3.41125 3.09376 3.82125 3.06126C4.00125 2.20751 4.5075 1.50126 5.16375 0.991264H5.1625ZM10.625 15.625H11.5625C12.3084 15.625 13.0238 15.3287 13.5512 14.8013C14.0787 14.2738 14.375 13.5584 14.375 12.8125V10.5188C14.792 10.3713 15.1435 10.0812 15.3673 9.69971C15.5911 9.31821 15.6728 8.86986 15.598 8.43393C15.5232 7.998 15.2967 7.60254 14.9585 7.31745C14.6204 7.03236 14.1923 6.876 13.75 6.876C13.3077 6.876 12.8796 7.03236 12.5415 7.31745C12.2033 7.60254 11.9768 7.998 11.902 8.43393C11.8272 8.86986 11.9089 9.31821 12.1327 9.69971C12.3565 10.0812 12.708 10.3713 13.125 10.5188V12.8125C13.125 13.675 12.425 14.375 11.5625 14.375H10.625V1.09626C10.6249 0.951245 10.6753 0.810719 10.7675 0.698764C10.8963 0.542514 11.0425 0.386264 11.1975 0.263764C11.335 0.156264 11.5738 1.41024e-05 11.875 1.41024e-05C12.9443 -0.00255388 13.985 0.345657 14.8375 0.991264C15.4937 1.50126 16 2.20751 16.1787 3.06126C16.5887 3.09251 16.9637 3.26251 17.2787 3.51876C17.7562 3.90626 18.1038 4.48751 18.3225 5.10251C18.665 6.05876 18.7575 7.27751 18.4025 8.31501C18.4925 8.35751 18.5813 8.40751 18.6675 8.46501C19.0113 8.69376 19.2725 9.02126 19.465 9.40751C19.8438 10.1638 20 11.2188 20 12.5C20 13.9263 19.4563 14.8838 18.7663 15.475C18.3847 15.8022 17.9344 16.0393 17.4487 16.1688C17.3237 16.8663 16.9738 17.6738 16.425 18.3588C15.7125 19.2525 14.6075 20 13.125 20C12.205 20 11.4313 19.6 10.855 19.1275C10.7832 19.069 10.7253 18.9952 10.6855 18.9115C10.6458 18.8279 10.6251 18.7364 10.625 18.6438V15.625V15.625ZM6.25 5.62501C6.08424 5.62501 5.92527 5.69086 5.80806 5.80807C5.69085 5.92528 5.625 6.08425 5.625 6.25001C5.625 6.41577 5.69085 6.57475 5.80806 6.69196C5.92527 6.80917 6.08424 6.87501 6.25 6.87501C6.41576 6.87501 6.57473 6.80917 6.69194 6.69196C6.80915 6.57475 6.875 6.41577 6.875 6.25001C6.875 6.08425 6.80915 5.92528 6.69194 5.80807C6.57473 5.69086 6.41576 5.62501 6.25 5.62501ZM6.25 13.125C6.08424 13.125 5.92527 13.1909 5.80806 13.3081C5.69085 13.4253 5.625 13.5843 5.625 13.75C5.625 13.9158 5.69085 14.0747 5.80806 14.192C5.92527 14.3092 6.08424 14.375 6.25 14.375C6.41576 14.375 6.57473 14.3092 6.69194 14.192C6.80915 14.0747 6.875 13.9158 6.875 13.75C6.875 13.5843 6.80915 13.4253 6.69194 13.3081C6.57473 13.1909 6.41576 13.125 6.25 13.125ZM13.75 9.37501C13.9158 9.37501 14.0747 9.30917 14.1919 9.19196C14.3092 9.07475 14.375 8.91577 14.375 8.75001C14.375 8.58425 14.3092 8.42528 14.1919 8.30807C14.0747 8.19086 13.9158 8.12501 13.75 8.12501C13.5842 8.12501 13.4253 8.19086 13.3081 8.30807C13.1908 8.42528 13.125 8.58425 13.125 8.75001C13.125 8.91577 13.1908 9.07475 13.3081 9.19196C13.4253 9.30917 13.5842 9.37501 13.75 9.37501Z" />
</svg>
