<svg xmlns="http://www.w3.org/2000/svg" viewBox="0 0 40.5 36">
  <path id="Icon_awesome-brain" data-name="Icon awesome-brain" d="M14.625,0A4.487,4.487,0,0,0,10.28,3.389c-.056,0-.1-.014-.155-.014a4.5,4.5,0,0,0-4.5,4.5,4.147,4.147,0,0,0,.12.984,5.576,5.576,0,0,0-2.911,7.657,5.6,5.6,0,0,0,.64,10.055,5.153,5.153,0,0,0-.1.991,5.059,5.059,0,0,0,5.063,5.063,4.767,4.767,0,0,0,.844-.084,5.05,5.05,0,0,0,9.844-1.6V4.5A4.5,4.5,0,0,0,14.625,0ZM40.5,21.375a5.6,5.6,0,0,0-2.834-4.859,5.534,5.534,0,0,0,.584-2.454,5.625,5.625,0,0,0-3.495-5.2,4.458,4.458,0,0,0-4.38-5.484c-.056,0-.105.014-.155.014A4.491,4.491,0,0,0,21.375,4.5V30.938a5.05,5.05,0,0,0,9.844,1.6,4.767,4.767,0,0,0,.844.084,5.059,5.059,0,0,0,5.063-5.062,5.152,5.152,0,0,0-.1-.991A5.625,5.625,0,0,0,40.5,21.375Z" />
</svg>
