<svg xmlns="http://www.w3.org/2000/svg" viewBox="0 0 58.004 58.003">
  <path id="Subtraction_28" data-name="Subtraction 28" d="M-19449-2298h-48a5.008,5.008,0,0,1-5-5v-48a5.008,5.008,0,0,1,5-5h48a5.008,5.008,0,0,1,5,5v48A5.008,5.008,0,0,1-19449-2298Zm-32.279-49a3.726,3.726,0,0,0-3.719,3.725v32.254a3.726,3.726,0,0,0,3.719,3.725h17.371a3.726,3.726,0,0,0,3.719-3.725v-32.254a3.726,3.726,0,0,0-3.719-3.725Zm8.688,37.222a2.484,2.484,0,0,1-2.48-2.481,2.484,2.484,0,0,1,2.48-2.481,2.484,2.484,0,0,1,2.482,2.481A2.484,2.484,0,0,1-19472.592-2309.779Zm9.3-6.891h-18.6a2,2,0,0,1-2-2v-24.672a2,2,0,0,1,2-2h18.6a2,2,0,0,1,2,2v24.672A2,2,0,0,1-19463.293-2316.671Zm-17.8-7.048a2,2,0,0,0-2,2v.289a2,2,0,0,0,2,2h16.582a2,2,0,0,0,2-2v-.289a2,2,0,0,0-2-2Zm0-6.862a2,2,0,0,0-2,2v.289a2,2,0,0,0,2,2h16.582a2,2,0,0,0,2-2v-.289a2,2,0,0,0-2-2Zm11.148-12.862a2,2,0,0,0-2,2v5.433a2,2,0,0,0,2,2h5.434a2,2,0,0,0,2-2v-5.433a2,2,0,0,0-2-2Zm-11.148,0a2,2,0,0,0-2,2v5.433a2,2,0,0,0,2,2h5.432a2,2,0,0,0,2-2v-5.433a2,2,0,0,0-2-2Z" transform="translate(19502.002 2356.002)"/>
</svg>
