<svg xmlns="http://www.w3.org/2000/svg" viewBox="0 0 18.311 17.473">
  <path id="Path_904" data-name="Path 904" d="M11.48,3.5a.562.562,0,0,1,1.04,0L14.645,8.61a.563.563,0,0,0,.475.345l5.518.442a.563.563,0,0,1,.321.988l-4.2,3.6a.563.563,0,0,0-.182.557l1.285,5.385a.562.562,0,0,1-.84.61l-4.725-2.885a.563.563,0,0,0-.586,0L6.982,20.54a.562.562,0,0,1-.84-.61l1.285-5.386a.562.562,0,0,0-.182-.557l-4.2-3.6A.563.563,0,0,1,3.362,9.4L8.88,8.955a.563.563,0,0,0,.475-.345L11.48,3.5Z" transform="translate(-2.845 -3.15)" fill="#f4d425"/>
</svg>
