<svg xmlns="http://www.w3.org/2000/svg" viewBox="0 0 25.001 25">
  <path id="Subtraction_37" data-name="Subtraction 37" d="M313-4644H294a3,3,0,0,1-3-3v-19a3,3,0,0,1,3-3h19a3,3,0,0,1,3,3v19A3,3,0,0,1,313-4644Zm-13-15a2,2,0,0,0-2,2,2,2,0,0,0,1.478,1.931l.074,2.12A1.987,1.987,0,0,0,298-4651a2,2,0,0,0,2,2,2,2,0,0,0,2-2,2.009,2.009,0,0,0-1.446-1.923l-.075-2.135A2,2,0,0,0,302-4657a2,2,0,0,0-.543-1.37l.621-.854A2,2,0,0,0,303-4659a1.977,1.977,0,0,0,1.179-.386l1.206,1.206A1.983,1.983,0,0,0,305-4657a2,2,0,0,0,2,2,2,2,0,0,0,2-2,2,2,0,0,0-2-2,1.99,1.99,0,0,0-.838.183l-1.346-1.345A1.98,1.98,0,0,0,305-4661a2,2,0,0,0-2-2,2,2,0,0,0-2,2,2,2,0,0,0,.33,1.1l-.722.993A2.015,2.015,0,0,0,300-4659Z" transform="translate(-291 4669)" />
</svg>
