<svg xmlns="http://www.w3.org/2000/svg"  viewBox="0 0 25.001 25">
  <path id="Subtraction_30" data-name="Subtraction 30" d="M313-4644H294a3,3,0,0,1-3-3v-19a3,3,0,0,1,3-3h19a3,3,0,0,1,3,3v19A3,3,0,0,1,313-4644Zm-5.257-5.7-.463,1.929a6,6,0,0,0,2.784.65,4.567,4.567,0,0,0,3.067-.96,2.932,2.932,0,0,0,.99-2.268c0-1.471-.8-2.433-2.6-3.121-1.3-.519-1.871-.816-1.871-1.482,0-.5.454-1,1.467-1a4.2,4.2,0,0,1,2.031.528l.584-1.955a6.312,6.312,0,0,0-2.585-.49c-2.274,0-3.862,1.283-3.862,3.121,0,1.386.925,2.4,2.829,3.1,1.233.44,1.692.833,1.692,1.452,0,.726-.584,1.143-1.6,1.143a5.328,5.328,0,0,1-2.456-.648Zm-7.05.433h0l-.254,1.9a5.782,5.782,0,0,0,1.677.246,3.713,3.713,0,0,0,2.675-.888,4.186,4.186,0,0,0,1.024-3.113v-6.505h-2.444v6.49c0,1.459-.437,2.054-1.509,2.054a3.642,3.642,0,0,1-1.168-.185Z" transform="translate(-291 4669)"/>
</svg>
