<svg xmlns="http://www.w3.org/2000/svg"  viewBox="0 0 25 25"><path d="M313-4575H294a3,3,0,0,1-3-3v-19a3,3,0,0,1,3-3h19a3,3,0,0,1,3,3v19A3,3,0,0,1,313-4575Zm-5.082-6.619h0l3.04,0a1.13,1.13,0,0,0,.955-.478.988.988,0,0,0-.08-1.038l-5.27-9.283a1.1,1.1,0,0,0-.888-.592.984.984,0,0,0-.858.59l-.68,1.192-1.812-3.19a1.122,1.122,0,0,0-.884-.584.981.981,0,0,0-.857.591l-6.413,11.274a1.129,1.129,0,0,0-.057,1.065.994.994,0,0,0,.939.452h12.8Zm2.977-1.051h-1.983v-.006h0a1.39,1.39,0,0,0-.173-.458l-3.993-7.023.936-1.662,5.212,9.148Zm-3.111,0h-7.3l3.648-6.42,3.648,6.418Zm-8.4,0h-4.259l6.33-11.139,2.077,3.649h0l0,0-3.991,7.023a1.383,1.383,0,0,0-.154.454v.007Z" transform="translate(-291.001 4600)" /></svg>