<svg xmlns="http://www.w3.org/2000/svg" viewBox="0 0 25 25"><path d="M23,25H2a2,2,0,0,1-2-2V2A2,2,0,0,1,2,0H23a2,2,0,0,1,2,2V23A2,2,0,0,1,23,25ZM12.564,18.231h0a5.35,5.35,0,0,0,3.283,1.824h.021a1.64,1.64,0,0,0,.8-.211c.979-.565,1.217-2.153.654-4.358,2.195-.616,3.453-1.616,3.453-2.745S19.521,10.613,17.327,10c.563-2.2.325-3.793-.654-4.358a1.594,1.594,0,0,0-.807-.2,5.36,5.36,0,0,0-3.3,1.818,5.359,5.359,0,0,0-3.3-1.818,1.591,1.591,0,0,0-.807.2C7.477,6.2,7.238,7.792,7.8,10c-2.195.617-3.453,1.616-3.453,2.744S5.607,14.871,7.8,15.486c-.564,2.206-.325,3.794.654,4.359a1.631,1.631,0,0,0,.8.211h.025a5.35,5.35,0,0,0,3.282-1.824Zm3.283,1.139h0a4.832,4.832,0,0,1-2.8-1.63A16.887,16.887,0,0,0,14.447,16a17.24,17.24,0,0,0,2.215-.344c.475,1.86.35,3.2-.332,3.6A.959.959,0,0,1,15.847,19.371Zm-6.569,0h0a.955.955,0,0,1-.479-.116c-.683-.394-.807-1.739-.332-3.6A17.22,17.22,0,0,0,10.68,16a17.347,17.347,0,0,0,1.4,1.742A4.83,4.83,0,0,1,9.278,19.368Zm3.285-2.122h0c-.346-.376-.679-.775-.989-1.185.321.016.655.024.991.024s.658-.008.99-.024c-.316.417-.649.816-.99,1.185Zm0-1.847c-.5,0-.993-.019-1.5-.057a20.049,20.049,0,0,1-1.5-2.6,19.461,19.461,0,0,1,1.5-2.6c.508-.038,1.014-.058,1.5-.058s1,.019,1.5.058a19.666,19.666,0,0,1,1.5,2.6,19.937,19.937,0,0,1-1.5,2.6C13.555,15.382,13.064,15.4,12.564,15.4Zm0-4.119a1.464,1.464,0,1,0,1.464,1.464A1.466,1.466,0,0,0,12.564,11.281Zm2.385,3.976v0c.36-.558.693-1.133.989-1.709.2.48.382.967.534,1.449-.5.112-1.016.2-1.522.262Zm-4.77,0h0C9.642,15.189,9.13,15.1,8.656,15c.155-.5.335-.984.534-1.451.145.281.3.573.474.868.161.278.334.561.514.841Zm-2.191-.428h0c-1.85-.52-2.954-1.3-2.954-2.085s1.1-1.566,2.955-2.085A17.037,17.037,0,0,0,8.8,12.741a17.338,17.338,0,0,0-.809,2.085Zm9.151,0h0a16.986,16.986,0,0,0-.808-2.083,17.162,17.162,0,0,0,.808-2.087c1.851.52,2.955,1.3,2.955,2.085s-1.1,1.565-2.954,2.085ZM9.19,11.939v0c-.2-.474-.38-.961-.533-1.448.5-.111,1.015-.2,1.525-.263-.173.268-.347.551-.517.844s-.324.578-.473.867Zm6.748,0v0c-.3-.585-.635-1.161-.99-1.711.524.065,1.037.155,1.526.264-.157.5-.336.983-.534,1.447Zm.724-2.11h0a17.139,17.139,0,0,0-2.213-.343,17.255,17.255,0,0,0-1.4-1.742,4.826,4.826,0,0,1,2.8-1.629.952.952,0,0,1,.483.118c.682.393.806,1.738.332,3.6Zm-8.194,0h0c-.473-1.858-.349-3.2.332-3.6a.95.95,0,0,1,.482-.119,4.827,4.827,0,0,1,2.8,1.63,17.252,17.252,0,0,0-1.4,1.742,17.216,17.216,0,0,0-2.212.343Zm3.1-.4v0c.312-.409.645-.808.991-1.185.353.384.685.782.989,1.184-.329-.014-.661-.023-.989-.023s-.662.008-.99.024Z" /></svg>