<svg xmlns="http://www.w3.org/2000/svg"  viewBox="0 0 25 25"><path d="M23,25H2a2,2,0,0,1-2-2V2A2,2,0,0,1,2,0H23a2,2,0,0,1,2,2V23A2,2,0,0,1,23,25Zm-4.713-6.775h0a2.436,2.436,0,0,1,2.233,1.291c.02.036.043.054.067.054s.066-.035.1-.1a4.609,4.609,0,0,0-1.34-4.069l-.032-.037c.009-.024.019-.049.029-.073a.553.553,0,0,0,.055-.2A6.944,6.944,0,0,0,18.578,9.8a11.538,11.538,0,0,0-4.535-4.36,9.534,9.534,0,0,1,1.809,3.426,6.282,6.282,0,0,1,0,3.527,5.418,5.418,0,0,1-.223.608l-.318-.17A49.221,49.221,0,0,1,7.043,6.717a48.516,48.516,0,0,0,5.008,5.666A56.686,56.686,0,0,1,4.935,7.524a7.688,7.688,0,0,0,.98,1.214,40.2,40.2,0,0,0,7.319,6.85,7.575,7.575,0,0,1-3.7.89,11.3,11.3,0,0,1-4.257-.89A9.468,9.468,0,0,1,3.261,14.5a11.812,11.812,0,0,0,5.454,4.214,11.049,11.049,0,0,0,3.986.774,8.143,8.143,0,0,0,3.753-.86A5.082,5.082,0,0,1,18.287,18.226Z" /></svg>