<svg xmlns="http://www.w3.org/2000/svg" viewBox="0 0 25 25"><path d="M22,25H3a3,3,0,0,1-3-3V3A3,3,0,0,1,3,0H22a3,3,0,0,1,3,3V22A3,3,0,0,1,22,25ZM6.371,14.911A3.037,3.037,0,0,1,7.079,15a2.725,2.725,0,0,1,1.138.629c.178.151.35.315.532.489.166.159.338.323.522.483a5.075,5.075,0,0,0,1.381.9,5.372,5.372,0,0,0,2.114.4H12.8a5.671,5.671,0,0,0,1.543-.2,3.811,3.811,0,0,0,1.249-.6,3.67,3.67,0,0,0,.922-1.013,5.2,5.2,0,0,0,.6-1.42,4.249,4.249,0,0,1-.677.682,2.963,2.963,0,0,1-.733.427,2.536,2.536,0,0,1-.788.173c-.049,0-.1,0-.148,0a2.97,2.97,0,0,1-.7-.086,2.693,2.693,0,0,1-1.129-.626c-.178-.151-.351-.316-.533-.491-.165-.158-.334-.32-.516-.48a5.105,5.105,0,0,0-1.379-.9,5.4,5.4,0,0,0-2.12-.407H8.327a5.7,5.7,0,0,0-1.522.191,3.862,3.862,0,0,0-1.264.6,3.7,3.7,0,0,0-.936,1.018A5.281,5.281,0,0,0,4,16.207a4.307,4.307,0,0,1,.689-.688,2.963,2.963,0,0,1,.742-.431,2.567,2.567,0,0,1,.8-.174C6.275,14.912,6.324,14.911,6.371,14.911Zm4.376-4.872a3,3,0,0,1,.709.089,2.709,2.709,0,0,1,1.131.63c.178.152.35.317.532.492.165.158.334.321.516.481a5.057,5.057,0,0,0,1.373.9,5.33,5.33,0,0,0,2.1.406h.067a5.6,5.6,0,0,0,1.5-.19,3.792,3.792,0,0,0,1.243-.6,3.657,3.657,0,0,0,.917-1.007,5.215,5.215,0,0,0,.593-1.415,4.211,4.211,0,0,1-.674.679,2.921,2.921,0,0,1-.728.424,2.5,2.5,0,0,1-.784.17c-.046,0-.092,0-.139,0a2.971,2.971,0,0,1-.7-.087,2.689,2.689,0,0,1-1.123-.628c-.177-.151-.348-.316-.53-.491-.164-.157-.333-.32-.513-.48a5.083,5.083,0,0,0-1.372-.9A5.353,5.353,0,0,0,12.766,8.1h-.09a5.633,5.633,0,0,0-1.492.186,3.83,3.83,0,0,0-1.256.6A3.67,3.67,0,0,0,9,9.9a5.192,5.192,0,0,0-.6,1.426,4.26,4.26,0,0,1,.684-.684,2.951,2.951,0,0,1,.739-.427,2.531,2.531,0,0,1,.792-.171C10.656,10.041,10.7,10.04,10.748,10.04Z" /></svg>