<svg xmlns="http://www.w3.org/2000/svg" viewBox="0 0 25.001 25">
  <path id="Subtraction_33" data-name="Subtraction 33" d="M313-4644H294a3,3,0,0,1-3-3v-19a3,3,0,0,1,3-3h19a3,3,0,0,1,3,3v19A3,3,0,0,1,313-4644Zm-5.183-5.288h0l-.72.4-.114.063-.043.024-.176.1-.133.074c-.217.121-.394.219-.462.255a1.609,1.609,0,0,0-.23.142,4.273,4.273,0,0,0,.651.926,4.648,4.648,0,0,0,2.543,1.272,7.134,7.134,0,0,0,1.065.067,5.543,5.543,0,0,0,.839-.049,3.33,3.33,0,0,0,2.767-1.9,3.359,3.359,0,0,0-.289-2.927c-.482-.7-1.247-1.182-3.033-1.918-.97-.4-1.281-.6-1.448-.935a.859.859,0,0,1-.107-.449.922.922,0,0,1,.253-.669,1.18,1.18,0,0,1,.858-.3c.05,0,.091,0,.131,0a1.433,1.433,0,0,1,1.175.677c.095.138.187.238.22.238h.006c.636-.379,1.746-1.091,1.737-1.123a3.938,3.938,0,0,0-.6-.771,3.131,3.131,0,0,0-1.563-.866,6,6,0,0,0-1.185-.1,4.42,4.42,0,0,0-.712.045,2.993,2.993,0,0,0-2.564,2.279,4.57,4.57,0,0,0,.045,1.53,3.156,3.156,0,0,0,.687,1.2,6.2,6.2,0,0,0,2.353,1.39c1.119.466,1.521.69,1.718.958a.855.855,0,0,1,.188.61.871.871,0,0,1-.327.72,1.941,1.941,0,0,1-1.253.389,2.65,2.65,0,0,1-1.179-.271,3.277,3.277,0,0,1-.948-.871l-.151-.214Zm-8.089-5.683v8.875h2.3v-8.875h3.255l-.008-.984-.012-.979-4.37-.012h-1.3c-1.832,0-3.075.008-3.092.021a8.986,8.986,0,0,0-.027.99v.964Z" transform="translate(-291 4669)" />
</svg>
